<svg id="Camada_7" data-name="Camada 7" xmlns="http://www.w3.org/2000/svg" viewBox="0 0 1024 768"><defs><style>.cls-1{fill:#173fce;}.cls-2{fill:#ad7910;}.cls-3{fill:#b78618;}.cls-11,.cls-12,.cls-13,.cls-14,.cls-15,.cls-16,.cls-17,.cls-18,.cls-19,.cls-20,.cls-21,.cls-22,.cls-23,.cls-4,.cls-8{fill:none;}.cls-20,.cls-21,.cls-22,.cls-23,.cls-4,.cls-8{stroke:#000;}.cls-11,.cls-12,.cls-13,.cls-14,.cls-15,.cls-16,.cls-17,.cls-18,.cls-19,.cls-20,.cls-23,.cls-4,.cls-8{stroke-miterlimit:10;}.cls-5{fill:silver;}.cls-6{fill:#a3041f;}.cls-7{fill:#fff;}.cls-11,.cls-12,.cls-13,.cls-14,.cls-15,.cls-16,.cls-17,.cls-18,.cls-8{stroke-width:2px;}.cls-9{fill:#085a08;}.cls-10{fill:#2c2b8f;}.cls-11{stroke:#a3041f;}.cls-12{stroke:#a53c13;}.cls-13{stroke:#620170;}.cls-14{stroke:#5b4949;}.cls-15{stroke:#3e302f;}.cls-16{stroke:#afafaf;}.cls-17,.cls-19{stroke:#212121;}.cls-18{stroke:#b7b142;}.cls-20{stroke-width:0.75px;}.cls-21,.cls-22{stroke-linecap:round;stroke-linejoin:round;}.cls-22{stroke-width:1.5px;}.cls-23{stroke-width:6px;}</style></defs><path class="cls-1" d="M422.91,663.22S404,619,428.32,621.75c-14.27,1.75-10.38,12.38-1.59,10.65l1-.16h0c13.67-2.33,10.24-6.71,10.24-6.71s4.12-3.59,4.59,34.53c0,0-4.93,4.06-10.32,5.36C429,666.2,425.53,666,422.91,663.22Z"/><path class="cls-1" d="M428.32,621.75c-.28,3.16-.49,6.66-.59,10.48h0l-1,.16C417.94,634.13,414.05,623.5,428.32,621.75Z"/><path class="cls-2" d="M628.84,298.52c10.44,4.64,7.48,10.41,7.48,10.41-.17,3.35-5.73,9.09-5.73,9.09-3,3.26-10.27,1.2-10.27,1.2s-113.58-20.87-212.2,2.33c0,0-7.27,2.06-10.27-1.2,0,0-5.55-5.74-5.73-9.09,0,0-2.28-4.44,4.29-8.68a30.72,30.72,0,0,1,7.53-3.32C504.5,268,624.5,296.93,624.5,296.93A42,42,0,0,1,628.84,298.52Z"/><path class="cls-3" d="M620.32,319.22c.94,42.36-23.35,186-23.35,186,1.72,5.19-1.59,15.62-1.59,15.62a18.76,18.76,0,0,0-2.89,7.93h0L435.82,530.3a19,19,0,0,0-2.76-7.11s-3.31-10.43-1.59-15.62c0,0-24.29-143.66-23.35-186C506.74,298.35,620.32,319.22,620.32,319.22Z"/><path class="cls-2" d="M593.47,538c17.85,24.38,1.91,22.21,1.91,22.21h-.86L439,561.81a10.74,10.74,0,0,1-2.27,0C426,560.68,435,541.18,435,541.18a23.14,23.14,0,0,0,.8-10.88l156.66-1.51h0A19.81,19.81,0,0,0,593.47,538Z"/><path d="M436.74,561.81a10.74,10.74,0,0,0,2.27,0l155.51-1.58s-.32,24.67,4.62,38.32c0,0,2.54,7.43,3.77,21.35.28,3.16.49,6.66.59,10.48-13.67-2.34-10.24-6.71-10.24-6.71s-4.12-3.59-4.59,34.52c0,0,4.92,4.06,10.32,5.37,0,0-11.71,15-21,16.15l-126.57,2.63c-9.3-.89-19.19-16.93-19.19-16.93,5.39-1.3,10.32-5.36,10.32-5.36-.47-38.12-4.59-34.53-4.59-34.53s3.43,4.38-10.24,6.71c.1-3.82.31-7.32.59-10.48,1.23-13.92,3.77-21.35,3.77-21.35,4.94-13.65,4.64-38.52,4.64-38.52Z"/><path class="cls-3" d="M635.86,226.05c26.5,1.62-7,72.33-7,72.33l-.07.14a42,42,0,0,0-4.34-1.59s-120-28.93-220.56,2.33a30.72,30.72,0,0,0-7.53,3.32s-36-75.9-7.5-78.53C543,209.81,635.86,226.05,635.86,226.05Z"/><path class="cls-1" d="M602.91,619.9c24.29-2.76,5.41,41.47,5.41,41.47-2.62,2.76-6.06,3-9.33,2.19-5.4-1.31-10.32-5.37-10.32-5.37.47-38.11,4.59-34.52,4.59-34.52s-3.43,4.37,10.24,6.71l1,.17C613.29,632.28,617.18,621.64,602.91,619.9Z"/><path class="cls-1" d="M602.91,619.9c14.27,1.74,10.38,12.38,1.59,10.65l-1-.17C603.4,626.56,603.19,623.06,602.91,619.9Z"/><path class="cls-4" d="M435,541.18s-9,19.5,1.72,20.63a10.74,10.74,0,0,0,2.27,0l155.51-1.58h.86s15.94,2.17-1.91-22.21a19.81,19.81,0,0,1-1-9.22,18.76,18.76,0,0,1,2.89-7.93s3.31-10.43,1.59-15.62c0,0,24.29-143.66,23.35-186,0,0,7.27,2.06,10.27-1.2,0,0,5.56-5.74,5.73-9.09,0,0,3-5.77-7.48-10.41a42,42,0,0,0-4.34-1.59s-120-28.93-220.56,2.33a30.72,30.72,0,0,0-7.53,3.32c-6.57,4.24-4.29,8.68-4.29,8.68.18,3.35,5.73,9.09,5.73,9.09,3,3.26,10.27,1.2,10.27,1.2-.94,42.36,23.35,186,23.35,186-1.72,5.19,1.59,15.62,1.59,15.62a19,19,0,0,1,2.76,7.11,23.14,23.14,0,0,1-.8,10.88"/><path class="cls-4" d="M427.73,632.23c.1-3.82.31-7.32.59-10.48,1.23-13.92,3.77-21.35,3.77-21.35,4.94-13.65,4.64-38.52,4.64-38.52"/><path class="cls-4" d="M428.32,621.75c-14.27,1.75-10.38,12.38-1.59,10.65l1-.16h0c13.67-2.33,10.24-6.71,10.24-6.71s4.12-3.59,4.59,34.53c0,0-4.93,4.06-10.32,5.36-3.27.79-6.71.57-9.33-2.19,0,0-18.88-44.23,5.41-41.47"/><path class="cls-4" d="M451.6,682.36l-.17,0c-9.3-.89-19.19-16.93-19.19-16.93"/><path class="cls-4" d="M603.5,630.38c-.1-3.82-.31-7.32-.59-10.48-1.23-13.92-3.77-21.35-3.77-21.35-4.94-13.65-4.62-38.32-4.62-38.32"/><path class="cls-4" d="M602.91,619.9c14.27,1.74,10.38,12.38,1.59,10.65l-1-.17c-13.67-2.34-10.24-6.71-10.24-6.71s-4.12-3.59-4.59,34.52c0,0,4.92,4.06,10.32,5.37,3.27.79,6.71.57,9.33-2.19,0,0,18.88-44.23-5.41-41.47"/><path class="cls-4" d="M599,663.56s-11.71,15-21,16.15l-.44,0"/><path class="cls-4" d="M628.91,298.38s33.45-70.71,7-72.33c0,0-92.86-16.24-246.95-2-28.52,2.63,7.5,78.53,7.5,78.53"/><path class="cls-5" d="M598.11,356.87a3.64,3.64,0,0,1,3.46,3.82L595,489.15a3.64,3.64,0,0,1-3.82,3.46l-15.37-.79a3.63,3.63,0,0,1-3.45-3.82l6.54-128.46a3.65,3.65,0,0,1,3.83-3.46ZM593.92,369c0-.07,0-.14,0-.2a4,4,0,0,0-8-.21l-5.51,108.06a4,4,0,0,0,8,.4Z"/><path class="cls-5" d="M593.93,368.78c0,.06,0,.13,0,.2l-5.51,108a4,4,0,0,1-8-.4l5.51-108.06a4,4,0,0,1,8,.21Z"/><path class="cls-5" d="M540.92,354a3.65,3.65,0,0,1,3.45,3.83l-6.54,128.46a3.65,3.65,0,0,1-3.83,3.45l-15.36-.78a3.65,3.65,0,0,1-3.46-3.83l6.54-128.45a3.66,3.66,0,0,1,3.83-3.46Zm-4.2,12.11c0-.07,0-.14,0-.2a4,4,0,0,0-8-.2l-5.5,108a4,4,0,1,0,8,.41Z"/><path class="cls-5" d="M536.73,365.86c0,.06,0,.13,0,.2l-5.5,108.06a4,4,0,1,1-8-.41l5.5-108a4,4,0,0,1,8,.2Z"/><path class="cls-5" d="M489.14,353.41a3.64,3.64,0,0,1,3.64,3.65l-.2,128.62a3.64,3.64,0,0,1-3.65,3.64l-15.38,0a3.64,3.64,0,0,1-3.64-3.65l.2-128.62a3.63,3.63,0,0,1,3.65-3.64Zm-3.76,120.5.17-108.2a4,4,0,0,0-4-4,4,4,0,0,0-4,4l-.17,108.2a4,4,0,1,0,8,0Z"/><path class="cls-5" d="M485.55,365.71l-.17,108.2a4,4,0,1,1-8,0l.17-108.2a4,4,0,0,1,6.82-2.81A3.94,3.94,0,0,1,485.55,365.71Z"/><path class="cls-5" d="M457.28,484.55a3.65,3.65,0,0,1-3.34,3.93l-15.34,1.23a3.64,3.64,0,0,1-3.92-3.34L424.37,358.16a3.65,3.65,0,0,1,3.34-3.93L443.05,353a3.65,3.65,0,0,1,3.92,3.34Zm-11.8-6.84a4,4,0,0,0,3.66-4.31l-8.67-107.84a4,4,0,0,0-4-3.68h-.31a4,4,0,0,0-3.66,4.31L441.18,474A4,4,0,0,0,445.48,477.71Z"/><path class="cls-5" d="M449.14,473.4a4,4,0,1,1-8,.64L432.51,366.2a4,4,0,0,1,3.66-4.31h.31a4,4,0,0,1,4,3.68Z"/><path class="cls-4" d="M453.94,488.48l-15.34,1.23a3.64,3.64,0,0,1-3.92-3.34L424.37,358.16a3.65,3.65,0,0,1,3.34-3.93L443.05,353a3.65,3.65,0,0,1,3.92,3.34l10.31,128.21A3.65,3.65,0,0,1,453.94,488.48Z"/><path class="cls-4" d="M445.48,477.71a4,4,0,0,1-4.3-3.67L432.51,366.2a4,4,0,0,1,3.66-4.31h.31a4,4,0,0,1,4,3.68l8.67,107.84A4,4,0,0,1,445.48,477.71Z"/><path class="cls-4" d="M488.93,489.32l-15.38,0a3.64,3.64,0,0,1-3.64-3.65l.2-128.62a3.63,3.63,0,0,1,3.65-3.64l15.38,0a3.64,3.64,0,0,1,3.64,3.65l-.2,128.62A3.64,3.64,0,0,1,488.93,489.32Z"/><path class="cls-4" d="M481.38,477.9a4,4,0,0,1-4-4l.17-108.2a4,4,0,0,1,6.82-2.81,3.94,3.94,0,0,1,1.17,2.82l-.17,108.2A4,4,0,0,1,481.38,477.9Z"/><path class="cls-4" d="M534,489.69l-15.36-.78a3.65,3.65,0,0,1-3.46-3.83l6.54-128.45a3.66,3.66,0,0,1,3.83-3.46l15.37.78a3.65,3.65,0,0,1,3.45,3.83l-6.54,128.46A3.65,3.65,0,0,1,534,489.69Z"/><path class="cls-4" d="M527,477.91a4,4,0,0,1-3.78-4.2l5.5-108a4,4,0,0,1,8,.2c0,.06,0,.13,0,.2l-5.5,108.06A4,4,0,0,1,527,477.91Z"/><path class="cls-4" d="M591.2,492.61l-15.37-.79a3.63,3.63,0,0,1-3.45-3.82l6.54-128.46a3.65,3.65,0,0,1,3.83-3.46l15.36.79a3.64,3.64,0,0,1,3.46,3.82L595,489.15A3.64,3.64,0,0,1,591.2,492.61Z"/><path class="cls-4" d="M584.22,480.82a4,4,0,0,1-3.79-4.19l5.51-108.06a4,4,0,0,1,8,.21c0,.06,0,.13,0,.2l-5.51,108A4,4,0,0,1,584.22,480.82Z"/><path class="cls-6" d="M577.56,696.64v.17a8.24,8.24,0,0,1-8.24,8.24H521v-.41a8.24,8.24,0,0,0,8.24-8.24V643a8.24,8.24,0,0,0-5.64-7.82h45.75a8.23,8.23,0,0,1,8.24,8.23Z"/><rect class="cls-7" x="467.73" y="680.05" width="61.48" height="7.94"/><path class="cls-5" d="M529.21,688v8.41a8.24,8.24,0,0,1-8.24,8.24H476a8.24,8.24,0,0,1-8.24-8.24V688Z"/><path class="cls-5" d="M529.21,643v37.06H467.73V643a8.24,8.24,0,0,1,5.64-7.82h50.2A8.24,8.24,0,0,1,529.21,643Z"/><path class="cls-6" d="M521,704.64v.41H462.84c-4.54,0-8.23-3.69-11.11-8.28V643.36c2.88-4.51,6.57-8.19,11.11-8.19h10.53a8.24,8.24,0,0,0-5.64,7.82V696.4a8.24,8.24,0,0,0,8.24,8.24Z"/><line class="cls-8" x1="451.73" y1="640.17" x2="451.73" y2="643.36"/><line class="cls-8" x1="577.56" y1="640.17" x2="577.56" y2="643.4"/><line class="cls-4" x1="467.73" y1="680.05" x2="529.21" y2="680.05"/><line class="cls-4" x1="529.21" y1="687.99" x2="467.73" y2="687.99"/><path class="cls-4" d="M521,704.64H476a8.24,8.24,0,0,1-8.24-8.24V643a8.24,8.24,0,0,1,8.24-8.24h45a8.24,8.24,0,0,1,8.24,8.24V696.4A8.24,8.24,0,0,1,521,704.64Z"/><path class="cls-4" d="M577.56,696.64v.17a8.24,8.24,0,0,1-8.24,8.24H462.84c-4.54,0-8.23-3.69-11.11-8.28V643.36c2.88-4.51,6.57-8.19,11.11-8.19H569.32a8.23,8.23,0,0,1,8.24,8.23Z"/><path class="cls-9" d="M581.85,571v62.82H449.13V600.58h5.31v-2.24H577.56V590.4h2V571Zm-2.29,60.35V606.28h-48v25.06Zm-79.62-1.82v-5.3h-1.47v5.3Zm-3.5-6.65v-5.29H495v5.29Zm0-7.29v-5.3H495v5.3Zm-1.94,13.94v-5.3H493v5.3Zm-1.75-6.65v-5.29h-1.47v5.29Zm0-7.29v-5.3h-1.47v5.3Zm-3.69,0v-5.3h-1.47v5.3Zm-.74,13.94v-5.3h-1.47v5.3Zm-4.38-8.41V605.58h-8.65v15.53Zm-1.79,8.41v-5.3h-1.47v5.3Zm-5.71,0v-5.3H475v5.3Zm-4.94-6.65v-5.29H470v5.29Zm0-7.29v-5.3H470v5.3Zm-1.29,13.94v-5.3h-1.48v5.3Zm-1.77-7v-5.3H467v5.3Zm0-6.94v-5.3H467v5.3Zm-3.12,6.94v-5.3h-1.47v5.3Zm-.73,7v-5.3h-1.47v5.3Zm-6.09,0v-5.3H457v5.3Zm-4.06,1.81v-7.65H449.3v7.65Zm0-7.66V616H449.3v7.65Zm0-8.06V601H449.3v14.62Z"/><path class="cls-9" d="M581.85,561.81V571h-16.5V590.4h12.21V593H456.22v5.39h-1.78V585.67H449.3v14.91h-.17V561.81ZM561.32,576v-9.88H543V576Zm-72.09,12.79V566.4h-9.88v22.41Zm-17.29-1.41V564.64H467V587.4Zm-17.5-2.15V570.64H449.3v14.61Zm0-15v-7.64H449.3v7.64Z"/><path class="cls-10" d="M579.56,606.28v25.06h-48V606.28Zm-11.49,23v-8.91h-7.5v8.91Zm-17.25-.49V614.7H536.53v14.08Z"/><polygon class="cls-5" points="579.56 570.99 579.56 590.4 577.56 590.4 565.35 590.4 565.35 570.99 579.56 570.99"/><polygon class="cls-5" points="577.56 592.95 577.56 598.34 574.21 598.34 573.98 592.95 577.56 592.95"/><polygon class="cls-5" points="573.98 592.95 574.21 598.34 569.44 598.34 569.44 592.95 573.98 592.95"/><rect class="cls-5" x="565.96" y="592.95" width="3.48" height="5.39"/><rect class="cls-5" x="560.57" y="620.36" width="7.5" height="8.91"/><polygon class="cls-5" points="565.96 592.95 565.96 598.34 562.12 598.34 561.85 592.95 565.96 592.95"/><polygon class="cls-5" points="561.85 592.95 562.12 598.34 557.62 598.34 557.62 592.95 561.85 592.95"/><rect class="cls-5" x="542.97" y="566.14" width="18.35" height="9.88"/><rect class="cls-5" x="552.76" y="592.95" width="4.86" height="5.39"/><rect class="cls-5" x="548.26" y="592.95" width="4.5" height="5.39"/><rect class="cls-5" x="536.53" y="614.7" width="14.29" height="14.08"/><polygon class="cls-5" points="548.26 592.95 548.26 598.34 542.71 598.34 542.26 592.95 548.26 592.95"/><polygon class="cls-5" points="542.26 592.95 542.71 598.34 536.75 598.34 536.62 592.95 542.26 592.95"/><polygon class="cls-5" points="536.62 592.95 536.75 598.34 530.4 598.34 530.22 592.95 536.62 592.95"/><polygon class="cls-5" points="530.22 592.95 530.4 598.34 523.43 598.34 523.43 592.95 530.22 592.95"/><polygon class="cls-5" points="523.43 592.95 523.43 598.34 517.43 598.34 517.21 592.95 523.43 592.95"/><polygon class="cls-5" points="517.21 592.95 517.43 598.34 512.04 598.34 511.91 592.95 517.21 592.95"/><polygon class="cls-5" points="511.91 592.95 512.04 598.34 505.56 598.34 505.78 592.95 511.91 592.95"/><polygon class="cls-5" points="505.78 592.95 505.56 598.34 501.15 598.34 501.15 592.95 505.78 592.95"/><rect class="cls-5" x="496.69" y="592.95" width="4.46" height="5.39"/><rect class="cls-5" x="498.47" y="624.22" width="1.47" height="5.3"/><rect class="cls-5" x="491.57" y="592.95" width="5.12" height="5.39"/><rect class="cls-5" x="494.97" y="617.58" width="1.47" height="5.29"/><rect class="cls-5" x="494.97" y="610.28" width="1.47" height="5.3"/><rect class="cls-5" x="493.03" y="624.22" width="1.47" height="5.3"/><rect class="cls-5" x="491.28" y="617.58" width="1.47" height="5.29"/><rect class="cls-5" x="491.28" y="610.28" width="1.47" height="5.3"/><rect class="cls-5" x="487.69" y="592.95" width="3.88" height="5.39"/><rect class="cls-5" x="479.35" y="566.4" width="9.88" height="22.41"/><rect class="cls-5" x="487.59" y="610.28" width="1.47" height="5.3"/><rect class="cls-5" x="486.85" y="624.22" width="1.47" height="5.3"/><rect class="cls-5" x="482.75" y="592.95" width="4.94" height="5.39"/><rect class="cls-5" x="475.29" y="605.58" width="8.65" height="15.53"/><rect class="cls-5" x="478.73" y="592.95" width="4.02" height="5.39"/><rect class="cls-5" x="480.68" y="624.22" width="1.47" height="5.3"/><rect class="cls-5" x="474.1" y="592.95" width="4.63" height="5.39"/><rect class="cls-5" x="474.97" y="624.22" width="1.47" height="5.3"/><rect class="cls-5" x="469.47" y="592.95" width="4.63" height="5.39"/><rect class="cls-5" x="467" y="580.12" width="4.94" height="7.28"/><rect class="cls-5" x="467" y="574.92" width="4.94" height="5.2"/><rect class="cls-5" x="467" y="568.83" width="4.94" height="6.09"/><rect class="cls-5" x="467" y="564.64" width="4.94" height="4.19"/><rect class="cls-5" x="470.03" y="617.58" width="1.47" height="5.29"/><rect class="cls-5" x="470.03" y="610.28" width="1.47" height="5.3"/><rect class="cls-5" x="468.73" y="624.22" width="1.48" height="5.3"/><rect class="cls-5" x="465.63" y="592.95" width="3.84" height="5.39"/><rect class="cls-5" x="466.97" y="617.22" width="1.47" height="5.3"/><rect class="cls-5" x="466.97" y="610.28" width="1.47" height="5.3"/><rect class="cls-5" x="461.18" y="592.95" width="4.45" height="5.39"/><rect class="cls-5" x="463.85" y="617.22" width="1.47" height="5.3"/><rect class="cls-5" x="463.12" y="624.22" width="1.47" height="5.3"/><rect class="cls-5" x="456.22" y="592.95" width="4.96" height="5.39"/><rect class="cls-5" x="457.03" y="624.22" width="1.47" height="5.3"/><rect class="cls-5" x="449.3" y="627.5" width="5.14" height="3.83"/><rect class="cls-5" x="449.3" y="623.68" width="5.14" height="3.82"/><rect class="cls-5" x="449.3" y="619.84" width="5.14" height="3.83"/><rect class="cls-5" x="449.3" y="616.02" width="5.14" height="3.82"/><rect class="cls-5" x="449.3" y="611.78" width="5.14" height="3.83"/><rect class="cls-5" x="449.3" y="608.64" width="5.14" height="3.14"/><rect class="cls-5" x="449.3" y="607.96" width="5.14" height="0.68"/><rect class="cls-5" x="449.3" y="604.81" width="5.14" height="3.15"/><rect class="cls-5" x="449.3" y="600.99" width="5.14" height="3.82"/><polygon class="cls-5" points="454.44 598.34 454.44 600.58 449.3 600.58 449.3 596.75 454.44 596.75 454.44 598.34"/><rect class="cls-5" x="449.3" y="593.31" width="5.14" height="3.44"/><rect class="cls-5" x="449.3" y="592.93" width="5.14" height="0.38"/><rect class="cls-5" x="449.3" y="589.49" width="5.14" height="3.44"/><rect class="cls-5" x="449.3" y="585.67" width="5.14" height="3.82"/><rect class="cls-5" x="449.3" y="581.43" width="5.14" height="3.82"/><rect class="cls-5" x="449.3" y="578.28" width="5.14" height="3.15"/><rect class="cls-5" x="449.3" y="577.61" width="5.14" height="0.67"/><rect class="cls-5" x="449.3" y="574.46" width="5.14" height="3.15"/><rect class="cls-5" x="449.3" y="570.64" width="5.14" height="3.82"/><rect class="cls-5" x="449.3" y="566.4" width="5.14" height="3.82"/><rect class="cls-5" x="449.3" y="562.58" width="5.14" height="3.82"/><polygon class="cls-4" points="581.85 570.99 581.85 633.81 449.13 633.81 449.13 600.58 449.13 561.81 581.85 561.81 581.85 570.99"/><rect class="cls-4" x="479.35" y="566.4" width="9.88" height="22.41"/><polygon class="cls-4" points="471.94 580.12 471.94 587.4 467 587.4 467 580.12 467 574.92 467 568.83 467 564.64 471.94 564.64 471.94 568.83 471.94 574.92 471.94 580.12"/><polygon class="cls-4" points="577.56 592.95 577.56 598.34 574.21 598.34 569.44 598.34 565.96 598.34 562.12 598.34 557.62 598.34 552.76 598.34 548.26 598.34 542.71 598.34 536.75 598.34 530.4 598.34 523.43 598.34 517.43 598.34 512.04 598.34 505.56 598.34 501.15 598.34 496.69 598.34 491.57 598.34 487.69 598.34 482.75 598.34 478.73 598.34 474.1 598.34 469.47 598.34 465.63 598.34 461.18 598.34 456.22 598.34 456.22 592.95 461.18 592.95 465.63 592.95 469.47 592.95 474.1 592.95 478.73 592.95 482.75 592.95 487.69 592.95 491.57 592.95 496.69 592.95 501.15 592.95 505.78 592.95 511.91 592.95 517.21 592.95 523.43 592.95 530.22 592.95 536.62 592.95 542.26 592.95 548.26 592.95 552.76 592.95 557.62 592.95 561.85 592.95 565.96 592.95 569.44 592.95 573.98 592.95 577.56 592.95"/><rect class="cls-4" x="542.97" y="566.14" width="18.35" height="9.88"/><polygon class="cls-4" points="579.56 570.99 579.56 590.4 577.56 590.4 565.35 590.4 565.35 570.99 579.56 570.99"/><rect class="cls-4" x="531.59" y="606.28" width="47.97" height="25.06"/><rect class="cls-4" x="466.97" y="610.28" width="1.47" height="5.3"/><rect class="cls-4" x="470.03" y="610.28" width="1.47" height="5.3"/><rect class="cls-4" x="487.59" y="610.28" width="1.47" height="5.3"/><rect class="cls-4" x="491.28" y="610.28" width="1.47" height="5.3"/><rect class="cls-4" x="494.97" y="610.28" width="1.47" height="5.3"/><rect class="cls-4" x="491.28" y="617.58" width="1.47" height="5.29"/><rect class="cls-4" x="494.97" y="617.58" width="1.47" height="5.29"/><rect class="cls-4" x="470.03" y="617.58" width="1.47" height="5.29"/><rect class="cls-4" x="466.97" y="617.22" width="1.47" height="5.3"/><rect class="cls-4" x="463.85" y="617.22" width="1.47" height="5.3"/><rect class="cls-4" x="457.03" y="624.22" width="1.47" height="5.3"/><rect class="cls-4" x="463.12" y="624.22" width="1.47" height="5.3"/><rect class="cls-4" x="468.73" y="624.22" width="1.48" height="5.3"/><rect class="cls-4" x="474.97" y="624.22" width="1.47" height="5.3"/><rect class="cls-4" x="480.68" y="624.22" width="1.47" height="5.3"/><rect class="cls-4" x="486.85" y="624.22" width="1.47" height="5.3"/><rect class="cls-4" x="493.03" y="624.22" width="1.47" height="5.3"/><rect class="cls-4" x="498.47" y="624.22" width="1.47" height="5.3"/><line class="cls-4" x1="461.18" y1="592.95" x2="461.18" y2="598.34"/><line class="cls-4" x1="465.63" y1="592.95" x2="465.63" y2="598.34"/><line class="cls-4" x1="469.47" y1="592.95" x2="469.47" y2="598.34"/><line class="cls-4" x1="474.1" y1="592.95" x2="474.1" y2="598.34"/><line class="cls-4" x1="478.73" y1="592.95" x2="478.73" y2="598.34"/><line class="cls-4" x1="482.75" y1="592.95" x2="482.75" y2="598.34"/><line class="cls-4" x1="487.69" y1="592.95" x2="487.69" y2="598.34"/><line class="cls-4" x1="491.57" y1="592.95" x2="491.57" y2="598.34"/><line class="cls-4" x1="496.69" y1="592.95" x2="496.69" y2="598.34"/><line class="cls-4" x1="501.15" y1="592.95" x2="501.15" y2="598.34"/><line class="cls-4" x1="505.78" y1="592.95" x2="505.56" y2="598.34"/><line class="cls-4" x1="511.91" y1="592.95" x2="512.04" y2="598.34"/><line class="cls-4" x1="517.21" y1="592.95" x2="517.43" y2="598.34"/><line class="cls-4" x1="523.43" y1="592.95" x2="523.43" y2="598.34"/><line class="cls-4" x1="530.22" y1="592.95" x2="530.4" y2="598.34"/><line class="cls-4" x1="536.62" y1="592.95" x2="536.75" y2="598.34"/><line class="cls-4" x1="542.26" y1="592.95" x2="542.71" y2="598.34"/><line class="cls-4" x1="548.26" y1="592.95" x2="548.26" y2="598.34"/><line class="cls-4" x1="552.76" y1="592.95" x2="552.76" y2="598.34"/><line class="cls-4" x1="557.62" y1="592.95" x2="557.62" y2="598.34"/><line class="cls-4" x1="561.85" y1="592.95" x2="562.12" y2="598.34"/><line class="cls-4" x1="565.96" y1="592.95" x2="565.96" y2="598.34"/><line class="cls-4" x1="569.44" y1="592.95" x2="569.44" y2="598.34"/><line class="cls-4" x1="573.98" y1="592.95" x2="574.21" y2="598.34"/><line class="cls-4" x1="467" y1="568.83" x2="471.94" y2="568.83"/><line class="cls-4" x1="467" y1="574.92" x2="471.94" y2="574.92"/><line class="cls-4" x1="467" y1="580.12" x2="471.94" y2="580.12"/><rect class="cls-4" x="536.53" y="614.7" width="14.29" height="14.08"/><rect class="cls-4" x="560.57" y="620.36" width="7.5" height="8.91"/><rect class="cls-4" x="475.29" y="605.58" width="8.65" height="15.53"/><polyline class="cls-4" points="449.3 566.4 449.3 562.58 454.44 562.58 454.44 566.4"/><rect class="cls-4" x="449.3" y="566.4" width="5.14" height="3.82"/><polyline class="cls-4" points="449.3 574.46 449.3 570.64 454.44 570.64 454.44 574.46"/><polyline class="cls-4" points="449.3 577.61 449.3 574.46 454.44 574.46 454.44 577.61"/><line class="cls-4" x1="454.44" y1="578.28" x2="449.3" y2="578.28"/><polyline class="cls-4" points="449.3 581.43 449.3 578.28 449.3 577.61 454.44 577.61 454.44 578.28 454.44 581.43"/><rect class="cls-4" x="449.3" y="581.43" width="5.14" height="3.82"/><polyline class="cls-4" points="449.3 589.49 449.3 585.67 454.44 585.67 454.44 589.49"/><polyline class="cls-4" points="449.3 592.93 449.3 589.49 454.44 589.49 454.44 592.93"/><line class="cls-4" x1="454.44" y1="593.31" x2="449.3" y2="593.31"/><polyline class="cls-4" points="449.3 596.75 449.3 593.31 449.3 592.93 454.44 592.93 454.44 593.31 454.44 596.75"/><polygon class="cls-4" points="454.44 598.34 454.44 600.58 449.3 600.58 449.3 596.75 454.44 596.75 454.44 598.34"/><polyline class="cls-4" points="449.3 604.81 449.3 600.99 454.44 600.99 454.44 604.81"/><polyline class="cls-4" points="449.3 607.96 449.3 604.81 454.44 604.81 454.44 607.96"/><line class="cls-4" x1="454.44" y1="608.64" x2="449.3" y2="608.64"/><polyline class="cls-4" points="449.3 611.78 449.3 608.64 449.3 607.96 454.44 607.96 454.44 608.64 454.44 611.78"/><rect class="cls-4" x="449.3" y="611.78" width="5.14" height="3.83"/><polyline class="cls-4" points="449.3 619.84 449.3 616.02 454.44 616.02 454.44 619.84"/><rect class="cls-4" x="449.3" y="619.84" width="5.14" height="3.83"/><polyline class="cls-4" points="449.3 627.5 449.3 623.68 454.44 623.68 454.44 627.5"/><rect class="cls-4" x="449.3" y="627.5" width="5.14" height="3.83"/><path class="cls-11" d="M433.57,343.51c-.13.09-11.24-32.57,5.58-40.05,0,0,38-10.06,39.27,37.71"/><path class="cls-11" d="M529.3,345.67s10-33-22-36.68c-12.14.25-27.35,4.08-28.85,32.18"/><path class="cls-11" d="M596.39,344.72s-1-27.42-33.11-32.56c1.11-.22-27.26-3.54-34,33.51"/><path class="cls-12" d="M508,545.18s1.43-36.52,4.92-45.65"/><path class="cls-11" d="M479.15,346.29s20.12,5.4,20.23,15.64c0,0-4.75,95,11.75,132.28,0,0,5.8,16.12,2.12,20.17,0,0-9,6.72-7,30.8"/><path class="cls-13" d="M456.21,502.49c.42-.56-.78,23,14.59,21.47,0,0,24.56-7.38,26,21.68"/><path d="M593.12,356.85a30.61,30.61,0,0,1,.19-3.74c.14-1.23.33-2.45.59-3.66a30.33,30.33,0,0,1,1-3.59c.2-.59.43-1.18.68-1.75a9.55,9.55,0,0,1,1.69-1.24c.1.73.07,1.37.15,2-.24.52-.44,1.06-.63,1.61a26.84,26.84,0,0,0-.92,3.36,33.25,33.25,0,0,0-.56,3.46,31.39,31.39,0,0,0-.19,3.46Z"/><path d="M527.23,353.6c0-.86,0-1.65.09-2.47s.16-1.62.28-2.43.29-1.61.49-2.41c.11-.4.22-.8.35-1.19a6.85,6.85,0,0,1,1.34-.82c.24.52.38,1,.56,1.42-.12.36-.21.72-.31,1.08-.18.74-.34,1.48-.45,2.23s-.21,1.52-.27,2.28-.1,1.54-.1,2.27Z"/><path d="M478.52,353.58c0-2.38-.17-4.8-.39-7.18-.11-1.2-.26-2.39-.42-3.57-.1-.59-.18-1.18-.3-1.76.2-.64.36-1.28.62-2a11.88,11.88,0,0,1,1.35,1.61c.12.61.21,1.22.3,1.83.18,1.22.32,2.45.44,3.67.22,2.45.37,4.88.38,7.36Z"/><path d="M455.85,488c.08,2.82.25,5.68.54,8.5.14,1.42.33,2.83.54,4.23.11.7.22,1.4.36,2.09-.18.75-.31,1.5-.55,2.29a15.08,15.08,0,0,1-1.42-1.92c-.14-.72-.25-1.44-.37-2.16-.21-1.44-.4-2.88-.55-4.32-.29-2.89-.49-5.77-.53-8.69Z"/><path d="M433.74,353.56c0-.9,0-1.85-.1-2.78s-.14-1.86-.26-2.78-.26-1.84-.44-2.75q-.13-.67-.3-1.35c.19-.52.33-1,.58-1.62a9,9,0,0,1,1.36,1.13c.12.48.22,1,.32,1.44.19,1,.35,1.93.47,2.9s.21,1.94.27,2.91.09,1.93.08,2.93Z"/><ellipse cx="472.19" cy="293.58" rx="7.32" ry="2.35"/><ellipse cx="538.09" cy="291.22" rx="7.32" ry="2.35"/><ellipse cx="605.88" cy="301.56" rx="2.35" ry="7.32" transform="translate(273.89 891.31) rotate(-87.08)"/><ellipse cx="417.15" cy="304.77" rx="7.32" ry="2.35" transform="translate(-48.6 81.22) rotate(-10.51)"/><path class="cls-14" d="M488.06,499.61s15.56,5.55,16.21,45.57"/><path class="cls-15" d="M498.68,545.44c-1.47-13.38-2-17.18-1.92-18.31,1.37-14.8-5-21.68-5-21.68-12.53-14.62-24-8.19-24-8.19-6.94,5.44-18.06.14-18.06.14"/><path class="cls-16" d="M499,312.27c0,4-3.65,146.91,1.54,233.17"/><path class="cls-17" d="M500.66,312.27c-.69,33.79-.94,62.46-1,84.36-.11,32.89-.19,63.77,1,104.59.55,18.39,1.2,33.63,1.7,44.12"/><path class="cls-18" d="M581.23,502s-10.9,21.82-31.82,16.78c-.53-.2-39.62-17-39.33,26.42"/><path class="cls-4" d="M495.77,544.85s-4.56,1,7.14.59,10.22-.63,8.16-.63"/><path class="cls-19" d="M498,312.41c-.24,0-.52-.13.6-.26,4.46-.07,3,.33,3,.32"/><path class="cls-13" d="M498.74,561.7c.73,9.81,6.5,60.48,6.12,70.8-.08,2.39.09,3.21-.11.8"/><path class="cls-15" d="M500.68,561.7s5.68,55.28,5.84,66.56a63.11,63.11,0,0,1-.33,6.46s0-1,0-1.14"/><path class="cls-16" d="M502.64,561.7s5.68,55.28,5.85,66.56c0,1.38-.23,6.55-.34,6.46s0-1,0-1.14"/><path class="cls-17" d="M504.62,561.7s5.68,55.28,5.85,66.56c0,1.38-.23,6.55-.34,6.46s0-1,0-1.14"/><path class="cls-14" d="M506.59,561.7s5.68,55.28,5.85,66.56c0,1.38-.23,6.55-.33,6.46s0-1,0-1.14"/><path class="cls-11" d="M508.49,561.7s5.68,55.28,5.85,66.56c0,1.38-.23,6.55-.34,6.46s0-1,0-1.14"/><path class="cls-12" d="M510.49,561.7s5.68,55.28,5.85,66.56c0,1.38-.23,6.55-.34,6.46s0-1,0-1.14"/><path class="cls-18" d="M512.48,561.7s5.68,55.28,5.85,66.56c0,1.38-.23,6.55-.33,6.46s0-1,0-1.14"/><path class="cls-20" d="M509.52,547.66c5.87-5.38,14.1-.16,14.1-.16L533.91,483s-8.23-5.22-14.11.17Z"/><path class="cls-20" d="M533.59,484.81s-8.23-5.22-14.11.17"/><path class="cls-20" d="M533.35,486.81s-8.23-5.23-14.11.16"/><path class="cls-20" d="M533,489s-8.23-5.22-14.1.16"/><path class="cls-20" d="M532.6,491.35s-8.22-5.22-14.1.16"/><path class="cls-20" d="M532.22,494s-8.23-5.22-14.11.16"/><path class="cls-20" d="M531.89,496.44s-8.23-5.22-14.1.16"/><path class="cls-20" d="M531.59,498.6s-8.4-5.22-14.27.16"/><path class="cls-20" d="M531.24,501s-8.44-5.22-14.31.17"/><path class="cls-20" d="M530.66,502.8s-8.19-4.9-14.06.48"/><path class="cls-20" d="M530.37,504.83s-8.22-4.89-14.1.49"/><path class="cls-20" d="M530.11,506.65s-8.35-4.91-14.23.48"/><path class="cls-20" d="M529.75,508.84s-8.23-5-14.11.43"/><path class="cls-20" d="M529.56,510.48s-8.3-4.81-14.17.57"/><path class="cls-20" d="M529.23,512.14s-8.21-4.79-14.08.59"/><path class="cls-20" d="M529.14,514.08s-8.41-5.08-14.29.3"/><path class="cls-20" d="M528.69,515.8s-8.26-4.76-14.13.62"/><path class="cls-20" d="M528.45,517.76s-8.37-4.87-14.25.51"/><path class="cls-20" d="M528.12,519.31s-8.25-4.94-14.13.45"/><path class="cls-20" d="M528,520.87s-8.37-4.63-14.24.75"/><path class="cls-20" d="M527.67,522.92s-8.42-4.6-14.29.79"/><path class="cls-20" d="M527.26,524.67s-8.35-4.46-14.22.92"/><path class="cls-20" d="M527.09,526.54s-8.39-4.61-14.27.78"/><path class="cls-20" d="M526.75,528.18s-8.33-4.52-14.21.86"/><path class="cls-20" d="M526.51,529.81s-8.39-4.44-14.26.94"/><path class="cls-20" d="M526.2,531.35s-8.29-4.47-14.17.92"/><path class="cls-20" d="M525.91,533.1s-8.23-4.62-14.11.77"/><path class="cls-20" d="M525.69,534.88s-8.31-4.79-14.19.59"/><path class="cls-20" d="M525.39,536.53s-8.26-4.71-14.14.68"/><path class="cls-20" d="M525.08,538.45s-8.29-4.74-14.17.64"/><path class="cls-20" d="M524.83,540.44s-8.29-5-14.16.35"/><path class="cls-20" d="M524.55,542.23s-8.23-5.22-14.11.16"/><path class="cls-20" d="M524.36,544s-8.38-5.11-14.26.27"/><path class="cls-20" d="M524.08,545.7s-8.34-5.07-14.22.31"/><path class="cls-20" d="M509.73,546c5.88-5.38,14.11-.16,14.11-.16l10.29-64.5s-8.23-5.22-14.11.16Z"/><path class="cls-20" d="M533.8,483.14s-8.22-5.22-14.1.16"/><path class="cls-20" d="M533.56,485.13s-8.22-5.22-14.1.16"/><path class="cls-20" d="M533.26,487.29s-8.23-5.22-14.11.17"/><path class="cls-20" d="M532.82,489.67s-8.23-5.22-14.1.16"/><path class="cls-20" d="M532.43,492.3s-8.23-5.22-14.1.17"/><path class="cls-20" d="M532.11,494.76s-8.23-5.22-14.11.17"/><path class="cls-20" d="M531.8,496.92s-8.39-5.21-14.27.17"/><path class="cls-20" d="M531.45,499.37s-8.43-5.22-14.31.16"/><path class="cls-20" d="M530.87,501.12s-8.18-4.9-14.06.49"/><path class="cls-20" d="M530.58,503.15s-8.22-4.89-14.09.49"/><path class="cls-20" d="M530.32,505s-8.34-4.9-14.22.48"/><path class="cls-20" d="M530,507.17s-8.23-5-14.1.42"/><path class="cls-20" d="M529.78,508.81s-8.3-4.82-14.18.57"/><path class="cls-20" d="M529.45,510.47s-8.21-4.79-14.09.59"/><path class="cls-20" d="M529.36,512.4s-8.42-5.08-14.29.31"/><path class="cls-20" d="M528.91,514.13s-8.26-4.77-14.14.62"/><path class="cls-20" d="M528.67,516.08s-8.37-4.87-14.25.52"/><path class="cls-20" d="M528.33,517.64s-8.25-4.94-14.12.44"/><path class="cls-20" d="M528.18,519.2s-8.36-4.64-14.24.75"/><path class="cls-20" d="M527.89,521.25s-8.42-4.6-14.3.78"/><path class="cls-20" d="M527.48,523s-8.35-4.46-14.23.92"/><path class="cls-20" d="M527.3,524.86s-8.38-4.6-14.26.78"/><path class="cls-20" d="M527,526.5s-8.32-4.52-14.2.87"/><path class="cls-20" d="M526.73,528.14s-8.39-4.45-14.27.93"/><path class="cls-20" d="M526.41,529.68s-8.29-4.47-14.16.91"/><path class="cls-20" d="M526.12,531.43s-8.23-4.62-14.1.76"/><path class="cls-20" d="M525.91,533.2s-8.32-4.78-14.19.6"/><path class="cls-20" d="M525.6,534.86s-8.25-4.71-14.13.67"/><path class="cls-20" d="M525.3,536.77s-8.3-4.74-14.17.65"/><path class="cls-20" d="M525,538.76s-8.28-5-14.16.36"/><path class="cls-20" d="M524.76,540.56s-8.23-5.23-14.1.16"/><path class="cls-20" d="M524.58,542.36s-8.38-5.11-14.26.28"/><path class="cls-20" d="M524.29,544s-8.34-5.07-14.21.32"/><path class="cls-20" d="M523.62,547.5l-14.1.16s-14.81,19.36-1,13.44"/><path class="cls-20" d="M577.7,552.21c5.3-6,14-1.61,14-1.61l3.62-65.21s-8.72-4.35-14,1.61Z"/><path class="cls-20" d="M595.2,487.22s-8.72-4.35-14,1.61"/><path class="cls-20" d="M595.17,489.23s-8.72-4.35-14,1.61"/><path class="cls-20" d="M595.09,491.41s-8.73-4.35-14,1.61"/><path class="cls-20" d="M594.89,493.82s-8.72-4.35-14,1.61"/><path class="cls-20" d="M594.78,496.48s-8.72-4.35-14,1.61"/><path class="cls-20" d="M594.71,499s-8.72-4.35-14,1.61"/><path class="cls-20" d="M594.63,501.14s-8.89-4.33-14.18,1.63"/><path class="cls-20" d="M594.53,503.6s-8.93-4.32-14.22,1.64"/><path class="cls-20" d="M594.13,505.41s-8.64-4-13.94,1.92"/><path class="cls-20" d="M594.05,507.46s-8.68-4-14,1.94"/><path class="cls-20" d="M594,509.3s-8.81-4-14.1,1.93"/><path class="cls-20" d="M593.85,511.52s-8.7-4.09-14,1.87"/><path class="cls-20" d="M593.83,513.17s-8.75-3.94-14,2"/><path class="cls-20" d="M593.67,514.85s-8.66-3.92-13.95,2"/><path class="cls-20" d="M593.78,516.79s-8.89-4.19-14.19,1.77"/><path class="cls-20" d="M593.51,518.55s-8.7-3.89-14,2.06"/><path class="cls-20" d="M593.47,520.52s-8.82-4-14.12,2"/><path class="cls-20" d="M593.3,522.1s-8.71-4.07-14,1.89"/><path class="cls-20" d="M593.31,523.67s-8.8-3.76-14.09,2.2"/><path class="cls-20" d="M593.23,525.73s-8.85-3.7-14.14,2.25"/><path class="cls-20" d="M593,527.52s-8.77-3.58-14.06,2.38"/><path class="cls-20" d="M593,529.39s-8.81-3.72-14.1,2.24"/><path class="cls-20" d="M592.85,531.06s-8.75-3.64-14,2.32"/><path class="cls-20" d="M592.78,532.71s-8.8-3.56-14.1,2.39"/><path class="cls-20" d="M592.62,534.28s-8.7-3.6-14,2.36"/><path class="cls-20" d="M592.52,536s-8.67-3.75-14,2.21"/><path class="cls-20" d="M592.48,537.83s-8.76-3.91-14.05,2"/><path class="cls-20" d="M592.35,539.51s-8.7-3.84-14,2.12"/><path class="cls-20" d="M592.24,541.44s-8.74-3.86-14,2.1"/><path class="cls-20" d="M592.19,543.45s-8.75-4.15-14.05,1.81"/><path class="cls-20" d="M592.1,545.26s-8.73-4.35-14,1.61"/><path class="cls-20" d="M592.1,547.08s-8.86-4.22-14.15,1.74"/><path class="cls-20" d="M592,548.76s-8.82-4.19-14.11,1.77"/><path class="cls-20" d="M577.75,550.52c5.29-6,14-1.61,14-1.61l3.62-65.21s-8.72-4.35-14,1.61Z"/><path class="cls-20" d="M595.25,485.53s-8.73-4.34-14,1.61"/><path class="cls-20" d="M595.21,487.54s-8.72-4.35-14,1.61"/><path class="cls-20" d="M595.13,489.72s-8.72-4.35-14,1.61"/><path class="cls-20" d="M594.94,492.13s-8.72-4.35-14,1.61"/><path class="cls-20" d="M594.82,494.79s-8.72-4.35-14,1.61"/><path class="cls-20" d="M594.75,497.27s-8.72-4.35-14,1.61"/><path class="cls-20" d="M594.67,499.45s-8.89-4.33-14.18,1.63"/><path class="cls-20" d="M594.57,501.92s-8.92-4.33-14.22,1.63"/><path class="cls-20" d="M594.18,503.72s-8.65-4-13.94,1.93"/><path class="cls-20" d="M594.1,505.77s-8.68-4-14,1.94"/><path class="cls-20" d="M594,507.61s-8.8-4-14.1,1.93"/><path class="cls-20" d="M593.89,509.83s-8.7-4.09-14,1.87"/><path class="cls-20" d="M593.87,511.48s-8.75-3.94-14,2"/><path class="cls-20" d="M593.71,513.16s-8.65-3.92-14,2"/><path class="cls-20" d="M593.82,515.1s-8.89-4.19-14.18,1.77"/><path class="cls-20" d="M593.55,516.86s-8.7-3.89-14,2.07"/><path class="cls-20" d="M593.51,518.83s-8.82-4-14.11,2"/><path class="cls-20" d="M593.34,520.41s-8.71-4.07-14,1.89"/><path class="cls-20" d="M593.35,522s-8.79-3.75-14.09,2.2"/><path class="cls-20" d="M593.27,524.05s-8.85-3.71-14.14,2.25"/><path class="cls-20" d="M593,525.83s-8.76-3.58-14.06,2.38"/><path class="cls-20" d="M593.06,527.71S584.24,524,579,529.94"/><path class="cls-20" d="M592.89,529.37s-8.75-3.64-14,2.32"/><path class="cls-20" d="M592.82,531s-8.8-3.56-14.09,2.4"/><path class="cls-20" d="M592.67,532.59s-8.71-3.6-14,2.36"/><path class="cls-20" d="M592.56,534.36s-8.66-3.75-14,2.2"/><path class="cls-20" d="M592.53,536.15s-8.77-3.92-14.06,2"/><path class="cls-20" d="M592.39,537.82s-8.69-3.84-14,2.12"/><path class="cls-20" d="M592.29,539.76s-8.74-3.87-14,2.09"/><path class="cls-20" d="M592.24,541.76s-8.76-4.15-14,1.81"/><path class="cls-20" d="M592.14,543.57s-8.72-4.34-14,1.61"/><path class="cls-20" d="M592.14,545.39s-8.86-4.22-14.15,1.74"/><path class="cls-20" d="M592,547.07s-8.82-4.18-14.11,1.77"/><path class="cls-20" d="M591.72,550.6l-14,1.61s-14.61,14.13-1.29,8.21"/><path class="cls-20" d="M477.5,549c4.49-6.58,13.69-3.37,13.69-3.37l-4.65-65.14s-9.2-3.21-13.7,3.36Z"/><path class="cls-20" d="M486.64,482.32s-9.2-3.21-13.7,3.37"/><path class="cls-20" d="M486.86,484.32s-9.2-3.21-13.7,3.36"/><path class="cls-20" d="M487.05,486.49s-9.2-3.21-13.7,3.37"/><path class="cls-20" d="M487.17,488.91s-9.2-3.21-13.7,3.37"/><path class="cls-20" d="M487.39,491.56s-9.2-3.21-13.7,3.37"/><path class="cls-20" d="M487.63,494s-9.2-3.21-13.7,3.37"/><path class="cls-20" d="M487.83,496.2S478.46,493,474,499.61"/><path class="cls-20" d="M488,498.66s-9.4-3.16-13.9,3.42"/><path class="cls-20" d="M487.88,500.5s-9.09-2.91-13.59,3.67"/><path class="cls-20" d="M488.06,502.55s-9.12-2.9-13.62,3.68"/><path class="cls-20" d="M488.22,504.38s-9.25-2.88-13.75,3.7"/><path class="cls-20" d="M488.37,506.59s-9.15-2.95-13.65,3.63"/><path class="cls-20" d="M488.56,508.23s-9.18-2.8-13.68,3.78"/><path class="cls-20" d="M488.61,509.93s-9.08-2.8-13.58,3.78"/><path class="cls-20" d="M489,511.83s-9.35-3-13.84,3.55"/><path class="cls-20" d="M488.92,513.62s-9.12-2.77-13.62,3.81"/><path class="cls-20" d="M489.13,515.57s-9.26-2.84-13.76,3.74"/><path class="cls-20" d="M489.16,517.16s-9.16-2.93-13.65,3.65"/><path class="cls-20" d="M489.37,518.72s-9.2-2.62-13.7,4"/><path class="cls-20" d="M489.55,520.78s-9.25-2.56-13.74,4"/><path class="cls-20" d="M489.55,522.58s-9.15-2.45-13.65,4.13"/><path class="cls-20" d="M489.8,524.43s-9.22-2.58-13.71,4"/><path class="cls-20" d="M489.84,526.11s-9.13-2.51-13.63,4.07"/><path class="cls-20" d="M490,527.75s-9.19-2.42-13.68,4.16"/><path class="cls-20" d="M490,529.33s-9.09-2.47-13.59,4.11"/><path class="cls-20" d="M490.15,531.09s-9.07-2.62-13.57,4"/><path class="cls-20" d="M490.34,532.87s-9.19-2.77-13.68,3.81"/><path class="cls-20" d="M490.42,534.55s-9.11-2.71-13.61,3.87"/><path class="cls-20" d="M490.56,536.48s-9.16-2.72-13.66,3.86"/><path class="cls-20" d="M490.76,538.48s-9.21-3-13.71,3.57"/><path class="cls-20" d="M490.89,540.29s-9.2-3.21-13.69,3.37"/><path class="cls-20" d="M491.13,542.09s-9.33-3.06-13.82,3.51"/><path class="cls-20" d="M491.23,543.78s-9.27-3-13.77,3.53"/><path class="cls-20" d="M477.33,547.32C481.82,540.74,491,544,491,544l-4.65-65.14s-9.2-3.21-13.7,3.36Z"/><path class="cls-20" d="M486.47,480.64s-9.2-3.21-13.7,3.37"/><path class="cls-20" d="M486.69,482.64s-9.2-3.21-13.7,3.37"/><path class="cls-20" d="M486.88,484.81s-9.2-3.21-13.7,3.37"/><path class="cls-20" d="M487,487.23s-9.2-3.21-13.7,3.37"/><path class="cls-20" d="M487.22,489.88s-9.2-3.21-13.7,3.37"/><path class="cls-20" d="M487.46,492.35s-9.2-3.21-13.7,3.37"/><path class="cls-20" d="M487.65,494.52s-9.36-3.17-13.85,3.41"/><path class="cls-20" d="M487.87,497s-9.4-3.16-13.9,3.42"/><path class="cls-20" d="M487.71,498.82s-9.09-2.91-13.59,3.67"/><path class="cls-20" d="M487.89,500.87s-9.12-2.9-13.62,3.68"/><path class="cls-20" d="M488.05,502.7s-9.25-2.88-13.75,3.7"/><path class="cls-20" d="M488.2,504.91s-9.15-3-13.65,3.63"/><path class="cls-20" d="M488.39,506.55s-9.18-2.79-13.68,3.78"/><path class="cls-20" d="M488.44,508.25s-9.08-2.8-13.58,3.78"/><path class="cls-20" d="M488.79,510.15s-9.35-3-13.84,3.55"/><path class="cls-20" d="M488.75,511.94s-9.13-2.77-13.62,3.81"/><path class="cls-20" d="M489,513.89s-9.26-2.84-13.76,3.74"/><path class="cls-20" d="M489,515.48s-9.16-2.93-13.65,3.65"/><path class="cls-20" d="M489.2,517s-9.2-2.62-13.7,4"/><path class="cls-20" d="M489.38,519.1s-9.25-2.56-13.74,4"/><path class="cls-20" d="M489.38,520.9s-9.15-2.45-13.65,4.13"/><path class="cls-20" d="M489.63,522.75s-9.22-2.57-13.71,4"/><path class="cls-20" d="M489.67,524.43s-9.13-2.51-13.63,4.07"/><path class="cls-20" d="M489.82,526.07s-9.19-2.42-13.68,4.16"/><path class="cls-20" d="M489.86,527.65s-9.09-2.47-13.59,4.11"/><path class="cls-20" d="M490,529.41s-9.06-2.62-13.56,4"/><path class="cls-20" d="M490.17,531.19S481,528.42,476.48,535"/><path class="cls-20" d="M490.25,532.87s-9.11-2.71-13.61,3.87"/><path class="cls-20" d="M490.39,534.8s-9.16-2.72-13.66,3.86"/><path class="cls-20" d="M490.59,536.8s-9.21-3-13.71,3.57"/><path class="cls-20" d="M490.72,538.61S481.52,535.4,477,542"/><path class="cls-20" d="M491,540.41s-9.33-3.06-13.82,3.51"/><path class="cls-20" d="M491.06,542.1s-9.28-3-13.77,3.54"/><path class="cls-20" d="M491.19,545.63,477.5,549s-11.56,17.87,3.44,12.38"/><path class="cls-20" d="M439.85,553c4.5-6.58,13.7-3.36,13.7-3.36l-4.66-65.15s-9.2-3.21-13.7,3.37Z"/><path class="cls-20" d="M449,486.34s-9.2-3.22-13.7,3.36"/><path class="cls-20" d="M449.21,488.33s-9.2-3.21-13.7,3.37"/><path class="cls-20" d="M449.4,490.5s-9.2-3.21-13.69,3.37"/><path class="cls-20" d="M449.52,492.92s-9.2-3.21-13.7,3.37"/><path class="cls-20" d="M449.74,495.57s-9.2-3.21-13.7,3.37"/><path class="cls-20" d="M450,498s-9.2-3.21-13.69,3.37"/><path class="cls-20" d="M450.18,500.21s-9.36-3.17-13.86,3.41"/><path class="cls-20" d="M450.39,502.67s-9.4-3.16-13.89,3.42"/><path class="cls-20" d="M450.23,504.51s-9.09-2.91-13.58,3.67"/><path class="cls-20" d="M450.41,506.56s-9.12-2.9-13.62,3.68"/><path class="cls-20" d="M450.57,508.39s-9.25-2.88-13.74,3.7"/><path class="cls-20" d="M450.72,510.61s-9.15-3-13.64,3.62"/><path class="cls-20" d="M450.91,512.24s-9.18-2.79-13.67,3.79"/><path class="cls-20" d="M451,513.94s-9.08-2.8-13.58,3.78"/><path class="cls-20" d="M451.32,515.84s-9.35-3-13.85,3.55"/><path class="cls-20" d="M451.27,517.63s-9.12-2.77-13.62,3.81"/><path class="cls-20" d="M451.48,519.58s-9.26-2.84-13.75,3.74"/><path class="cls-20" d="M451.51,521.17s-9.15-2.93-13.65,3.65"/><path class="cls-20" d="M451.72,522.73s-9.2-2.61-13.7,4"/><path class="cls-20" d="M451.9,524.79s-9.24-2.56-13.74,4"/><path class="cls-20" d="M451.9,526.59s-9.15-2.45-13.64,4.13"/><path class="cls-20" d="M452.15,528.44s-9.21-2.57-13.71,4"/><path class="cls-20" d="M452.2,530.12s-9.14-2.51-13.64,4.07"/><path class="cls-20" d="M452.34,531.76s-9.18-2.42-13.68,4.16"/><path class="cls-20" d="M452.38,533.34s-9.09-2.47-13.59,4.11"/><path class="cls-20" d="M452.5,535.1s-9.07-2.62-13.56,4"/><path class="cls-20" d="M452.69,536.88s-9.18-2.77-13.68,3.81"/><path class="cls-20" d="M452.77,538.56s-9.11-2.7-13.61,3.87"/><path class="cls-20" d="M452.91,540.5s-9.16-2.73-13.65,3.85"/><path class="cls-20" d="M453.12,542.49s-9.22-3-13.71,3.57"/><path class="cls-20" d="M453.25,544.3s-9.2-3.21-13.7,3.37"/><path class="cls-20" d="M453.48,546.1s-9.32-3.06-13.82,3.52"/><path class="cls-20" d="M453.58,547.79s-9.27-3-13.77,3.54"/><path class="cls-20" d="M439.68,551.33c4.5-6.58,13.7-3.36,13.7-3.36l-4.66-65.15s-9.2-3.21-13.7,3.37Z"/><path class="cls-20" d="M448.82,484.66s-9.2-3.22-13.7,3.36"/><path class="cls-20" d="M449,486.65s-9.2-3.21-13.7,3.37"/><path class="cls-20" d="M449.23,488.82s-9.2-3.21-13.69,3.37"/><path class="cls-20" d="M449.35,491.24s-9.2-3.21-13.7,3.37"/><path class="cls-20" d="M449.57,493.89s-9.2-3.21-13.7,3.37"/><path class="cls-20" d="M449.81,496.36s-9.2-3.21-13.69,3.37"/><path class="cls-20" d="M450,498.53s-9.36-3.17-13.86,3.41"/><path class="cls-20" d="M450.22,501s-9.4-3.16-13.89,3.42"/><path class="cls-20" d="M450.06,502.83s-9.09-2.9-13.59,3.67"/><path class="cls-20" d="M450.24,504.88s-9.12-2.9-13.62,3.68"/><path class="cls-20" d="M450.4,506.71s-9.25-2.88-13.74,3.7"/><path class="cls-20" d="M450.55,508.93s-9.15-3-13.64,3.62"/><path class="cls-20" d="M450.74,510.56s-9.18-2.79-13.67,3.79"/><path class="cls-20" d="M450.79,512.26s-9.08-2.8-13.58,3.78"/><path class="cls-20" d="M451.15,514.17s-9.35-3-13.85,3.54"/><path class="cls-20" d="M451.1,516s-9.12-2.77-13.62,3.81"/><path class="cls-20" d="M451.31,517.9s-9.26-2.84-13.75,3.74"/><path class="cls-20" d="M451.34,519.49s-9.15-2.93-13.65,3.65"/><path class="cls-20" d="M451.55,521.05s-9.2-2.61-13.7,4"/><path class="cls-20" d="M451.73,523.11s-9.24-2.56-13.74,4"/><path class="cls-20" d="M451.73,524.91s-9.15-2.45-13.64,4.13"/><path class="cls-20" d="M452,526.77s-9.21-2.58-13.71,4"/><path class="cls-20" d="M452,528.44s-9.14-2.51-13.64,4.07"/><path class="cls-20" d="M452.17,530.08s-9.18-2.42-13.68,4.16"/><path class="cls-20" d="M452.21,531.66s-9.09-2.47-13.59,4.11"/><path class="cls-20" d="M452.33,533.42s-9.07-2.62-13.57,4"/><path class="cls-20" d="M452.52,535.2s-9.19-2.77-13.68,3.81"/><path class="cls-20" d="M452.6,536.88s-9.11-2.7-13.61,3.88"/><path class="cls-20" d="M452.74,538.82s-9.16-2.73-13.65,3.85"/><path class="cls-20" d="M453,540.81s-9.22-3-13.71,3.57"/><path class="cls-20" d="M453.08,542.62s-9.2-3.21-13.7,3.37"/><path class="cls-20" d="M453.31,544.43s-9.32-3.07-13.82,3.51"/><path class="cls-20" d="M453.41,546.11s-9.27-3-13.77,3.54"/><path class="cls-20" d="M453.55,549.65,439.85,553s-11.41,15.68,3.68,8.75"/><path class="cls-4" d="M448.72,482.82c-6.07,1.69-4.1-12.28-3-5.67"/><path class="cls-4" d="M482.51,478c-5.67,2-.74-6.56-.55-.62"/><path class="cls-4" d="M534,482.42c-5.28,2-6.4-10.67-7.3-5.05"/><path class="cls-4" d="M581.36,485.46c-5.29,2,3.34-10.83,3.13-5.14"/><path class="cls-5" d="M623.9,79.88s17.11.45,15.69,18.24L623.87,224.33c-2.75-.77-42.37-3.94-42.37-3.94L597.28,94.75S599.81,76.37,623.9,79.88Zm-5.08,25.57a7.78,7.78,0,1,0-8.23-7.76A8,8,0,0,0,618.82,105.45Z"/><path d="M627.06,97.69a8.25,8.25,0,1,1-8.24-7.77A8,8,0,0,1,627.06,97.69Z"/><path class="cls-5" d="M553.55,63.29s17.11-1,16.92,18.58L564.21,219.4l-43.13-1.28L528,81.83S529.28,61.53,553.55,63.29Zm-3,28.15a7.78,7.78,0,1,0-8.24-7.77A8,8,0,0,0,550.56,91.44Z"/><path d="M558.79,83.67a8.25,8.25,0,1,1-8.23-7.76A8,8,0,0,1,558.79,83.67Z"/><path class="cls-5" d="M495.86,80.55l2,137.65-43.13,1.31L453.49,83s0-20.33,24.37-20C477.86,63,494.88,61,495.86,80.55ZM475.67,90.94a7.78,7.78,0,1,0-8.24-7.77A8,8,0,0,0,475.67,90.94Z"/><path d="M483.91,83.17a8.25,8.25,0,1,1-8.24-7.76A8,8,0,0,1,483.91,83.17Z"/><path class="cls-5" d="M420.21,92.78l14.54,127.78-42.43,3.3-14-124.41S376.44,81,400.67,78.74C400.67,78.74,417.41,75.16,420.21,92.78Zm-19.65,13a7.78,7.78,0,1,0-8.24-7.76A8,8,0,0,0,400.56,105.81Z"/><path d="M408.79,98.05a8.25,8.25,0,1,1-8.23-7.77A8,8,0,0,1,408.79,98.05Z"/><path class="cls-21" d="M392.32,223.86l-14-124.41S376.44,81,400.67,78.74c0,0,16.74-3.58,19.54,14l14.54,127.78Z"/><path class="cls-21" d="M623.87,224.33,639.59,98.12C641,80.33,623.9,79.88,623.9,79.88c-24.09-3.51-26.62,14.87-26.62,14.87L581.5,220.39S621.12,223.56,623.87,224.33Z"/><path class="cls-21" d="M454.72,219.51,453.49,83s0-20.33,24.37-20c0,0,17-2,18,17.54l2,137.65Z"/><path class="cls-21" d="M564.21,219.4l6.26-137.53c.19-19.56-16.92-18.58-16.92-18.58C529.28,61.53,528,81.83,528,81.83l-6.94,136.29Z"/><path class="cls-22" d="M408.79,98.05a8.25,8.25,0,1,1-8.23-7.77A8,8,0,0,1,408.79,98.05Z"/><path class="cls-22" d="M483.91,83.17a8.25,8.25,0,1,1-8.24-7.76A8,8,0,0,1,483.91,83.17Z"/><path class="cls-22" d="M558.79,83.67a8.25,8.25,0,1,1-8.23-7.76A8,8,0,0,1,558.79,83.67Z"/><path class="cls-22" d="M627.06,97.69a8.25,8.25,0,1,1-8.24-7.77A8,8,0,0,1,627.06,97.69Z"/><path class="cls-23" d="M551.16,88.75c0-3,.16,1.5-.52,24.12-.17,6.11-7.29,86.7-12.1,172.13"/><path class="cls-23" d="M400.65,103.16h0s0,5.24,1.44,22.77c6.92,49.27,8.7,99.14,11.09,150.53.3,6.59-.14,13,1.53,19.2"/><path class="cls-23" d="M618.82,105.45a.36.36,0,0,0,0-.1s0,1.42,0,1.52a162.14,162.14,0,0,1-1.08,18.71c-1,8-4.92,52.78-6.12,87.88-.93,27.17-.14,46.78-6.17,78.56-.06.29-.1.52-.13.67"/><path class="cls-23" d="M474.44,89.71c.82-3.09-1.4,1.77-2.09,24.4-.24.45-4.89,104.66-.55,171.7"/><path class="cls-23" d="M472.33,114.23c-.25.55-5.61,114.91-.56,171.7"/><line class="cls-23" x1="445.32" y1="474.72" x2="416.97" y2="303.67"/><line class="cls-23" x1="472.33" y1="292.43" x2="481.38" y2="474.72"/><line class="cls-23" x1="538.09" y1="290.29" x2="527.03" y2="475.08"/><line class="cls-23" x1="604.03" y1="300.9" x2="584.49" y2="477.7"/></svg>