<svg xmlns="http://www.w3.org/2000/svg" viewBox="0 0 1024 768"><defs><style>.cls-1{fill:#ffe1dd;}.cls-2{fill:#f4cbb9;}.cls-3{fill:#efcbb4;}.cls-11,.cls-12,.cls-13,.cls-14,.cls-4{fill:none;stroke-miterlimit:10;}.cls-4{stroke:#fff;stroke-width:0.25px;}.cls-5{fill:#173fce;}.cls-6{fill:#a3041f;}.cls-7{fill:#085a08;}.cls-8{fill:#ad7910;}.cls-9{fill:#b78618;}.cls-10{fill:silver;}.cls-11,.cls-13,.cls-14{stroke:#000;}.cls-12{stroke:#772f32;}.cls-13{stroke-width:2px;}.cls-14{stroke-width:0.75px;}</style></defs><g id="mão"><path class="cls-1" d="M448.53,555a1.5,1.5,0,0,0,0-3,1.5,1.5,0,0,0,0,3Z"/></g><g id="luva"><path class="cls-2" d="M476,405.8l90.23,30.82C555.72,429,479.57,406.83,476,405.8Zm-16-5.68s-32.65-1.06-47.65-5.83c0,0-36.23,18.59-51.11,19.89,0,0-50.36,31.29-63.06,16.82l-4-5.06s16-7.12,18.11-10.65c0,0,1.95-6.48,0-10l38.2-21.19.27-.15,45.87-15.12-30.69,4.57a118.47,118.47,0,0,1-16.61,8.61c-19.57,8.66-44.62,16.65-44.62,16.65-11.12,9.7-45.89,22.23-45.89,22.23-17.82,3.35-21.35-9-21.35-9s17.29-6.53,19.41-9.7c0,0,3.41-7.18,1.1-13.1h0l32.26-20.25a53,53,0,0,0,5.7-2.12s32.59-19.41,44.82-24.58c0,0,48.48-12.24,53.65-15.06l44.06-6.59c11.65-6.71,27.35-1.41,27.35-1.41l77.3,22.59s79.06,31.05,145.41,17.64L1024,278.18V384s-230.29,40.29-293.82,63.59c0,0-30.36,10.69-71.29,12.3l-1.42.05s-14.47,15.18-53.65,5.65c0,0-21.88,1.06-120-35.65,0,0-11.53-18.82-10.47-22.82l.49-1.49c-1.68-.47-4.94-1.41-7.93-2.51C463.35,402.18,461,401.11,460,400.12Z"/><path class="cls-3" d="M566.24,436.62,476,405.8C479.57,406.83,555.72,429,566.24,436.62Z"/><path class="cls-2" d="M483.82,429.94s-6.94-.23-10.47-2.94c0,0-9.06-18.35-7.64-22.76l.2-1.12c3,1.1,6.25,2,7.93,2.51l-.49,1.49C472.29,411.12,483.82,429.94,483.82,429.94Z"/><path class="cls-2" d="M431.82,425.24s-14.11,7.05-70.58-11.06c14.88-1.3,51.11-19.89,51.11-19.89,15,4.77,47.65,5.83,47.65,5.83,1,1,3.35,2.06,5.91,3l-.2,1.12c-1.42,4.41,7.64,22.76,7.64,22.76S455.12,430.65,431.82,425.24Z"/><path class="cls-2" d="M269.24,374.41c-14.36,12.71-50.36,23.3-50.36,23.3C206.41,399.59,200.06,385,200.06,385s21.7-4.86,26.29-11.55c0,0,1.9-4.12,1.39-11.84h0L257,347.35s66.59-25.17,74.35-26.11l61.06-9,46.06,8.29-44.06,6.59c-5.17,2.82-53.65,15.06-53.65,15.06-12.23,5.17-44.82,24.58-44.82,24.58a53,53,0,0,1-5.7,2.12C281.57,371.66,269.24,374.41,269.24,374.41Z"/><path class="cls-2" d="M392.41,312.24l-61.06,9c-7.76.94-74.35,26.11-74.35,26.11-9.65-1.41-8.71-12-8.71-12s22.53-3.35,27-6.17c0,0,3.35-2.67,2-5.75l2.8-.55,53.88-7.53C344.06,313.94,392.41,312.24,392.41,312.24Z"/><path class="cls-1" d="M312.29,405.34c1.95,3.47,0,10,0,10-2.11,3.53-18.11,10.65-18.11,10.65a8.55,8.55,0,0,1-4.47-4.94,7.6,7.6,0,0,1-.32-2.95Z"/><path class="cls-1" d="M277.26,323.43c1.33,3.08-2,5.75-2,5.75-4.42,2.82-27,6.17-27,6.17a5.62,5.62,0,0,1-1.2-2.73,5.78,5.78,0,0,1,.53-3.36Z"/><path class="cls-1" d="M258,389.14c2.31,5.92-1.1,13.1-1.1,13.1-2.12,3.17-19.41,9.7-19.41,9.7a8.39,8.39,0,0,1-3.53-5.18,7.59,7.59,0,0,1,0-2.51Z"/><path class="cls-1" d="M227.74,361.61c.51,7.72-1.39,11.84-1.39,11.84-4.59,6.69-26.29,11.55-26.29,11.55a7.48,7.48,0,0,1-4-3.53,7.33,7.33,0,0,1-.74-4.07Z"/><path class="cls-4" d="M472.53,344.76c-34.59,16.24-73.41,23.3-73.41,23.3l-2.49.82L350.76,384l-.27.15-38.2,21.19-22.9,12.71a7.6,7.6,0,0,0,.32,2.95,8.55,8.55,0,0,0,4.47,4.94l4,5.06c12.7,14.47,63.06-16.82,63.06-16.82,56.47,18.11,70.58,11.06,70.58,11.06,23.3,5.41,41.53,1.76,41.53,1.76,3.53,2.71,10.47,2.94,10.47,2.94,98.12,36.71,120,35.65,120,35.65,39.18,9.53,53.65-5.65,53.65-5.65l1.42-.05c40.93-1.61,71.29-12.3,71.29-12.3C793.71,424.29,1024,384,1024,384V278.18L688.53,359.35c-66.35,13.41-145.41-17.64-145.41-17.64l-77.3-22.59s-15.7-5.3-27.35,1.41l-46.06-8.29s-48.35,1.7-58.47,3.11l-53.88,7.53-2.8.55-29.64,5.83a5.78,5.78,0,0,0-.53,3.36,5.62,5.62,0,0,0,1.2,2.73s-.94,10.59,8.71,12c0,0,66.59-25.17,74.35-26.11l61.06-9"/><path class="cls-4" d="M475,405.94l-1.16-.31c-1.68-.47-4.94-1.41-7.93-2.51-2.56-.94-4.92-2-5.91-3,0,0-32.65-1.06-47.65-5.83,0,0-36.23,18.59-51.11,19.89"/><path class="cls-4" d="M227.74,361.61,195.32,377.4a7.33,7.33,0,0,0,.74,4.07,7.48,7.48,0,0,0,4,3.53s6.35,14.59,18.82,12.71c0,0,36-10.59,50.36-23.3,0,0,12.33-2.75,21-5.53a53,53,0,0,0,5.7-2.12s32.59-19.41,44.82-24.58c0,0,48.48-12.24,53.65-15.06l44.06-6.59"/><path class="cls-4" d="M257,347.35,227.74,361.6"/><path class="cls-4" d="M258,389.14l-24.07,15.11a7.59,7.59,0,0,0,0,2.51,8.39,8.39,0,0,0,3.53,5.18s3.53,12.35,21.35,9c0,0,34.77-12.53,45.89-22.23,0,0,25.05-8,44.62-16.65a118.47,118.47,0,0,0,16.61-8.61l30.69-4.57"/><path class="cls-4" d="M290.24,368.88,258,389.13"/><path class="cls-4" d="M269.24,374.41a14.31,14.31,0,0,0-1.89-9.06"/><path class="cls-4" d="M200.06,385s21.7-4.86,26.29-11.55c0,0,1.9-4.12,1.39-11.84h0"/><path class="cls-4" d="M237.47,411.94s17.29-6.53,19.41-9.7c0,0,3.41-7.18,1.1-13.1h0"/><path class="cls-4" d="M294.18,425.94s16-7.12,18.11-10.65c0,0,1.95-6.48,0-10"/><path class="cls-4" d="M248.29,335.35s22.53-3.35,27-6.17c0,0,3.35-2.67,2-5.75"/><path class="cls-4" d="M431.82,425.24s-.17-21.05-4-24.7"/><path class="cls-4" d="M473.35,427s-9.06-18.35-7.64-22.76"/><path class="cls-4" d="M483.82,429.94s-11.53-18.82-10.47-22.82"/><path class="cls-4" d="M412.35,394.29s-2.64-8.11-5.94-11.88"/><path class="cls-4" d="M460,400.12s19.82-9,21-13.71"/><path class="cls-4" d="M304.71,398.71s-1.59-7.56-2.77-9.58"/><path class="cls-4" d="M365.94,373.45s-1.88-8.21-3.53-9.16"/><path class="cls-4" d="M358.79,415.64s-2.73-6.88-4.85-7.05"/><path class="cls-4" d="M658.89,459.89s15.87-35.07,12.7-46.54"/><path class="cls-4" d="M476,405.8c3.56,1,79.71,23.21,90.23,30.82Z"/><path class="cls-4" d="M476,405.8l-.07,0h-.06"/><path d="M810.2,332.13c1.95,2.33-1.06,7.79-1.85,9.22-5.22,9.49-16.6,12.64-24.12,14.55l-3-12.31-36.59,6.23L747.27,361a44.4,44.4,0,0,1-20.27-.2c-6.67-1.71-9.67-4.34-17.79-6.41a59.21,59.21,0,0,0-15.27-1.82q-6.59-.55-12.71-.89c-2.81-4.05-9.38-4.71-9.38-4.71q13.32-.46,27.55-1.55c13.82-1.06,28.27-2.6,43.31-4.71q21.1-2.94,43.73-7.46,7.57-1.51,15.3-3.24C802.52,329.8,808.34,329.9,810.2,332.13Z"/><polygon class="cls-5" points="784.23 355.9 802.18 429.71 765.47 438.41 747.27 360.96 744.65 349.82 781.24 343.59 784.23 355.9"/><path class="cls-6" d="M749.11,331.88a7.07,7.07,0,0,1-2.6-.35,7.68,7.68,0,0,0-4.2.13,8.62,8.62,0,0,0-.87.11,12.79,12.79,0,0,1,.48-3.94,3.55,3.55,0,0,1,2.73-2.77l1-.17,31.27-5.24,3.12-.52s4.77-3.12,6.38,14.08q-22.62,4.55-43.73,7.46l-.06-.45a40.05,40.05,0,0,1-1.2-8.26c.28-.11.57-.21.86-.3a6.91,6.91,0,0,1,2.34.21A7.23,7.23,0,0,0,749.11,331.88Zm5.47-3.12-1.82.28h0a7.09,7.09,0,0,1-3.63,2.83A6.88,6.88,0,0,0,754.58,328.76Z"/><path class="cls-7" d="M720.82,332.14v2.41l-24.53,1.93-6.24.49c-.19-.69-.34-1.32-.47-1.88l7.78-.74,2.09-.19Z"/><path class="cls-7" d="M720.82,328.15v2.41l-21.6,1.7h0l-2,.15-8.07.64a12.5,12.5,0,0,1-.23-1.9l1.58-.15Z"/><polygon class="cls-7" points="699.22 332.27 699.45 334.16 697.36 334.35 697.22 332.42 699.22 332.27"/><path class="cls-7" d="M690.05,337l-1.91.15c-.18-.68-.33-1.29-.46-1.85l1.9-.18C689.71,335.65,689.86,336.28,690.05,337Z"/><path class="cls-7" d="M689.15,333.06l-1.89.15a10.81,10.81,0,0,1-.21-1.87l1.57-.15.3,0A12.5,12.5,0,0,0,689.15,333.06Z"/><path class="cls-7" d="M688.14,337.12l-7.58.6h0a14.07,14.07,0,0,0,.26-1.81h.06l3.25-.31,2.45-.23,1.11-.1C687.81,335.83,688,336.44,688.14,337.12Z"/><path class="cls-7" d="M684,333.47l-3.08.24c0-.57,0-1.17-.06-1.79h0l6.18-.58a10.81,10.81,0,0,0,.21,1.87l-.82.06Z"/><polygon class="cls-7" points="686.44 333.27 686.57 335.37 684.12 335.6 684 333.47 686.44 333.27"/><path class="cls-8" d="M680.86,331.92c0,.62.06,1.22.06,1.79a21.73,21.73,0,0,1-.11,2.2,14.07,14.07,0,0,1-.26,1.81c-1.75,9.1-9.36,9.23-9.36,9.23h-.29l-14.36.33h0v-1.82l14.32-.71a7.57,7.57,0,0,0,7.21-4.86c3.1-7.39-1.48-20.58-1.48-20.58l1.71.25c.28.86.53,1.7.76,2.51A46.24,46.24,0,0,1,680.86,331.92Z"/><path class="cls-9" d="M671.85,346.93s6.57.66,9.38,4.71c-17.84-1-32.58-.77-43.52-.29-19.34.85-43.59,3.23-63.8.09-6.56-1-19.67-3.1-19.67-3.1-.37,0-.74,0-1.1,0-15.66,0-22.9,23.37-22.9,23.37h-12l2.77-10.55L502.44,357l-2.61,10.44s-11.3-.53-9.89-5.47c0,0,4.54-18.68,11.95-34.27.18-.38.36-.76.55-1.14,0,0,2.2.85,6.49,2.21a337.07,337.07,0,0,0,35.9,9A525.19,525.19,0,0,0,628.7,347c8.86.3,18.14.42,27.83.31h0q7-.07,14.36-.33h.29Z"/><path class="cls-10" d="M620.53,338.52l3.21.46,5.91.83-.33,2.49-.18,1.35L628.7,347a525.19,525.19,0,0,1-83.87-9.28l.8-3.57.08-.38.38-1.68.08-.37.79-3.55Z"/><polygon class="cls-5" points="521.06 361.12 518.29 371.67 500.89 437.94 483.82 431.47 499.83 367.41 502.44 356.97 521.06 361.12"/><path class="cls-8" d="M521.2,290.16s-.84,1.52-2.13,4.48c-.47,1.08-1,2.36-1.58,3.82-.46,1.16-1,2.43-1.44,3.83-.4,1.1-.81,2.27-1.22,3.52a173.92,173.92,0,0,0-5,18.64q-.45,2.08-.87,4.29c-4.29-1.36-6.49-2.21-6.49-2.21s.19-1,.57-2.78a166.85,166.85,0,0,1,4.8-17.22c.62-1.84,1.31-3.74,2.05-5.66q.92-2.39,2-4.78c.36-.83.73-1.66,1.12-2.49.81-1.73,1.67-3.45,2.58-5.13C515.53,288.47,519.05,287.26,521.2,290.16Z"/><path class="cls-9" d="M496.05,322l7,1.8c-.38,1.76-.57,2.78-.57,2.78-.19.38-.37.76-.55,1.14l-.11-.05-12.08-3-12.12-3,5.92-3L496,321.94h0Z"/><path class="cls-10" d="M300.81,410.1a12.13,12.13,0,0,0-5.47,1.27c-3,1.32-5.23,3.07-4.87,3.9s3.12.45,6.17-.87,5.23-3.06,4.87-3.9A.83.83,0,0,0,300.81,410.1ZM367,377,489.7,324.64l12.08,3L297.9,420.86c-18.68,1.13-9.49-10.35-9.49-10.35Z"/><polygon class="cls-10" points="489.7 324.64 366.96 377 477.58 321.65 489.7 324.64"/><polygon class="cls-9" points="483.5 318.69 477.58 321.65 460.84 317.53 468.7 314.86 483.5 318.69"/><polygon class="cls-9" points="468.7 314.86 460.84 317.53 439.03 312.16 436.42 311.52 447.24 309.3 468.7 314.86"/><polygon class="cls-9" points="447.24 309.3 436.42 311.52 421.61 307.86 421.6 307.86 419.21 307.27 416.55 306.62 413.11 305.77 427.06 304.07 432.31 305.43 441.75 307.88 447.24 309.3"/><path class="cls-10" d="M312.08,368.09l-74.5,32.2c-18.68,1.13-9.49-10.35-9.49-10.35l157.28-67.48,2.51-1,48.54-9.93,2.61.64-.92,1.45Zm-70.58,24c.45-.47.65-.89.52-1.19-.36-.83-3.13-.44-6.18.87s-5.23,3.06-4.86,3.9,3.12.44,6.17-.87A14.16,14.16,0,0,0,241.5,392.07Z"/><polygon class="cls-10" points="421.61 307.86 436.42 311.52 387.88 321.45 408.47 313.15 421.6 307.86 421.61 307.86"/><path class="cls-9" d="M427.06,304.07l-13.95,1.7-8.19-2-3.71-.91-.55-.14h0l-12.33-3h0l-4.92-1.21c-9.1-5.62,3.41-4.81,3.41-4.81l15.52,4,8.5,2.2h0l9.37,2.43h0l6.57,1.71Z"/><path class="cls-10" d="M343.78,330.47,203.86,367.94c-18.63-1.76-7.78-11.68-7.78-11.68L342.3,318.79l19.57-5,15.83-3.68,35.41-4.32,3.44.85,2.66.65,2.39.59-13.13,5.29Zm-133.41,27.3c-1-.47-3.17-.58-5.68-.2-3.29.5-5.84,1.63-5.71,2.53s2.91,1.22,6.2.73,5.83-1.62,5.7-2.52C210.85,358.1,210.67,357.92,210.37,357.77Z"/><polygon class="cls-10" points="413.11 305.77 377.7 310.09 404.92 303.76 413.11 305.77"/><path class="cls-10" d="M404.92,303.76l-27.22,6.33-114.92,14a.49.49,0,0,0,.09-.36c-.13-.82-2.49-1.16-5.43-.83l-.27-2.17,144-17.89Z"/><path class="cls-10" d="M377.7,310.09l-15.83,3.68-19.57,5v0L252,332.07c-15.23-4-4.53-10.13-4.53-10.13l9.67-1.2.27,2.17-.76.1c-3.29.5-5.84,1.63-5.71,2.53s2.91,1.22,6.2.73c2.86-.44,5.16-1.35,5.61-2.17Z"/><polygon class="cls-11" points="784.23 355.9 781.24 343.59 744.65 349.82 747.27 360.96 765.47 438.41 802.18 429.71 784.23 355.9"/><polygon class="cls-11" points="499.83 367.41 483.82 431.47 500.89 437.94 518.29 371.67 521.06 361.12 502.44 356.97 499.83 367.41"/><path class="cls-11" d="M671.19,347l.66,0q13.32-.46,27.55-1.55c13.82-1.06,28.27-2.6,43.31-4.71q21.1-2.94,43.73-7.46,7.57-1.51,15.3-3.24c.78-.17,6.6-.07,8.46,2.16s-1.06,7.79-1.85,9.22c-5.22,9.49-16.6,12.64-24.12,14.55"/><path class="cls-11" d="M656.54,347.29q7-.07,14.36-.33"/><path class="cls-11" d="M499.83,367.41s-11.3-.53-9.89-5.47c0,0,4.54-18.68,11.95-34.27.18-.38.36-.76.55-1.14,0,0,2.2.85,6.49,2.21a337.07,337.07,0,0,0,35.9,9A525.19,525.19,0,0,0,628.7,347c8.86.3,18.14.42,27.83.31"/><path class="cls-11" d="M747.27,361a44.4,44.4,0,0,1-20.27-.2c-6.67-1.71-9.67-4.34-17.79-6.41a59.21,59.21,0,0,0-15.27-1.82q-6.59-.55-12.71-.89c-17.84-1-32.58-.77-43.52-.29-19.34.85-43.59,3.23-63.8.09-6.56-1-19.67-3.1-19.67-3.1-.37,0-.74,0-1.1,0-15.66,0-22.9,23.37-22.9,23.37h-12"/><path class="cls-11" d="M502.44,326.53s.19-1,.57-2.78a166.85,166.85,0,0,1,4.8-17.22c.62-1.84,1.31-3.74,2.05-5.66q.92-2.39,2-4.78c.36-.83.73-1.66,1.12-2.49.81-1.73,1.67-3.45,2.58-5.13,0,0,3.52-1.21,5.67,1.69,0,0-.84,1.52-2.13,4.48-.47,1.08-1,2.36-1.58,3.82-.46,1.16-1,2.43-1.44,3.83-.4,1.1-.81,2.27-1.22,3.52a173.92,173.92,0,0,0-5,18.64q-.45,2.08-.87,4.29"/><polyline class="cls-11" points="544.83 337.7 545.63 334.13 545.71 333.75 546.09 332.07 546.17 331.7 546.96 328.15 620.53 338.52 623.74 338.98 629.65 339.81 629.32 342.3 629.14 343.65 628.7 346.98"/><path class="cls-12" d="M546.09,332.07s-1.48,0-3.83-.15c-2.1-.11-4.89-.28-7.94-.56-9-.82-20.19-2.54-22.41-6.11a.45.45,0,0,1-.07-.37c.16-.51,1.57-1.17,9.58.42,3.56.7,8.42,1.85,15.05,3.66,2.87.78,6.08,1.68,9.66,2.73"/><path class="cls-12" d="M545.69,334.14h-.06c-.61-.12-5.79-1.12-11.31-2.77-5.15-1.52-10.59-3.61-12.9-6.06a4.4,4.4,0,0,1-1-1.58s-1.52-3.51,16.06,5.24c1.74.86,3.66,1.84,5.79,3l3.45,1.83.07,0"/><polyline class="cls-13" points="620.53 338.53 620.53 338.52 621.47 331.35 624.53 331.92 623.74 338.98"/><polyline class="cls-13" points="517.49 298.46 621.47 331.35 519.07 294.64"/><polyline class="cls-13" points="514.83 305.81 621.47 331.35 516.05 302.29"/><path class="cls-14" d="M645.44,339.1h.24l1.15,0H647l1.16,0,1.14,0h.35l1.16.05h0l1.15,0,1.08,0,1.39,0,1.2,0,1,0h.14l1.12,0,1.39,0,1.24,0,1.16,0,1.19,0,1.12,0,1,0,1.07,0,1.07,0,1.17,0,1.25.05,1.15,0,1.07,0,1.29,0,1.14,0,1.07,0,1.16,0c-4.18-7.1-1.72-19.57-1.72-19.57l-1.27,0-1.1,0h0l-1.11,0h-.07l-1.11,0h-.09l-1.11,0h-.21l-1.28-.05-1.12,0-1.1,0-1.24-.05-1.06,0-1.09,0h0l-1.08,0h0l-1.12,0h-.1l-1.22,0-1.11,0H657l-1,0h-.08l-1,0-1.1,0h-.18l-1.21,0-1.11,0-1.26-.05-6.39-.22-1.1,0-.52,0-1.1,0h-.33l-1.11,0H639l-1.1,0-.65,0-1.61-.05-1.11,0h-.34l-1.09,0-1.43-.05a.23.23,0,0,1,0,.07c-.18,1-2.26,12.71,1.74,19.49h0l1.16,0h.23l1.45,0,1.58.06,1.14,0,.64,0,1.12,0,1.95.07,1.16,0h.48l1.15,0"/><path class="cls-14" d="M632.85,319.19v0c-.13.68-2.32,12.59,1.7,19.49l0,.05"/><path class="cls-14" d="M634.17,319.13a.23.23,0,0,1,0,.07.2.2,0,0,1,0,.07c-.25,1.37-2.17,12.76,1.76,19.43"/><path class="cls-14" d="M635.62,319.13a1.13,1.13,0,0,0,0,.12.15.15,0,0,0,0,.07c-.29,1.59-2.13,12.79,1.75,19.38"/><path class="cls-14" d="M637.22,319.26v0s0,0,0,.07c-.23,1.24-2.21,12.76,1.74,19.46"/><path class="cls-14" d="M639,319.28a.66.66,0,0,0,0,.09.13.13,0,0,1,0,.06c-.26,1.41-2.17,12.77,1.75,19.42"/><path class="cls-14" d="M640.62,319.24l0,.18a.64.64,0,0,0,0,.07c-.31,1.77-2.06,12.81,1.77,19.32"/><path class="cls-14" d="M642.06,319.24a2.32,2.32,0,0,0,0,.23.25.25,0,0,1,0,.07c-.33,1.95-2,13,1.81,19.5"/><path class="cls-14" d="M643.7,319.24l-.06.29a.17.17,0,0,1,0,.07c-.35,2.12-2,13.1,1.81,19.49h0"/><path class="cls-14" d="M644.91,319.7s-2.26,12.34,1.92,19.44h0"/><path class="cls-14" d="M646.27,319.7s-2.16,11.88,1.67,19"/><path class="cls-14" d="M647.48,319.7v0c-.11.68-2.08,12.59,1.87,19.5a.56.56,0,0,0,0,.08l0,.06"/><path class="cls-14" d="M648.49,323.59c-.35,4.24-.36,11.09,2.36,15.7"/><path class="cls-14" d="M649,319.77h0c0,.11-.2,1.1-.36,2.63"/><path class="cls-14" d="M651.35,338c.21.46.44.9.69,1.33"/><path class="cls-14" d="M650,319.7a.18.18,0,0,1,0,.05s0,0,0,.07a48.32,48.32,0,0,0-.48,9.65"/><path class="cls-14" d="M651.28,334.28a17.3,17.3,0,0,0,1.88,5"/><path class="cls-14" d="M651.16,319.83v0a44.13,44.13,0,0,0,0,13.84"/><path class="cls-14" d="M652.44,319.57s0,.09,0,.27l0,.06c-.33,2-1.89,13,1.89,19.47"/><path class="cls-14" d="M653.61,319.86v0a.15.15,0,0,0,0,.07c-.19,1.13-1.94,12.67,2,19.42"/><path class="cls-14" d="M654.91,319.8a1.13,1.13,0,0,0,0,.12s0,0,0,.07c-.25,1.58-1.88,12.92,2,19.51"/><path class="cls-14" d="M655.43,324.85c-.25,4.26-.06,10.41,2.44,14.65"/><path class="cls-14" d="M656,320a.23.23,0,0,1,0,.07c-.05.33-.3,1.81-.46,3.9"/><path class="cls-14" d="M657,319.86s0,.05,0,.14,0,0,0,.06c-.24,1.63-1.72,12.87,2.15,19.44"/><path class="cls-14" d="M658.37,319.86l0,.18a.2.2,0,0,1,0,.07c-.25,1.8-1.64,12.95,2.19,19.46"/><path class="cls-14" d="M659.56,320.08h0a.35.35,0,0,0,0,.06c-.14,1-1.76,12.72,2.24,19.52"/><path class="cls-14" d="M662.25,338.28a8,8,0,0,0,.35.72"/><path class="cls-14" d="M660.35,324.91c-.17,3.84,0,9.19,1.87,13.31"/><path class="cls-14" d="M660.59,321.66c-.06.54-.12,1.2-.17,1.95"/><path class="cls-14" d="M660.8,320s0,.06,0,.17a.64.64,0,0,0,0,.07c0,.26-.1.72-.16,1.34"/><path class="cls-14" d="M662.52,335.92a16.48,16.48,0,0,0,1.57,3.75"/><path class="cls-14" d="M662.12,334.29q.07.39.18.78"/><path class="cls-14" d="M661.49,329.3c0,.53.07,1.08.13,1.62"/><path class="cls-14" d="M661.66,322.07c0,.6-.11,1.32-.16,2.12"/><path class="cls-14" d="M661.9,320.1a.42.42,0,0,1,0,.07s0,0,0,.07c0,.26-.13.9-.22,1.82"/><path class="cls-14" d="M663,320.1s0,0,0,.11a.13.13,0,0,1,0,.06c-.2,1.5-1.63,12.86,2.27,19.48"/><path class="cls-14" d="M663.59,327.74c.06,3.91.65,8.58,2.67,12"/><path class="cls-14" d="M664,320.24a.42.42,0,0,1,0,.07,46.88,46.88,0,0,0-.43,5.57"/><path class="cls-14" d="M664.81,330.42a22.07,22.07,0,0,0,2.52,9.33"/><path class="cls-14" d="M665.21,320.29a.28.28,0,0,1,0,.06,47.48,47.48,0,0,0-.42,9.57"/><path class="cls-14" d="M666.39,320.24a.45.45,0,0,1,0,.08.15.15,0,0,0,0,.07c-.23,1.42-1.88,12.81,2,19.46"/><path class="cls-14" d="M667.51,320.34a0,0,0,0,1,0,0,.2.2,0,0,1,0,.07c-.18,1.13-1.9,12.67,2.07,19.42"/><path class="cls-14" d="M668.79,320.38v0a.2.2,0,0,1,0,.07c-.17,1.08-1.6,10.71,1.11,17.5.09.23.18.46.29.69s.21.45.33.67"/><path class="cls-14" d="M669.53,330.39A21.64,21.64,0,0,0,672,340"/><path class="cls-14" d="M670.12,320.34s0,0,0,.11,0,0,0,.07a48.35,48.35,0,0,0-.61,8"/><path class="cls-14" d="M671.32,320.38a1.13,1.13,0,0,0,0,.12.13.13,0,0,0,0,.06c-.28,1.55-2.14,12.79,1.75,19.39"/><path class="cls-14" d="M673.39,338.08c.09.23.18.46.29.68"/><path class="cls-14" d="M672,324.5a37.43,37.43,0,0,0,.51,10.64,15,15,0,0,0,.37,1.47"/><path class="cls-14" d="M672.52,320.27s0,.09,0,.27a.64.64,0,0,0,0,.07c-.1.61-.31,2-.45,3.84"/><path class="cls-14" d="M673.25,332.89a18.89,18.89,0,0,0,2.21,7.14"/><path class="cls-14" d="M673.63,320.34a2.26,2.26,0,0,0,0,.24s0,0,0,.06a46.2,46.2,0,0,0-.38,11.81"/><path class="cls-14" d="M636.09,319.33h-.5l-1.11,0h-.34l-1.1,0h-.2l-1.23,0-1.1,0a46.21,46.21,0,0,0-.67,10.06,21,21,0,0,0,2.4,9.51l1.19,0,9.26.32,1.64.06,1.39.05,1.36.05,1.16,0,1.15,0h.34l6,.21,4.91.17,14.79.52,0-.07a19,19,0,0,1-2.17-7.26c0-.15,0-.29,0-.44a45.5,45.5,0,0,1,.54-11.8h-.16l-1.1,0h0l-1.1,0h-.07l-1.11,0h-.09l-1.11,0h-.21l-1.11,0h-.17l-1.11,0h0l-1.1,0h-.07l-1.17,0-1.06,0h-.05l-1,0h0l-1.08,0h0l-1.1,0h-.11l-1.11,0h-.11l-1.11,0H657l-1,0h-.07l-1,0h0l-1.07,0h-.18l-1.1,0h-.12l-1.1,0h-.13l-1.13,0-1.07,0h0l-1.45,0-1.2,0-1.36-.05-1.28,0-1.1,0-.53,0-1.09,0h-.34l-1.1,0-.52,0-1.11,0-.64,0-1.11,0"/><path class="cls-14" d="M631.73,319.22s-2.43,12.33,1.65,19.45l0,.08,0,0"/><path class="cls-14" d="M633.06,319.16a.23.23,0,0,1,0,.07c-.18,1-2.25,12.7,1.73,19.49h0"/><path class="cls-14" d="M634.5,319.16a.18.18,0,0,1,0,0s0,0,0,.07c-.24,1.28-2.2,12.75,1.74,19.45"/><path class="cls-14" d="M636.1,319.3v0h0c-.15.8-2.3,12.62,1.71,19.49a.08.08,0,0,0,0,0"/><path class="cls-14" d="M637.86,319.32h0l0,.07c-.2,1.09-2.24,12.73,1.74,19.48"/><path class="cls-14" d="M639.5,319.28a.65.65,0,0,0,0,.1s0,0,0,.07c-.27,1.49-2.15,12.78,1.76,19.4"/><path class="cls-14" d="M641,319.27l0,.16s0,0,0,.07c-.3,1.72-2.06,12.95,1.74,19.5l0,.07"/><path class="cls-14" d="M642.58,319.28s0,.07,0,.21,0,0,0,.07c-.32,1.89-2,13,1.76,19.49a.3.3,0,0,0,0,.08"/><path class="cls-14" d="M643.79,319.73s-2.24,12.26,1.89,19.37l0,.08"/><path class="cls-14" d="M645.15,319.73S642.92,332,647,339.15a.3.3,0,0,0,0,.08"/><path class="cls-14" d="M646.37,319.73s-2.11,11.82,1.57,19c.08.16.17.31.26.46a.2.2,0,0,0,0,.08c0,.05,0,.09.07.13"/><path class="cls-14" d="M647.84,319.8s-2.27,12.33,1.85,19.44a.3.3,0,0,0,0,.08"/><path class="cls-14" d="M648.93,319.73a.18.18,0,0,1,0,0c0,.23-.19,1.2-.33,2.63,0,.36-.07.76-.1,1.18-.31,4.25-.28,11.1,2.41,15.7l0,0"/><path class="cls-14" d="M650.05,319.86a46.49,46.49,0,0,0-.51,9.61,24.43,24.43,0,0,0,1.81,8.49,11.93,11.93,0,0,0,.69,1.33,0,0,0,0,0,0,0"/><path class="cls-14" d="M651.32,319.61l0,.19a.15.15,0,0,0,0,.07,44.44,44.44,0,0,0-.11,13.83c0,.2.07.39.11.58a16.88,16.88,0,0,0,1.85,5.09l0,0"/><path class="cls-14" d="M652.5,319.89v0c-.1.6-2.07,12.58,2,19.49"/><path class="cls-14" d="M653.8,319.84a.16.16,0,0,1,0,0,.2.2,0,0,1,0,.07c-.2,1.25-2,12.79,1.94,19.51l0,.07"/><path class="cls-14" d="M654.85,320s-2.27,12.39,1.89,19.5l0,0"/><path class="cls-14" d="M655.89,319.89a.42.42,0,0,1,0,.07s0,0,0,.07c-.07.44-.27,1.9-.39,3.9,0,.3,0,.6-.05.92-.19,4.29.08,10.45,2.57,14.68"/><path class="cls-14" d="M657.25,319.89s0,0,0,.11a.2.2,0,0,1,0,.07c-.22,1.56-1.71,12.92,2.17,19.52a0,0,0,0,1,0,0"/><path class="cls-14" d="M658.44,320.12s-1.94,12.4,2.19,19.51l0,.07"/><path class="cls-14" d="M659.68,320a.65.65,0,0,0,0,.1v.07c-.23,1.52-1.73,12.88,2.16,19.5"/><path class="cls-14" d="M660.79,320.13a.42.42,0,0,1,0,.07c0,.17-.09.64-.18,1.34a.49.49,0,0,1,0,.12c-.05.54-.11,1.2-.17,1.95,0,.41,0,.84-.07,1.3-.15,3.8,0,9.16,1.87,13.31l0,.06c.11.24.23.49.35.72s.22.43.34.63l0,.07"/><path class="cls-14" d="M661.88,320.13v0a.2.2,0,0,1,0,.07c0,.24-.12.89-.2,1.82,0,0,0,0,0,0-.06.6-.12,1.32-.16,2.12a48,48,0,0,0,0,5.11c0,.53.07,1.08.13,1.62a32.62,32.62,0,0,0,.5,3.37q.07.39.18.78c.07.29.14.57.22.85a16.5,16.5,0,0,0,1.58,3.83l0,0"/><path class="cls-14" d="M662.92,320.27s-2,12.41,2.22,19.51"/><path class="cls-14" d="M664.09,320.33a45.85,45.85,0,0,0-.49,5.55c0,.59,0,1.21,0,1.86,0,3.9.58,8.59,2.62,12"/><path class="cls-14" d="M665.28,320.27v0a.13.13,0,0,0,0,.06,47.54,47.54,0,0,0-.49,9.57l0,.5a22,22,0,0,0,2.47,9.44v0"/><path class="cls-14" d="M666.39,320.37v0c-.09.6-2,12.57,2.07,19.49"/><path class="cls-14" d="M667.67,320.41v0c-.11.69-2,12.61,2,19.51l0,0"/><path class="cls-14" d="M669,320.37v0a.2.2,0,0,1,0,.07c-.19,1.11-1.75,10.71.9,17.5l.29.69c.11.22.21.45.33.67s.22.41.33.61l0,0"/><path class="cls-14" d="M670.2,320.41a.18.18,0,0,1,0,0s0,0,0,.07a47.41,47.41,0,0,0-.7,8c0,.6,0,1.23,0,1.86a21.23,21.23,0,0,0,2.39,9.59"/><path class="cls-14" d="M671.4,320.31l0,.19a.15.15,0,0,0,0,.07c-.31,1.84-2,13,1.85,19.5"/><path class="cls-14" d="M672.52,320.37l0,.17s0,0,0,.07c-.09.54-.31,1.95-.47,3.84,0,0,0,0,0,.05a38.21,38.21,0,0,0,.51,10.64c.11.5.23,1,.37,1.47s.31,1,.5,1.47c.09.23.19.46.29.68a11.67,11.67,0,0,0,.65,1.27.08.08,0,0,0,0,0"/><path class="cls-14" d="M676.58,340.19V340l-1.71-19.41s-.3-3.4,1.72-3.36c0,0,3.08-.7,3.7,3.58,0,0,.48,1.46-1.22,1.24"/><polygon class="cls-14" points="624.53 331.92 629.79 331 629.79 329.2 624.53 331.92"/><path class="cls-14" d="M679.05,322.08c-.23-.81-.48-1.65-.76-2.51l-1.71-.25s4.58,13.19,1.48,20.58a7.57,7.57,0,0,1-7.21,4.86l-14.32.71v1.82h0L670.9,347h.29s7.61-.13,9.36-9.23a14.07,14.07,0,0,0,.26-1.81,21.73,21.73,0,0,0,.11-2.2c0-.57,0-1.17-.06-1.79A46.24,46.24,0,0,0,679.05,322.08Z"/><polyline class="cls-14" points="699.22 332.27 697.22 332.42 689.15 333.06 687.26 333.21 686.44 333.27 684 333.47 680.92 333.71"/><polyline class="cls-14" points="680.87 331.92 687.05 331.34 688.62 331.19 688.92 331.16 690.5 331.01 720.82 328.15 720.82 330.56 699.22 332.26"/><polyline class="cls-14" points="680.87 335.91 684.12 335.6 686.57 335.37 687.68 335.27 689.58 335.09 697.36 334.35 699.45 334.16 720.82 332.14 720.82 334.55 696.29 336.48 690.05 336.97 688.14 337.12 680.56 337.72"/><line class="cls-14" x1="697.22" y1="332.42" x2="697.36" y2="334.35"/><polyline class="cls-14" points="699.22 332.26 699.22 332.27 699.45 334.16"/><line class="cls-14" x1="686.44" y1="333.27" x2="686.57" y2="335.37"/><polyline class="cls-14" points="684 333.46 684 333.47 684.12 335.6"/><path class="cls-14" d="M742.65,340.22a40.05,40.05,0,0,1-1.2-8.26,1.28,1.28,0,0,1,0-.19,12.79,12.79,0,0,1,.48-3.94,3.55,3.55,0,0,1,2.73-2.77l1-.17,31.27-5.24,3.12-.52s4.77-3.12,6.38,14.08"/><polyline class="cls-14" points="747.29 329.88 752.76 329.04 754.58 328.76 779.59 324.94"/><path class="cls-12" d="M741.91,327.83s-7.91-3.17-11,1.73c0,0-1.46,8.13-13.36,9.91a35.38,35.38,0,0,1-7.11.28c-.55.11-11.68,2.41-13.81-1.71a3.3,3.3,0,0,1-.34-1.22"/><path class="cls-14" d="M749.13,331.88a7.09,7.09,0,0,0,3.63-2.83"/><path class="cls-14" d="M719.41,340.46c6-1.17,12.54-2.72,14.3-4.22,0,0,3.58-3.71,7.73-4.47a8.62,8.62,0,0,1,.87-.11,6.91,6.91,0,0,1,2.34.21,7.23,7.23,0,0,0,4.46,0"/><path class="cls-14" d="M709.11,342.2c1.5-.22,5-.76,9-1.5"/><path class="cls-14" d="M707.43,342.51l.91-.19.73-.11"/><path class="cls-14" d="M688.62,331.19s-1.57-2.17-1.57.15a10.81,10.81,0,0,0,.21,1.87c.09.57.23,1.26.42,2.06.13.56.28,1.17.46,1.85.3,1.16.68,2.5,1.14,4.06,0,0,.8,3.05,10,2.47a64.15,64.15,0,0,0,8.06-1.12"/><path class="cls-12" d="M690.48,330.85s-1.65-2.27-1.56.31a12.5,12.5,0,0,0,.23,1.9c.1.57.24,1.24.43,2,.13.56.28,1.19.47,1.88.29,1.11.65,2.4,1.09,3.87,0,0,1.14,4.32,16.19,1.69l.1,0,1.64-.3h0l1.09-.22s3.33-.47,7.6-1.24l.28,0,1.33-.24c6.44-1.19,14.23-2.9,16.16-4.57a18.61,18.61,0,0,1,5.88-3.93c.28-.11.57-.21.86-.3a7.68,7.68,0,0,1,4.2-.13,7.07,7.07,0,0,0,2.6.35h0a6.88,6.88,0,0,0,5.45-3.12l0-.06"/><path class="cls-12" d="M745.67,324.89s-.32-1.24.62-1.36l30.06-5.06s.77-.05.59,1.18"/><path class="cls-14" d="M629.32,342.3s16.92-3.05,23.31,0a46.7,46.7,0,0,0,23.39.55"/><path class="cls-14" d="M628.7,343.85s.15-.08.44-.2c1.26-.51,5.14-1.64,10.34.84,0,0,4.18,4,17,1"/><polyline class="cls-14" points="439.03 312.16 460.84 317.53 477.58 321.65 489.7 324.64"/><path class="cls-14" d="M503,323.75l-7-1.8h0l-12.53-3.25-14.8-3.83-21.46-5.56-5.49-1.42-9.44-2.45-5.25-1.36-.28-.07-6.57-1.71h0l-9.37-2.43h0l-8.5-2.2-15.52-4s-12.51-.81-3.41,4.81l4.92,1.21h0l12.33,3h0l.55.14,3.71.91,8.19,2,3.44.85,2.66.65,2.39.59"/><path class="cls-14" d="M501.78,327.62,297.9,420.86c-18.68,1.13-9.49-10.35-9.49-10.35L367,377,489.7,324.64Z"/><path class="cls-14" d="M421.6,307.86h0l14.81,3.66,2.61.64-.92,1.45-126,54.48-74.5,32.2c-18.68,1.13-9.49-10.35-9.49-10.35l157.28-67.48,2.51-1,20.59-8.3Z"/><path class="cls-14" d="M408.47,313.15l-64.69,17.32L203.86,367.94c-18.63-1.76-7.78-11.68-7.78-11.68L342.3,318.79l19.57-5,15.83-3.68,27.22-6.33"/><path class="cls-14" d="M401.21,302.85l-144,17.89-9.67,1.2S236.8,328,252,332.07l90.26-13.31"/><path class="cls-11" d="M257.44,322.91c2.94-.33,5.3,0,5.43.83a.49.49,0,0,1-.09.36c-.45.82-2.75,1.73-5.61,2.17-3.29.49-6.06.16-6.2-.73s2.42-2,5.71-2.53Z"/><path class="cls-11" d="M210.37,357.77c.3.15.48.33.51.54.13.9-2.42,2-5.7,2.52s-6.06.17-6.2-.73,2.42-2,5.71-2.53C207.2,357.19,209.41,357.3,210.37,357.77Z"/><path class="cls-11" d="M231,395.65c-.37-.84,1.81-2.58,4.86-3.9s5.82-1.7,6.18-.87c.13.3-.07.72-.52,1.19a14.16,14.16,0,0,1-4.35,2.71C234.1,396.09,231.34,396.48,231,395.65Z"/><path class="cls-11" d="M300.81,410.1a.83.83,0,0,1,.7.4c.36.84-1.82,2.58-4.87,3.9s-5.81,1.71-6.17.87,1.82-2.58,4.87-3.9A12.13,12.13,0,0,1,300.81,410.1Z"/><polyline class="cls-13" points="512.95 293.6 427.06 304.07 413.11 305.77 377.7 310.09 262.78 324.1 250.97 325.54"/><polyline class="cls-13" points="511.82 296.09 447.24 309.3 436.42 311.52 387.88 321.45 343.78 330.47 210.37 357.77 198.98 360.1"/><polyline class="cls-13" points="509.86 300.87 468.7 314.86 460.84 317.53 312.08 368.09 241.5 392.07 230.98 395.65"/><polyline class="cls-13" points="507.81 306.53 483.5 318.69 477.58 321.65 366.96 377 300.81 410.1 290.47 415.27"/><path class="cls-11" d="M671.85,346.93s6.57.66,9.38,4.71h0"/></g></svg>