<svg id="Camada_3" data-name="Camada 3" xmlns="http://www.w3.org/2000/svg" viewBox="0 0 1024 768"><defs><style>.cls-1{fill:#b78618;}.cls-2{fill:silver;}.cls-3{fill:#b2b2b2;}.cls-4{fill:none;stroke:#000;stroke-miterlimit:10;}</style></defs><path d="M437.72,709.87c11.08,8.61,12.78,22.76,6.68,30.33s-17.92,6-18.55,5.91l-237.9,0c-6.87-.07-9.38-2.38-10.38-3.7-4.73-6.26,1.1-21,15.91-36.34,2.4-10.29,4.62-21.35,6.52-33.12s3.24-22.87,4.19-33.35a141.25,141.25,0,0,0,.06-21h0s115.12-18.86,210.05-9.45a293.3,293.3,0,0,0,2.7,33c1.31,7.85,3.06,16.24,5.41,25.06A270.68,270.68,0,0,0,437.72,709.87Z"/><path d="M379.4,536a2.68,2.68,0,1,1-.18,0Z"/><path d="M333.28,536h.1a2.69,2.69,0,1,1-.1,0Z"/><path d="M270.29,536a2.73,2.73,0,0,1-.14,5.46h0a2.74,2.74,0,1,1,.08-5.47Z"/><path d="M224.83,536l.36,0a2.71,2.71,0,1,1-.36,0Z"/><path d="M218.07,484.51H218a1,1,0,1,1,.12,0Z"/><path d="M219.94,437.52h0a.94.94,0,1,1-.94.94A.94.94,0,0,1,220,437.52Z"/><path d="M272.82,490.29a.93.93,0,0,1-.89-.93.95.95,0,1,1,.94.94Z"/><path d="M271.89,443.46h0a.94.94,0,1,1-.94.94A.94.94,0,0,1,271.93,443.46Z"/><path d="M329.71,443.46a.94.94,0,1,1-.95.94.94.94,0,0,1,.95-.94Z"/><path d="M378.69,434.17a.94.94,0,1,1-1,.94.94.94,0,0,1,1-.94Z"/><path d="M382.83,482.63a.93.93,0,0,1-.88-.93.94.94,0,1,1,.94.94Z"/><path d="M331.62,491.24h0a.94.94,0,1,1,.94-.94A.95.95,0,0,1,331.59,491.24Z"/><path d="M383,358.8a5.88,5.88,0,1,1-2.44-.53A5.86,5.86,0,0,1,383,358.8Z"/><path class="cls-1" d="M425,260.33q6.56,2.6,13.18,5.54s14.11,32.59,8.94,117.83c0,0-1.88,69.23-22.59,92.76a47.89,47.89,0,0,1-5.16,3.17c-6.21,3.43-18.24,9.05-37.25,13.86l.48-7.47a6.71,6.71,0,0,0,3.76-1c4.23-2.71,2.06-9.67.88-29-1-16.26-.15-22.75-4.73-25.38a8.29,8.29,0,0,0-3.7-1l.84-29h12.82l-11.92-14.44q5.51,2.33,11,5L406,354.11s-6.64-4.94-19.06-10.73l20.25-80.06,2.59.3,1-8.62Q417.82,257.47,425,260.33Z"/><path class="cls-2" d="M406,89.76A4.77,4.77,0,1,0,401.19,85,4.78,4.78,0,0,0,406,89.76Zm2.38,158.07-3.36-.39-.63,5.41q-8.82-2.9-17.45-5.21V89.4s.2-24.82,22.08-24.17c0,0,15.31-2.26,16,21.59V260.33q-7.18-2.86-14.27-5.33l.8-6.79Z"/><path class="cls-1" d="M419.38,479.63h0s-7,73.88-5.07,129.52c-94.93-9.41-210,9.45-210,9.45h0c-3.36-53.73-29.59-129.91-29.59-129.91q23.79,4.8,45,7.76l4.24,32.24H208.2l9.16,13.75-7.93,13.82H399.78l-8.88-13.71,7.65-13.86H379.86l2.27-35.21C401.14,488.68,413.17,483.06,419.38,479.63Z"/><path d="M411.54,248.21l-.8,6.79q-3.21-1.11-6.4-2.15l.63-5.41,3.36.39Z"/><path d="M407.14,263.32l-4-.47,1.18-10q3.2,1,6.4,2.15l-1,8.62Z"/><path d="M406,80.23A4.77,4.77,0,1,1,401.19,85,4.77,4.77,0,0,1,406,80.23Z"/><path class="cls-1" d="M386.89,247.64q8.64,2.33,17.45,5.21l-1.18,10,4,.47-20.25,80.06a195.21,195.21,0,0,0-55.84-16.15L333,249.4h3.3V238.12q8.46.91,17.18,2.33A329.75,329.75,0,0,1,386.89,247.64Z"/><path class="cls-2" d="M380.56,386.26l-.48-.2.47-16A5.88,5.88,0,0,0,383,358.8l3.9-15.42c12.42,5.79,19.06,10.73,19.06,10.73L391.6,391.29Q386.07,388.58,380.56,386.26Z"/><polygon class="cls-3" points="390.9 542.56 399.78 556.27 209.43 556.27 217.36 542.45 225.19 542.46 270.15 542.49 333.38 542.53 379.22 542.56 390.9 542.57 390.9 542.56"/><path class="cls-2" d="M390.9,542.56H379.22v-1.13a2.73,2.73,0,0,0,.18-5.46l.46-7.27h18.69Z"/><path class="cls-3" d="M380.56,386.26l11.92,14.44H379.66l.42-14.64Z"/><path class="cls-2" d="M382.61,486a8.53,8.53,0,0,1-4.13-1.14c-4.88-2.89-3.42-9.92-4.58-27.38-1.13-16.94-3.43-24,.74-26.81a6.86,6.86,0,0,1,4.18-1,8.29,8.29,0,0,1,3.7,1c4.58,2.63,3.74,9.12,4.73,25.38,1.18,19.3,3.35,26.26-.88,29A6.71,6.71,0,0,1,382.61,486Zm.22-3.39h.06a.94.94,0,1,0-.94-.94A.93.93,0,0,0,382.83,482.63Zm-4.14-48.46h0a.94.94,0,1,0,.94.94A.94.94,0,0,0,378.66,434.17Z"/><path class="cls-2" d="M386.89,343.38,383,358.8A5.88,5.88,0,1,0,380.55,370l-.47,16a208.85,208.85,0,0,0-49.62-13.89l.18-17a5.89,5.89,0,1,0,0-11.77l.41-16.19A195.21,195.21,0,0,1,386.89,343.38Z"/><path class="cls-1" d="M382.61,486l-.48,7.47A297.1,297.1,0,0,1,332,501.37l-.23-6.11a6.73,6.73,0,0,0,3.78-.84c4.31-2.57,2.38-9.6,1.84-28.93-.45-16.28.6-22.74-3.88-25.52a8.46,8.46,0,0,0-3.75-1.19l.4-38.08h49.5l-.84,29a6.86,6.86,0,0,0-4.18,1c-4.17,2.83-1.87,9.87-.74,26.81,1.16,17.46-.3,24.49,4.58,27.38A8.53,8.53,0,0,0,382.61,486Z"/><path class="cls-1" d="M382.13,493.49l-2.27,35.21H333l-1-27.33A297.1,297.1,0,0,0,382.13,493.49Z"/><path class="cls-3" d="M380.08,386.06l-.42,14.64h-49.5l.3-28.53A208.85,208.85,0,0,1,380.08,386.06Z"/><path class="cls-2" d="M379.86,528.7,379.4,536h-.18a2.74,2.74,0,1,0,0,5.47v1.13l-45.84,0v-1.1a2.74,2.74,0,0,0,0-5.47h-.1L333,528.7Z"/><path class="cls-2" d="M333,233.89h-3.31v3.59c-7.46-.66-14.76-1-21.88-1.18V44.87S308,15.25,334.26,16c0,0,18.35-2.7,19.22,25.77V240.45q-8.72-1.42-17.18-2.33v-4.23ZM330.64,37a4.77,4.77,0,1,0-4.76-4.76A4.76,4.76,0,0,0,330.64,37Z"/><path class="cls-2" d="M331.62,491.24a.94.94,0,1,0-1-.94.94.94,0,0,0,1,.94Zm-1.91-47.78h0a.94.94,0,1,0,.94.94A.94.94,0,0,0,329.7,443.46Zm2.06,51.8a8.69,8.69,0,0,1-4.1-1.28c-4.79-3.05-3.09-10-3.67-27.52-.57-17-2.63-24.08,1.63-26.77a6.81,6.81,0,0,1,4.13-.91,8.46,8.46,0,0,1,3.75,1.19c4.48,2.78,3.43,9.24,3.88,25.52.54,19.33,2.47,26.36-1.84,28.93A6.73,6.73,0,0,1,331.77,495.26Z"/><path d="M336.3,238.12V249.4h-6.61V237.48C331.88,237.66,334.08,237.88,336.3,238.12Z"/><path d="M336.3,233.89v4.23c-2.22-.24-4.42-.46-6.61-.64v-3.59h6.61Z"/><path d="M330.64,343.42a5.89,5.89,0,1,1-5.88,5.89A5.89,5.89,0,0,1,330.64,343.42Z"/><path d="M330.64,27.47a4.77,4.77,0,1,1-4.76,4.77A4.76,4.76,0,0,1,330.64,27.47Z"/><path class="cls-2" d="M333.38,541.43v1.1l-63.23,0v-1.06a2.73,2.73,0,0,0,.14-5.46l.4-7.27H333l.27,7.26a2.74,2.74,0,0,0,.1,5.47Z"/><path class="cls-1" d="M332,501.37l1,27.33H270.69l1.49-27A451,451,0,0,0,332,501.37Z"/><path class="cls-1" d="M333,249.4l-1.95,77.83a224.81,224.81,0,0,0-67,1.12L249,250.12h3.31V239.93c5.77-.88,11.74-1.63,17.9-2.21a324.09,324.09,0,0,1,37.62-1.42c7.12.14,14.42.52,21.88,1.18V249.4Z"/><path class="cls-1" d="M331.77,495.26l.23,6.11a451,451,0,0,1-59.82.37l.36-6.5a6.82,6.82,0,0,0,4.16-.69c4.38-2.44,2.66-9.53,2.69-28.86,0-16.29,1.27-22.72-3.13-25.63a8.53,8.53,0,0,0-4.56-1.34l-1.51-38h60l-.4,38.08a6.81,6.81,0,0,0-4.13.91c-4.26,2.69-2.2,9.81-1.63,26.77.58,17.49-1.12,24.47,3.67,27.52A8.69,8.69,0,0,0,331.77,495.26Z"/><path class="cls-2" d="M331.05,327.23l-.41,16.19a5.89,5.89,0,0,0,0,11.77l-.18,17a224.4,224.4,0,0,0-61.44-.6l-.65-16.39a5.88,5.88,0,0,0-.45-11.75,5.39,5.39,0,0,0-.91.11l-2.93-15.19A224.81,224.81,0,0,1,331.05,327.23Z"/><path class="cls-3" d="M330.46,372.17l-.3,28.53h-60L269,371.57A224.4,224.4,0,0,1,330.46,372.17Z"/><path class="cls-2" d="M271.89,443.46a.94.94,0,1,0,1,.94.94.94,0,0,0-1-.94Zm.93,46.83h.05a.94.94,0,1,0-.94-.94A.93.93,0,0,0,272.82,490.29Zm-1.12-51.57a8.53,8.53,0,0,1,4.56,1.34c4.4,2.91,3.16,9.34,3.13,25.63,0,19.33,1.69,26.42-2.69,28.86a6.82,6.82,0,0,1-4.16.69,8.46,8.46,0,0,1-3.7-1.36c-4.7-3.19-2.8-10.12-2.87-27.62-.07-17-1.91-24.15,2.42-26.7A6.5,6.5,0,0,1,271.7,438.72Z"/><path d="M274,349.08a5.88,5.88,0,1,1-7-5.54,5.39,5.39,0,0,1,.91-.11A5.88,5.88,0,0,1,274,349.08Z"/><path class="cls-1" d="M272.54,495.24l-.36,6.5c-16-.89-33.53-2.58-52.54-5.28l-.93-7.1a6.14,6.14,0,0,0,2.72-.59c4.51-2.19,3.2-9.36,4.33-28.66,1-16.26,2.56-22.61-1.67-25.76a8.46,8.46,0,0,0-4.22-1.58l-.47-32.07h50.79l1.51,38a6.5,6.5,0,0,0-3.31.84c-4.33,2.55-2.49,9.73-2.42,26.7.07,17.5-1.83,24.43,2.87,27.62A8.46,8.46,0,0,0,272.54,495.24Z"/><path class="cls-1" d="M272.18,501.74l-1.49,27H223.88l-4.24-32.24C238.65,499.16,256.14,500.85,272.18,501.74Z"/><path class="cls-2" d="M270.69,528.7l-.4,7.27h-.11a2.74,2.74,0,1,0-.08,5.47h0v1.06l-45,0v-1a2.74,2.74,0,0,0,0-5.47l-.36,0-1-7.28Z"/><path class="cls-2" d="M249,234.6h-3.3V241c-7.39,1.27-14.43,2.74-21.08,4.34l-.09-.39V36.87S224.75,7.25,251,8c0,0,18.35-2.7,19.23,25.77V237.72c-6.16.58-12.13,1.33-17.9,2.21V234.6ZM247.35,28.88a4.77,4.77,0,1,0-4.76-4.76A4.76,4.76,0,0,0,247.35,28.88Z"/><path class="cls-3" d="M269,371.57l1.17,29.13H219.4l-.26-17.46A244.24,244.24,0,0,1,269,371.57Z"/><path class="cls-2" d="M268.37,355.18l.65,16.39a244.24,244.24,0,0,0-49.88,11.67l-.25-17.37a5.88,5.88,0,1,0,0-11.76,5.68,5.68,0,0,0-2.15.41l-4.83-12a271.1,271.1,0,0,1,52.17-14.14L267,343.54a5.88,5.88,0,0,0,1.36,11.64Z"/><path class="cls-1" d="M249,250.12l15.1,78.23a271.1,271.1,0,0,0-52.17,14.14L182,268l3.4-.5L184,258q5-1.93,10.7-3.91c8.81-3,18.84-6.06,29.94-8.72,6.65-1.6,13.69-3.07,21.08-4.34v9.13Z"/><path d="M252.29,239.93v10.19h-6.61V241Q248.94,240.42,252.29,239.93Z"/><path d="M252.29,234.6v5.33q-3.36.49-6.61,1.06V234.6h6.61Z"/><path d="M247.35,19.35a4.77,4.77,0,1,1-4.76,4.77A4.77,4.77,0,0,1,247.35,19.35Z"/><path class="cls-2" d="M219.87,432.77a8.46,8.46,0,0,1,4.22,1.58c4.23,3.15,2.62,9.5,1.67,25.76-1.13,19.3.18,26.47-4.33,28.66a6.14,6.14,0,0,1-2.72.59,8.56,8.56,0,0,1-5.09-1.71c-4.51-3.45-2.22-10.26-1.29-27.73.9-16.95-.54-24.22,3.94-26.52A6.59,6.59,0,0,1,219.87,432.77Zm-1.8,51.74a.92.92,0,1,0-.12,0Zm1.87-47a.94.94,0,1,0,.95.94.94.94,0,0,0-.95-.94Z"/><path class="cls-2" d="M217.36,542.45,208.2,528.7h15.68l1,7.28a2.74,2.74,0,0,0,.36,5.45v1Z"/><path d="M218.89,354.11a5.89,5.89,0,1,1-2.15.41A5.68,5.68,0,0,1,218.89,354.11Z"/><path class="cls-1" d="M219.4,400.7l.47,32.07a6.59,6.59,0,0,0-3.6.63c-4.48,2.3-3,9.57-3.94,26.52-.93,17.47-3.22,24.28,1.29,27.73a8.56,8.56,0,0,0,5.09,1.71l.93,7.1q-21.21-3-45-7.76s-18.83-16.47-21.18-43.77c0,0-30.59-31.53-56-37.17l18.73-53.43s33.62,26.05,30.25-14.29c0,0,2.31-56.87,5.49-67.11,0,0,2-1.22,5.81-3.22,4.35-2.28,11.08-5.58,19.9-9.22l1.18,8L182,268l29.93,74.46c-8.74,3.3-17.71,7.15-26.9,11.62l14.59,37.18s3.48-1.81,9.8-4.38l-8.74,13.79Z"/><path class="cls-3" d="M219.14,383.24l.26,17.46H200.66l8.74-13.79C212.13,385.8,215.39,384.55,219.14,383.24Z"/><path class="cls-2" d="M218.89,365.87l.25,17.37c-3.75,1.31-7,2.56-9.74,3.67-6.32,2.57-9.8,4.38-9.8,4.38L185,354.11c9.19-4.47,18.16-8.32,26.9-11.62l4.83,12a5.88,5.88,0,0,0,2.15,11.35Z"/><path class="cls-2" d="M179.79,252.67l-3.22.47,1.09,7.35c-8.82,3.64-15.55,6.94-19.9,9.22V78.82s.19-27.18,21.37-26.48c0,0,14.82-2.47,15.53,23.65V254.05Q189,256,184,258l-.85-5.78ZM176.21,76.52a4.77,4.77,0,1,0-4.77-4.76A4.76,4.76,0,0,0,176.21,76.52Z"/><path d="M184,258l1.42,9.57-3.4.5-3.14.46-1.18-8C179.66,259.66,181.76,258.81,184,258Z"/><path d="M183.11,252.18,184,258c-2.2.85-4.3,1.7-6.3,2.53l-1.09-7.35,3.22-.47Z"/><path d="M176.21,67a4.77,4.77,0,1,1-4.77,4.77A4.77,4.77,0,0,1,176.21,67Z"/><path class="cls-4" d="M174.66,488.7s-18.83-16.47-21.18-43.77c0,0-30.59-31.53-56-37.17l18.73-53.43s33.62,26.05,30.25-14.29c0,0,2.31-56.87,5.49-67.11,0,0,2-1.22,5.81-3.22,4.35-2.28,11.08-5.58,19.9-9.22,2-.83,4.1-1.68,6.3-2.53q5-1.93,10.7-3.91c8.81-3,18.84-6.06,29.94-8.72,6.65-1.6,13.69-3.07,21.08-4.34q3.25-.57,6.61-1.06c5.77-.88,11.74-1.63,17.9-2.21a324.09,324.09,0,0,1,37.62-1.42c7.12.14,14.42.52,21.88,1.18,2.19.18,4.39.4,6.61.64q8.46.91,17.18,2.33a329.75,329.75,0,0,1,33.41,7.19q8.64,2.33,17.45,5.21,3.2,1,6.4,2.15,7.08,2.47,14.27,5.33,6.56,2.6,13.18,5.54s14.11,32.59,8.94,117.83c0,0-1.88,69.23-22.59,92.76a47.89,47.89,0,0,1-5.16,3.17c-6.21,3.43-18.24,9.05-37.25,13.86A297.1,297.1,0,0,1,332,501.37a451,451,0,0,1-59.82.37c-16-.89-33.53-2.58-52.54-5.28Q198.43,493.46,174.66,488.7Z"/><path class="cls-4" d="M157.76,269.71V78.82s.19-27.18,21.37-26.48c0,0,14.82-2.47,15.53,23.65V254.05"/><path class="cls-4" d="M224.51,244.94V36.87S224.75,7.25,251,8c0,0,18.35-2.7,19.23,25.77V237.72"/><path class="cls-4" d="M307.81,236.3V44.87S308,15.25,334.26,16c0,0,18.35-2.7,19.22,25.77V240.45"/><path class="cls-4" d="M386.89,247.65h0V89.4s.2-24.82,22.08-24.17c0,0,15.31-2.26,16,21.59V260.33h0"/><path class="cls-4" d="M174.66,488.7s26.23,76.18,29.59,129.91a141.25,141.25,0,0,1-.06,21c-.95,10.48-2.31,21.63-4.19,33.35s-4.12,22.83-6.52,33.12c-14.81,15.32-20.64,30.08-15.91,36.34,1,1.32,3.51,3.63,10.38,3.7l237.9,0c.63.09,12.45,1.67,18.55-5.91s4.4-21.72-6.68-30.33a270.68,270.68,0,0,1-15.3-42.7c-2.35-8.82-4.1-17.21-5.41-25.06a293.3,293.3,0,0,1-2.7-33c-1.91-55.64,5.07-129.52,5.07-129.52"/><path class="cls-4" d="M204.26,618.61s115.12-18.86,210.05-9.45"/><path class="cls-4" d="M211.91,342.49c-8.74,3.3-17.71,7.15-26.9,11.62l14.59,37.18s3.48-1.81,9.8-4.38c2.73-1.11,6-2.36,9.74-3.67A244.24,244.24,0,0,1,269,371.57a224.4,224.4,0,0,1,61.44.6,208.85,208.85,0,0,1,49.62,13.89l.48.2q5.51,2.33,11,5L406,354.11s-6.64-4.94-19.06-10.73a195.21,195.21,0,0,0-55.84-16.15,224.81,224.81,0,0,0-67,1.12A271.1,271.1,0,0,0,211.91,342.49Z"/><path class="cls-4" d="M216.74,354.52a5.68,5.68,0,0,1,2.15-.41,5.89,5.89,0,1,1-2.15.41Z"/><path class="cls-4" d="M383,358.8a5.88,5.88,0,1,1-2.44-.53A5.86,5.86,0,0,1,383,358.8Z"/><path class="cls-4" d="M330.64,343.42a5.89,5.89,0,1,1-5.88,5.89A5.89,5.89,0,0,1,330.64,343.42Z"/><path class="cls-4" d="M267,343.54a5.39,5.39,0,0,1,.91-.11,5.9,5.9,0,1,1-.91.11Z"/><path class="cls-4" d="M181,71.76A4.77,4.77,0,1,1,176.21,67,4.76,4.76,0,0,1,181,71.76Z"/><path class="cls-4" d="M252.11,24.12a4.76,4.76,0,1,1-4.76-4.77A4.76,4.76,0,0,1,252.11,24.12Z"/><path class="cls-4" d="M335.41,32.24a4.77,4.77,0,1,1-4.77-4.77A4.76,4.76,0,0,1,335.41,32.24Z"/><path class="cls-4" d="M410.72,85A4.77,4.77,0,1,1,406,80.23,4.78,4.78,0,0,1,410.72,85Z"/><polygon class="cls-4" points="252.29 239.93 252.29 250.12 248.98 250.12 245.68 250.12 245.68 240.99 245.68 234.6 248.98 234.6 252.29 234.6 252.29 239.93"/><polygon class="cls-4" points="410.74 255 409.73 263.62 407.14 263.32 403.16 262.85 404.34 252.85 404.97 247.44 408.33 247.83 411.54 248.21 410.74 255"/><polygon class="cls-4" points="336.3 238.12 336.3 249.4 333 249.4 329.69 249.4 329.69 237.48 329.69 233.89 333 233.89 336.3 233.89 336.3 238.12"/><polygon class="cls-4" points="183.96 257.96 185.38 267.53 181.98 268.03 178.84 268.49 177.66 260.49 176.57 253.14 179.79 252.67 183.11 252.18 183.96 257.96"/><path class="cls-4" d="M219.87,432.77a8.46,8.46,0,0,1,4.22,1.58c4.23,3.15,2.62,9.5,1.67,25.76-1.13,19.3.18,26.47-4.33,28.66a6.14,6.14,0,0,1-2.72.59,8.56,8.56,0,0,1-5.09-1.71c-4.51-3.45-2.22-10.26-1.29-27.73.9-16.95-.54-24.22,3.94-26.52A6.59,6.59,0,0,1,219.87,432.77Z"/><path class="cls-4" d="M271.7,438.72a8.53,8.53,0,0,1,4.56,1.34c4.4,2.91,3.16,9.34,3.13,25.63,0,19.33,1.69,26.42-2.69,28.86a6.82,6.82,0,0,1-4.16.69,8.46,8.46,0,0,1-3.7-1.36c-4.7-3.19-2.8-10.12-2.87-27.62-.07-17-1.91-24.15,2.42-26.7A6.5,6.5,0,0,1,271.7,438.72Z"/><path class="cls-4" d="M329.76,438.78a8.46,8.46,0,0,1,3.75,1.19c4.48,2.78,3.43,9.24,3.88,25.52.54,19.33,2.47,26.36-1.84,28.93a6.73,6.73,0,0,1-3.78.84,8.69,8.69,0,0,1-4.1-1.28c-4.79-3.05-3.09-10-3.67-27.52-.57-17-2.63-24.08,1.63-26.77A6.81,6.81,0,0,1,329.76,438.78Z"/><path class="cls-4" d="M378.82,429.66a8.29,8.29,0,0,1,3.7,1c4.58,2.63,3.74,9.12,4.73,25.38,1.18,19.3,3.35,26.26-.88,29a6.71,6.71,0,0,1-3.76,1,8.53,8.53,0,0,1-4.13-1.14c-4.88-2.89-3.42-9.92-4.58-27.38-1.13-16.94-3.43-24,.74-26.81A6.86,6.86,0,0,1,378.82,429.66Z"/><polyline class="cls-4" points="217.59 542.05 217.36 542.45 209.43 556.27 399.78 556.27 390.9 542.56 390.65 542.17"/><polyline class="cls-4" points="390.9 542.57 390.9 542.56 398.55 528.7 379.86 528.7 333.01 528.7 270.69 528.7 223.88 528.7 208.2 528.7 217.36 542.45"/><path class="cls-4" d="M220.89,438.46a.94.94,0,1,1-.95-.94h0A.94.94,0,0,1,220.89,438.46Z"/><path class="cls-4" d="M272.87,444.4a.94.94,0,1,1-1-.94h0A.94.94,0,0,1,272.87,444.4Z"/><path class="cls-4" d="M330.64,444.4a.94.94,0,1,1-.94-.94h0A.94.94,0,0,1,330.64,444.4Z"/><path class="cls-4" d="M379.6,435.11a.94.94,0,1,1-.94-.94h0A.94.94,0,0,1,379.6,435.11Z"/><path class="cls-4" d="M273.82,489.36a1,1,0,0,1-.95.94h-.05a.93.93,0,0,1-.89-.93.95.95,0,0,1,1.89,0Z"/><path class="cls-4" d="M332.53,490.3a.94.94,0,0,1-.91.94h0a.94.94,0,1,1,.94-.94Z"/><path class="cls-4" d="M383.83,481.7a.94.94,0,0,1-.94.94h-.06a.93.93,0,0,1-.88-.93.94.94,0,0,1,1.88,0Z"/><path class="cls-4" d="M218.89,483.58a.94.94,0,0,1-.82.93H218a.94.94,0,1,1,.94-.94Z"/><polyline class="cls-4" points="209.4 386.91 200.66 400.7 219.4 400.7 270.19 400.7 330.16 400.7 379.66 400.7 392.48 400.7 380.56 386.26 380.55 386.25"/><line class="cls-4" x1="176.21" y1="76.52" x2="179.79" y2="252.67"/><polyline class="cls-4" points="181.98 268.03 211.91 342.49 216.74 354.52"/><polyline class="cls-4" points="218.89 365.87 219.14 383.24 219.4 400.7 219.87 432.77 219.94 437.52 219.95 438.46"/><path class="cls-4" d="M224.83,536l.36,0a2.71,2.71,0,1,1-.36,0Z"/><path class="cls-4" d="M333.28,536h.1a2.69,2.69,0,1,1-.1,0Z"/><path class="cls-4" d="M379.4,536a2.68,2.68,0,1,1-.18,0Z"/><path class="cls-4" d="M270.29,536a2.73,2.73,0,0,1-.14,5.46h0a2.74,2.74,0,1,1,.08-5.47Z"/><polyline class="cls-4" points="217.95 483.58 218.07 484.51 218.71 489.36 219.64 496.46 223.88 528.7 224.83 535.98 225.19 538.7"/><line class="cls-4" x1="247.35" y1="28.88" x2="248.98" y2="234.6"/><line class="cls-4" x1="330.64" y1="37" x2="333" y2="233.89"/><line class="cls-4" x1="405.95" y1="89.76" x2="408.33" y2="247.83"/><polyline class="cls-4" points="248.98 250.12 264.08 328.35 267.01 343.54"/><polyline class="cls-4" points="333 249.4 331.05 327.23 330.64 343.42"/><polyline class="cls-4" points="407.14 263.31 407.14 263.32 386.89 343.38 382.99 358.8"/><polyline class="cls-4" points="268.37 355.18 269.02 371.57 270.19 400.7 271.7 438.72 271.89 443.46 271.93 444.4"/><polyline class="cls-4" points="330.64 355.19 330.46 372.17 330.16 400.7 329.76 438.78 329.71 443.46 329.7 444.4"/><polyline class="cls-4" points="380.55 370.03 380.08 386.06 379.66 400.7 378.82 429.66 378.69 434.17 378.66 435.11"/><polyline class="cls-4" points="272.87 489.36 272.82 490.29 272.54 495.24 272.18 501.74 270.69 528.7 270.29 535.97 270.14 538.7"/><polyline class="cls-4" points="331.59 490.3 331.62 491.24 331.77 495.26 332 501.37 333.01 528.7 333.28 535.96 333.38 538.7"/><polyline class="cls-4" points="382.89 481.7 382.83 482.63 382.61 486.02 382.13 493.49 379.86 528.7 379.4 535.97 379.22 538.7"/><path class="cls-2" d="M681.14,437.52a.94.94,0,1,0,1,.94.94.94,0,0,0-1-.94Zm-1.87,47a.92.92,0,1,0-.12,0Zm.64,4.85a8.56,8.56,0,0,1-5.09-1.71c-4.51-3.45-2.21-10.26-1.29-27.73.9-16.95-.54-24.22,3.94-26.52a6.59,6.59,0,0,1,3.6-.63,8.46,8.46,0,0,1,4.22,1.58c4.23,3.15,2.62,9.5,1.67,25.76-1.13,19.3.19,26.47-4.33,28.66A6.14,6.14,0,0,1,679.91,489.36Z"/><path class="cls-2" d="M734,490.29h.05a.94.94,0,1,0-.94-.94A.93.93,0,0,0,734,490.29Zm-1.12-51.57a8.47,8.47,0,0,1,4.55,1.34c4.4,2.91,3.16,9.34,3.13,25.63,0,19.33,1.7,26.42-2.69,28.86a6.78,6.78,0,0,1-4.15.69,8.55,8.55,0,0,1-3.71-1.36c-4.7-3.19-2.79-10.12-2.86-27.62-.07-17-1.92-24.15,2.42-26.7A6.5,6.5,0,0,1,732.91,438.72Zm.19,4.74a.94.94,0,1,0,1,.94.95.95,0,0,0-1-.94Z"/><path class="cls-2" d="M790.92,443.46h0a.94.94,0,1,0,.94.94A.94.94,0,0,0,790.92,443.46Zm1.9,47.78a.94.94,0,1,0-1-.94.94.94,0,0,0,1,.94ZM791,438.78a8.54,8.54,0,0,1,3.74,1.19c4.48,2.78,3.43,9.24,3.88,25.52.54,19.33,2.47,26.36-1.84,28.93a6.73,6.73,0,0,1-3.78.84,8.69,8.69,0,0,1-4.1-1.28c-4.79-3.05-3.09-10-3.67-27.52-.57-17-2.63-24.08,1.63-26.77A6.85,6.85,0,0,1,791,438.78Z"/><path class="cls-2" d="M839.89,434.17h0a.94.94,0,1,0,.94.94A.94.94,0,0,0,839.86,434.17ZM843.81,486a8.57,8.57,0,0,1-4.12-1.14c-4.89-2.89-3.43-9.92-4.59-27.38-1.13-16.94-3.42-24,.74-26.81a6.86,6.86,0,0,1,4.18-1,8.33,8.33,0,0,1,3.71,1c4.57,2.63,3.73,9.12,4.72,25.38,1.18,19.3,3.35,26.26-.87,29A6.72,6.72,0,0,1,843.81,486Zm.22-3.39h.06a.94.94,0,1,0-.94-.94A.93.93,0,0,0,844,482.63Z"/><path class="cls-2" d="M852.11,542.57H840.42v-1.13a2.73,2.73,0,0,0,.18-5.46l.46-7.27h18.69Z"/><path class="cls-2" d="M837.68,538.7a2.74,2.74,0,0,0,2.74,2.73v1.13l-45.84,0v-1.1a2.74,2.74,0,1,0,0-5.47h-.1l-.27-7.26h46.85L840.6,536h-.18A2.74,2.74,0,0,0,837.68,538.7Z"/><path class="cls-2" d="M686.39,542.46h-7.83L669.4,528.7h15.68L686,536a2.74,2.74,0,0,0,.36,5.45Z"/><path class="cls-2" d="M731.3,541.43h.05v1.06l-45,0v-1a2.74,2.74,0,0,0,0-5.47l-.36,0-.95-7.28H731.9l-.41,7.27h-.1a2.74,2.74,0,1,0-.09,5.47Z"/><path class="cls-2" d="M791.85,538.7a2.73,2.73,0,0,0,2.73,2.73v1.1l-63.23,0v-1.06a2.73,2.73,0,0,0,.14-5.46l.41-7.27h62.31l.27,7.26A2.74,2.74,0,0,0,791.85,538.7Z"/><polygon class="cls-3" points="852.11 542.57 860.99 556.27 670.63 556.27 678.56 542.45 686.39 542.46 731.35 542.49 794.58 542.53 840.42 542.56 852.11 542.57"/><path class="cls-3" d="M841.78,386.27l11.9,14.43H840.86l.43-14.64Z"/><path class="cls-3" d="M680.34,383.24l.26,17.46H661.86l8.74-13.79C673.33,385.8,676.59,384.55,680.34,383.24Z"/><path class="cls-3" d="M841.29,386.06l-.43,14.64H791.37l.3-28.53A208.85,208.85,0,0,1,841.29,386.06Z"/><path class="cls-3" d="M791.67,372.17l-.3,28.53h-60l-1.16-29.13A224.4,224.4,0,0,1,791.67,372.17Z"/><path class="cls-3" d="M730.23,371.57l1.16,29.13H680.6l-.26-17.46A244.36,244.36,0,0,1,730.23,371.57Z"/><path class="cls-2" d="M841.78,386.27l-.49-.21.47-16a5.88,5.88,0,0,0,2.43-11.23l3.9-15.42c12.42,5.79,19.06,10.73,19.06,10.73L852.8,391.29Q847.28,388.58,841.78,386.27Z"/><path class="cls-2" d="M848.09,343.38l-3.9,15.42A5.88,5.88,0,1,0,841.76,370l-.47,16a208.85,208.85,0,0,0-49.62-13.89l.18-17a5.89,5.89,0,0,0,0-11.77l.4-16.19A195.21,195.21,0,0,1,848.09,343.38Z"/><path class="cls-2" d="M792.25,327.23l-.4,16.19a5.89,5.89,0,1,0,0,11.77l-.18,17a224.4,224.4,0,0,0-61.44-.6l-.66-16.39a5.88,5.88,0,0,0-.45-11.75,5.27,5.27,0,0,0-.9.11l-2.93-15.19A224.74,224.74,0,0,1,792.25,327.23Z"/><path class="cls-2" d="M680.09,365.87l.25,17.37c-3.75,1.31-7,2.56-9.74,3.67-6.32,2.57-9.8,4.38-9.8,4.38l-14.59-37.18c9.19-4.47,18.16-8.32,26.9-11.62l4.83,12a5.88,5.88,0,0,0,2.15,11.35Z"/><path class="cls-2" d="M723.47,349.53a5.87,5.87,0,0,0,6.1,5.65l.66,16.39a244.36,244.36,0,0,0-49.89,11.67l-.25-17.37a5.88,5.88,0,1,0,0-11.76,5.71,5.71,0,0,0-2.15.41l-4.83-12a270.46,270.46,0,0,1,52.18-14.14l2.93,15.19A5.87,5.87,0,0,0,723.47,349.53Z"/><path class="cls-2" d="M867.15,89.76A4.77,4.77,0,1,0,862.39,85,4.77,4.77,0,0,0,867.15,89.76Zm2.38,158.07-3.36-.39-.63,5.41q-8.82-2.9-17.45-5.21V89.4s.2-24.82,22.08-24.17c0,0,15.31-2.26,16,21.59V260.33Q879,257.47,871.94,255l.8-6.79Z"/><path class="cls-2" d="M794.2,233.89h-3.31v3.59c-7.46-.66-14.76-1-21.88-1.18V44.87s.24-29.62,26.45-28.85c0,0,18.35-2.7,19.22,25.77V240.45Q806,239,797.51,238.12v-4.23ZM791.85,37a4.77,4.77,0,1,0-4.77-4.76A4.76,4.76,0,0,0,791.85,37Z"/><path class="cls-2" d="M708.55,28.88a4.77,4.77,0,1,0-4.76-4.76A4.77,4.77,0,0,0,708.55,28.88Zm1.64,205.72h-3.31V241c-7.39,1.27-14.42,2.74-21.07,4.34l-.09-.39V36.87S686,7.25,712.17,8c0,0,18.35-2.7,19.22,25.77V237.72c-6.16.58-12.13,1.33-17.9,2.21V234.6Z"/><path class="cls-2" d="M641,252.67l-3.22.47,1.09,7.35c-8.82,3.64-15.55,6.94-19.9,9.22V78.82s.19-27.18,21.37-26.48c0,0,14.82-2.47,15.53,23.65V254.05q-5.7,2-10.7,3.91l-.85-5.78ZM637.41,76.52a4.77,4.77,0,1,0-4.76-4.76A4.77,4.77,0,0,0,637.41,76.52Z"/><path d="M867.15,80.23A4.77,4.77,0,1,1,862.39,85,4.76,4.76,0,0,1,867.15,80.23Z"/><path d="M791.85,27.47a4.77,4.77,0,1,1-4.77,4.77A4.76,4.76,0,0,1,791.85,27.47Z"/><path d="M708.55,19.35a4.77,4.77,0,1,1-4.76,4.77A4.78,4.78,0,0,1,708.55,19.35Z"/><path d="M637.41,67a4.77,4.77,0,1,1-4.76,4.77A4.78,4.78,0,0,1,637.41,67Z"/><path d="M644.31,252.18l.85,5.78c-2.2.85-4.3,1.7-6.3,2.53l-1.09-7.35,3.22-.47Z"/><path d="M645.16,258l1.42,9.57-3.39.5-3.15.46-1.18-8C640.86,259.66,643,258.81,645.16,258Z"/><path d="M713.49,234.6v5.33q-3.36.49-6.61,1.06V234.6h6.61Z"/><path d="M713.49,239.93v10.19h-6.61V241Q710.14,240.42,713.49,239.93Z"/><path d="M797.51,233.89v4.23q-3.33-.36-6.62-.64v-3.59h6.62Z"/><path d="M797.51,238.12V249.4h-6.62V237.48Q794.18,237.77,797.51,238.12Z"/><path d="M872.74,248.21l-.8,6.79q-3.21-1.11-6.4-2.15l.63-5.41,3.36.39Z"/><path d="M868.34,263.32l-4-.47,1.18-10q3.19,1,6.4,2.15l-1,8.62Z"/><path d="M689.12,538.7A2.74,2.74,0,1,1,686,536l.36,0A2.74,2.74,0,0,1,689.12,538.7Z"/><path d="M731.3,541.43a2.74,2.74,0,1,1,.09-5.47h.1a2.73,2.73,0,0,1-.14,5.46Z"/><path d="M840.6,536a2.68,2.68,0,1,1-.18,0Z"/><path d="M797.32,538.7a2.74,2.74,0,1,1-2.84-2.74h.1A2.74,2.74,0,0,1,797.32,538.7Z"/><path d="M844.09,480.76a.94.94,0,1,1,0,1.88H844a.93.93,0,0,1-.88-.93A.94.94,0,0,1,844.09,480.76Z"/><path d="M791.85,490.3a.94.94,0,1,1,1,.94h0A.94.94,0,0,1,791.85,490.3Z"/><path d="M734.08,488.42a.94.94,0,0,1,0,1.88H734a.93.93,0,0,1-.89-.93A.94.94,0,0,1,734.08,488.42Z"/><path d="M678.21,483.58a.94.94,0,1,1,1.06.93h-.12A.94.94,0,0,1,678.21,483.58Z"/><path d="M681.14,437.52h0a.94.94,0,1,1-.94.94A.94.94,0,0,1,681.15,437.52Z"/><path d="M733.1,443.46h0a.94.94,0,1,1-.95.94A.94.94,0,0,1,733.14,443.46Z"/><path d="M790.92,443.46a.94.94,0,0,1,0,1.88.94.94,0,1,1,0-1.88Z"/><path d="M839.89,434.17a.94.94,0,1,1-1,.94.94.94,0,0,1,1-.94Z"/><path d="M844.19,358.8a5.88,5.88,0,1,1-2.43-.53A5.86,5.86,0,0,1,844.19,358.8Z"/><path d="M791.85,343.42a5.89,5.89,0,1,1-5.89,5.89A5.89,5.89,0,0,1,791.85,343.42Z"/><path d="M728.22,343.54a5.27,5.27,0,0,1,.9-.11,5.92,5.92,0,1,1-.9.11Z"/><path d="M680.09,354.11a5.89,5.89,0,1,1-2.15.41A5.71,5.71,0,0,1,680.09,354.11Z"/><path class="cls-1" d="M848.09,247.64q8.64,2.33,17.45,5.21l-1.18,10,4,.47-20.25,80.06a195.21,195.21,0,0,0-55.84-16.15l2-77.83h3.31V238.12q8.46.91,17.17,2.33A329.75,329.75,0,0,1,848.09,247.64Z"/><path class="cls-1" d="M794.2,249.4l-2,77.83a224.74,224.74,0,0,0-67,1.12l-15.1-78.23h3.3V239.93c5.77-.88,11.74-1.63,17.9-2.21A324.09,324.09,0,0,1,769,236.3c7.12.14,14.42.52,21.88,1.18V249.4Z"/><path class="cls-1" d="M710.19,250.12l15.1,78.23a270.46,270.46,0,0,0-52.18,14.14L643.19,268l3.39-.5L645.16,258q5-1.93,10.7-3.91c8.81-3,18.84-6.06,29.95-8.72,6.65-1.6,13.68-3.07,21.07-4.34v9.13Z"/><path class="cls-1" d="M733.75,495.24l-.36,6.5c-16-.89-33.53-2.58-52.55-5.28l-.93-7.1a6.14,6.14,0,0,0,2.72-.59c4.52-2.19,3.2-9.36,4.33-28.66.95-16.26,2.56-22.61-1.67-25.76a8.46,8.46,0,0,0-4.22-1.58l-.47-32.07h50.79l1.52,38a6.5,6.5,0,0,0-3.31.84c-4.34,2.55-2.49,9.73-2.42,26.7.07,17.5-1.84,24.43,2.86,27.62A8.55,8.55,0,0,0,733.75,495.24Z"/><path class="cls-1" d="M680.6,400.7l.47,32.07a6.59,6.59,0,0,0-3.6.63c-4.48,2.3-3,9.57-3.94,26.52-.92,17.47-3.22,24.28,1.29,27.73a8.56,8.56,0,0,0,5.09,1.71l.93,7.1q-21.21-3-45-7.76S617,472.23,614.68,444.93c0,0-30.59-31.53-56-37.17l18.73-53.43S611,380.38,607.67,340c0,0,2.31-56.87,5.48-67.11,0,0,2-1.22,5.81-3.22,4.35-2.28,11.08-5.58,19.9-9.22l1.18,8,3.15-.46,29.92,74.46c-8.74,3.3-17.71,7.15-26.9,11.62l14.59,37.18s3.48-1.81,9.8-4.38l-8.74,13.79Z"/><path class="cls-1" d="M843.81,486l-.48,7.47a297.1,297.1,0,0,1-50.13,7.88l-.23-6.11a6.73,6.73,0,0,0,3.78-.84c4.31-2.57,2.38-9.6,1.84-28.93-.45-16.28.6-22.74-3.88-25.52a8.54,8.54,0,0,0-3.74-1.19l.4-38.08h49.49l-.84,29a6.86,6.86,0,0,0-4.18,1c-4.16,2.83-1.87,9.87-.74,26.81,1.16,17.46-.3,24.49,4.59,27.38A8.57,8.57,0,0,0,843.81,486Z"/><path class="cls-1" d="M886.21,260.33q6.56,2.6,13.18,5.54s14.12,32.59,8.94,117.83c0,0-1.88,69.23-22.59,92.76a47.89,47.89,0,0,1-5.16,3.17c-6.21,3.43-18.24,9.05-37.25,13.86l.48-7.47a6.72,6.72,0,0,0,3.77-1c4.22-2.71,2-9.67.87-29-1-16.26-.15-22.75-4.72-25.38a8.33,8.33,0,0,0-3.71-1l.84-29h12.82l-11.9-14.43q5.49,2.31,11,5l14.35-37.18s-6.64-4.94-19.06-10.73l20.25-80.06,2.59.3,1-8.62Q879,257.47,886.21,260.33Z"/><path class="cls-1" d="M793,495.26l.23,6.11a450.9,450.9,0,0,1-59.81.37l.36-6.5a6.78,6.78,0,0,0,4.15-.69c4.39-2.44,2.66-9.53,2.69-28.86,0-16.29,1.27-22.72-3.13-25.63a8.47,8.47,0,0,0-4.55-1.34l-1.52-38h60l-.4,38.08a6.85,6.85,0,0,0-4.14.91c-4.26,2.69-2.2,9.81-1.63,26.77.58,17.49-1.12,24.47,3.67,27.52A8.69,8.69,0,0,0,793,495.26Z"/><path class="cls-1" d="M843.33,493.49l-2.27,35.21H794.21l-1-27.33A297.1,297.1,0,0,0,843.33,493.49Z"/><path class="cls-1" d="M733.39,501.74l-1.49,27H685.08l-4.24-32.24C699.86,499.16,717.35,500.85,733.39,501.74Z"/><path class="cls-1" d="M793.2,501.37l1,27.33H731.9l1.49-27A450.9,450.9,0,0,0,793.2,501.37Z"/><path class="cls-1" d="M880.58,479.63h0s-7,73.88-5.07,129.52c-94.94-9.41-210,9.45-210,9.45h0c-3.35-53.74-29.59-129.91-29.59-129.91q23.79,4.8,45,7.76l4.24,32.24H669.4l9.16,13.75-7.93,13.82H861l-8.88-13.7,7.64-13.87H841.06l2.27-35.21C862.34,488.68,874.37,483.06,880.58,479.63Z"/><path d="M898.92,709.87c11.09,8.61,12.78,22.76,6.68,30.33s-17.92,6-18.55,5.91l-237.9,0c-6.87-.07-9.37-2.38-10.37-3.7-4.74-6.26,1.09-21,15.9-36.34,2.4-10.29,4.62-21.35,6.52-33.12s3.24-22.87,4.19-33.35a139.93,139.93,0,0,0,.06-21h0s115.11-18.86,210-9.45a293.3,293.3,0,0,0,2.7,33c1.31,7.85,3.07,16.24,5.41,25.06A271.69,271.69,0,0,0,898.92,709.87ZM857,722.23V693.52H684.8v28.71Zm-30.55-56.12V637.4h-112v28.71Z"/><rect class="cls-2" x="714.49" y="637.4" width="112" height="28.71"/><rect class="cls-2" x="684.8" y="693.52" width="172.24" height="28.71"/><path class="cls-4" d="M635.86,488.7S617,472.23,614.68,444.93c0,0-30.59-31.53-56-37.17l18.73-53.43S611,380.38,607.67,340c0,0,2.31-56.87,5.48-67.11,0,0,2-1.22,5.81-3.22,4.35-2.28,11.08-5.58,19.9-9.22,2-.83,4.1-1.68,6.3-2.53q5-1.93,10.7-3.91c8.81-3,18.84-6.06,29.95-8.72,6.65-1.6,13.68-3.07,21.07-4.34q3.25-.57,6.61-1.06c5.77-.88,11.74-1.63,17.9-2.21A324.09,324.09,0,0,1,769,236.3c7.12.14,14.42.52,21.88,1.18q3.29.28,6.62.64,8.46.91,17.17,2.33a329.75,329.75,0,0,1,33.41,7.19q8.64,2.33,17.45,5.21,3.19,1,6.4,2.15,7.08,2.47,14.27,5.33,6.56,2.6,13.18,5.54s14.12,32.59,8.94,117.83c0,0-1.88,69.23-22.59,92.76a47.89,47.89,0,0,1-5.16,3.17c-6.21,3.43-18.24,9.05-37.25,13.86a297.1,297.1,0,0,1-50.13,7.88,450.9,450.9,0,0,1-59.81.37c-16-.89-33.53-2.58-52.55-5.28Q659.63,493.46,635.86,488.7Z"/><path class="cls-4" d="M619,269.71V78.82s.19-27.18,21.37-26.48c0,0,14.82-2.47,15.53,23.65V254.05"/><path class="cls-4" d="M685.72,244.94V36.87S686,7.25,712.17,8c0,0,18.35-2.7,19.22,25.77V237.72"/><path class="cls-4" d="M769,236.3V44.87s.24-29.62,26.45-28.85c0,0,18.35-2.7,19.22,25.77V240.45"/><path class="cls-4" d="M848.09,247.65h0V89.4s.2-24.82,22.08-24.17c0,0,15.31-2.26,16,21.59V260.33h0"/><path class="cls-4" d="M635.86,488.7s26.24,76.17,29.59,129.91a139.93,139.93,0,0,1-.06,21c-.95,10.48-2.31,21.63-4.19,33.35s-4.12,22.83-6.52,33.12c-14.81,15.32-20.64,30.08-15.9,36.34,1,1.32,3.5,3.63,10.37,3.7l237.9,0c.63.09,12.45,1.67,18.55-5.91s4.41-21.72-6.68-30.33a271.69,271.69,0,0,1-15.3-42.7c-2.34-8.82-4.1-17.21-5.41-25.06a293.3,293.3,0,0,1-2.7-33c-1.91-55.64,5.07-129.52,5.07-129.52"/><path class="cls-4" d="M665.46,618.61s115.11-18.86,210-9.45h0"/><rect class="cls-4" x="714.49" y="637.4" width="112" height="28.71"/><rect class="cls-4" x="684.8" y="693.52" width="172.24" height="28.71"/><path class="cls-4" d="M673.11,342.49c-8.74,3.3-17.71,7.15-26.9,11.62l14.59,37.18s3.48-1.81,9.8-4.38c2.73-1.11,6-2.36,9.74-3.67a244.36,244.36,0,0,1,49.89-11.67,224.4,224.4,0,0,1,61.44.6,208.85,208.85,0,0,1,49.62,13.89l.49.21q5.49,2.31,11,5l14.35-37.18s-6.64-4.94-19.06-10.73a195.21,195.21,0,0,0-55.84-16.15,224.74,224.74,0,0,0-67,1.12A270.46,270.46,0,0,0,673.11,342.49Z"/><path class="cls-4" d="M677.94,354.52a5.71,5.71,0,0,1,2.15-.41,5.89,5.89,0,1,1-2.15.41Z"/><path class="cls-4" d="M844.19,358.8a5.88,5.88,0,1,1-2.43-.53A5.86,5.86,0,0,1,844.19,358.8Z"/><path class="cls-4" d="M791.85,343.42a5.89,5.89,0,1,1-5.89,5.89A5.89,5.89,0,0,1,791.85,343.42Z"/><path class="cls-4" d="M728.22,343.54a5.27,5.27,0,0,1,.9-.11,5.92,5.92,0,1,1-.9.11Z"/><path class="cls-4" d="M642.18,71.76A4.77,4.77,0,1,1,637.41,67,4.77,4.77,0,0,1,642.18,71.76Z"/><path class="cls-4" d="M713.32,24.12a4.77,4.77,0,1,1-4.77-4.77A4.77,4.77,0,0,1,713.32,24.12Z"/><path class="cls-4" d="M796.61,32.24a4.77,4.77,0,1,1-4.76-4.77A4.76,4.76,0,0,1,796.61,32.24Z"/><path class="cls-4" d="M871.92,85a4.77,4.77,0,1,1-4.77-4.76A4.77,4.77,0,0,1,871.92,85Z"/><polygon class="cls-4" points="713.49 239.93 713.49 250.12 710.19 250.12 706.88 250.12 706.88 240.99 706.88 234.6 710.19 234.6 713.49 234.6 713.49 239.93"/><polygon class="cls-4" points="871.94 255 870.93 263.62 868.34 263.32 864.36 262.85 865.54 252.85 866.17 247.44 869.53 247.83 872.74 248.21 871.94 255"/><polygon class="cls-4" points="797.51 238.12 797.51 249.4 794.2 249.4 790.89 249.4 790.89 237.48 790.89 233.89 794.2 233.89 797.51 233.89 797.51 238.12"/><polygon class="cls-4" points="645.16 257.96 646.58 267.53 643.19 268.03 640.04 268.49 638.86 260.49 637.77 253.14 640.99 252.67 644.31 252.18 645.16 257.96"/><path class="cls-4" d="M681.07,432.77a8.46,8.46,0,0,1,4.22,1.58c4.23,3.15,2.62,9.5,1.67,25.76-1.13,19.3.19,26.47-4.33,28.66a6.14,6.14,0,0,1-2.72.59,8.56,8.56,0,0,1-5.09-1.71c-4.51-3.45-2.21-10.26-1.29-27.73.9-16.95-.54-24.22,3.94-26.52A6.59,6.59,0,0,1,681.07,432.77Z"/><path class="cls-4" d="M732.91,438.72a8.47,8.47,0,0,1,4.55,1.34c4.4,2.91,3.16,9.34,3.13,25.63,0,19.33,1.7,26.42-2.69,28.86a6.78,6.78,0,0,1-4.15.69,8.55,8.55,0,0,1-3.71-1.36c-4.7-3.19-2.79-10.12-2.86-27.62-.07-17-1.92-24.15,2.42-26.7A6.5,6.5,0,0,1,732.91,438.72Z"/><path class="cls-4" d="M791,438.78a8.54,8.54,0,0,1,3.74,1.19c4.48,2.78,3.43,9.24,3.88,25.52.54,19.33,2.47,26.36-1.84,28.93a6.73,6.73,0,0,1-3.78.84,8.69,8.69,0,0,1-4.1-1.28c-4.79-3.05-3.09-10-3.67-27.52-.57-17-2.63-24.08,1.63-26.77A6.85,6.85,0,0,1,791,438.78Z"/><path class="cls-4" d="M840,429.66a8.33,8.33,0,0,1,3.71,1c4.57,2.63,3.73,9.12,4.72,25.38,1.18,19.3,3.35,26.26-.87,29a6.72,6.72,0,0,1-3.77,1,8.57,8.57,0,0,1-4.12-1.14c-4.89-2.89-3.43-9.92-4.59-27.38-1.13-16.94-3.42-24,.74-26.81A6.86,6.86,0,0,1,840,429.66Z"/><polyline class="cls-4" points="678.79 542.05 678.56 542.45 670.63 556.27 860.99 556.27 852.11 542.57 851.85 542.17"/><polyline class="cls-4" points="852.11 542.57 859.75 528.7 841.06 528.7 794.21 528.7 731.9 528.7 685.08 528.7 669.4 528.7 678.56 542.45"/><path class="cls-4" d="M682.09,438.46a.94.94,0,1,1-1-.94h0A.94.94,0,0,1,682.09,438.46Z"/><path class="cls-4" d="M734.08,444.4a.95.95,0,1,1-1-.94h0A.94.94,0,0,1,734.08,444.4Z"/><path class="cls-4" d="M791.85,444.4a.95.95,0,1,1-.94-.94h0A.94.94,0,0,1,791.85,444.4Z"/><path class="cls-4" d="M840.8,435.11a.94.94,0,1,1-.94-.94h0A.94.94,0,0,1,840.8,435.11Z"/><path class="cls-4" d="M735,489.36a.94.94,0,0,1-.94.94H734a.93.93,0,0,1-.89-.93.94.94,0,1,1,1.88,0Z"/><path class="cls-4" d="M793.73,490.3a.94.94,0,0,1-.91.94h0a.94.94,0,1,1,.94-.94Z"/><path class="cls-4" d="M845,481.7a1,1,0,0,1-.95.94H844a.93.93,0,0,1-.88-.93.95.95,0,0,1,1.89,0Z"/><path class="cls-4" d="M680.09,483.58a.94.94,0,0,1-.82.93h-.12a.94.94,0,1,1,.94-.94Z"/><polyline class="cls-4" points="670.6 386.91 661.86 400.7 680.6 400.7 731.39 400.7 791.37 400.7 840.86 400.7 853.68 400.7 841.78 386.27 841.76 386.25"/><line class="cls-4" x1="637.41" y1="76.52" x2="640.99" y2="252.67"/><polyline class="cls-4" points="643.19 268.03 673.11 342.49 677.94 354.52"/><polyline class="cls-4" points="680.09 365.87 680.34 383.24 680.6 400.7 681.07 432.77 681.14 437.52 681.15 438.46"/><path class="cls-4" d="M686,536l.36,0a2.71,2.71,0,1,1-.36,0Z"/><path class="cls-4" d="M794.48,536h.1a2.68,2.68,0,1,1-.1,0Z"/><path class="cls-4" d="M840.6,536a2.68,2.68,0,1,1-.18,0Z"/><path class="cls-4" d="M731.49,536a2.73,2.73,0,0,1-.14,5.46h-.05a2.74,2.74,0,1,1,.09-5.47Z"/><polyline class="cls-4" points="679.15 483.58 679.27 484.51 679.91 489.36 680.84 496.46 685.08 528.7 686.03 535.98 686.39 538.7"/><line class="cls-4" x1="708.55" y1="28.88" x2="710.19" y2="234.6"/><line class="cls-4" x1="791.85" y1="37" x2="794.2" y2="233.89"/><line class="cls-4" x1="867.15" y1="89.76" x2="869.53" y2="247.83"/><polyline class="cls-4" points="710.19 250.12 725.29 328.35 728.22 343.54"/><polyline class="cls-4" points="794.2 249.4 792.25 327.23 791.85 343.42"/><polyline class="cls-4" points="868.34 263.31 868.34 263.32 848.09 343.38 844.19 358.8"/><polyline class="cls-4" points="729.57 355.18 730.23 371.57 731.39 400.7 732.91 438.72 733.1 443.46 733.14 444.4"/><polyline class="cls-4" points="791.85 355.19 791.67 372.17 791.37 400.7 790.97 438.78 790.92 443.46 790.91 444.4"/><polyline class="cls-4" points="841.76 370.03 841.29 386.06 840.86 400.7 840.02 429.66 839.89 434.17 839.86 435.11"/><polyline class="cls-4" points="734.08 489.36 734.03 490.29 733.75 495.24 733.39 501.74 731.9 528.7 731.49 535.97 731.34 538.7"/><polyline class="cls-4" points="792.79 490.3 792.82 491.24 792.97 495.26 793.2 501.37 794.21 528.7 794.48 535.96 794.58 538.7"/><polyline class="cls-4" points="844.09 481.7 844.03 482.63 843.81 486.02 843.33 493.49 841.06 528.7 840.6 535.97 840.42 538.7"/></svg>