<svg xmlns="http://www.w3.org/2000/svg" viewBox="0 0 500 500"><g id="freepik--background-simple--inject-103"><path d="M461,208.15S397,52,280,21.89s-166.07,62-184,126S12,296.44,18,354.58c5.7,55.26,54.13,81.39,99.36,92.61,57.49,14.25,122.82,15.33,180.52,3.45a372.84,372.84,0,0,0,40.57-11c27.11-8.84,53.72-15.69,81.18-23,52.24-13.93,72.94-70,67.05-123.74C483.36,262.69,472.29,235.65,461,208.15Z" style="fill:#61DAFB"></path><path d="M461,208.15S397,52,280,21.89s-166.07,62-184,126S12,296.44,18,354.58c5.7,55.26,54.13,81.39,99.36,92.61,57.49,14.25,122.82,15.33,180.52,3.45a372.84,372.84,0,0,0,40.57-11c27.11-8.84,53.72-15.69,81.18-23,52.24-13.93,72.94-70,67.05-123.74C483.36,262.69,472.29,235.65,461,208.15Z" style="fill:#fff;opacity:0.7000000000000001"></path></g><g id="freepik--Window--inject-103"><rect x="240.25" y="37.21" width="185.5" height="256.84" style="fill:none;stroke:#263238;stroke-linecap:round;stroke-linejoin:round"></rect><line x1="333" y1="37.36" x2="333" y2="294.95" style="fill:none;stroke:#263238;stroke-linecap:round;stroke-linejoin:round"></line><line x1="425.91" y1="166.16" x2="240.1" y2="166.16" style="fill:none;stroke:#263238;stroke-linecap:round;stroke-linejoin:round"></line><line x1="425.91" y1="101.66" x2="240.1" y2="101.66" style="fill:none;stroke:#263238;stroke-linecap:round;stroke-linejoin:round"></line><line x1="425.91" y1="230.66" x2="240.1" y2="230.66" style="fill:none;stroke:#263238;stroke-linecap:round;stroke-linejoin:round"></line><line x1="392.1" y1="131.43" x2="374.02" y2="148.81" style="fill:none;stroke:#263238;stroke-linecap:round;stroke-linejoin:round"></line><line x1="418.99" y1="105.57" x2="397.39" y2="126.34" style="fill:none;stroke:#263238;stroke-linecap:round;stroke-linejoin:round"></line><line x1="372.71" y1="140.53" x2="366.97" y2="146.05" style="fill:none;stroke:#263238;stroke-linecap:round;stroke-linejoin:round"></line><line x1="397.37" y1="116.81" x2="376.66" y2="136.72" style="fill:none;stroke:#263238;stroke-linecap:round;stroke-linejoin:round"></line><line x1="291.78" y1="72.62" x2="273.7" y2="90" style="fill:none;stroke:#263238;stroke-linecap:round;stroke-linejoin:round"></line><line x1="318.67" y1="46.76" x2="297.07" y2="67.54" style="fill:none;stroke:#263238;stroke-linecap:round;stroke-linejoin:round"></line><line x1="272.39" y1="81.72" x2="266.65" y2="87.24" style="fill:none;stroke:#263238;stroke-linecap:round;stroke-linejoin:round"></line><line x1="297.05" y1="58.01" x2="276.34" y2="77.91" style="fill:none;stroke:#263238;stroke-linecap:round;stroke-linejoin:round"></line><line x1="387.77" y1="199.75" x2="369.7" y2="217.13" style="fill:none;stroke:#263238;stroke-linecap:round;stroke-linejoin:round"></line><line x1="414.67" y1="173.89" x2="393.06" y2="194.67" style="fill:none;stroke:#263238;stroke-linecap:round;stroke-linejoin:round"></line><line x1="368.38" y1="208.85" x2="362.64" y2="214.37" style="fill:none;stroke:#263238;stroke-linecap:round;stroke-linejoin:round"></line><line x1="393.05" y1="185.14" x2="372.34" y2="205.04" style="fill:none;stroke:#263238;stroke-linecap:round;stroke-linejoin:round"></line></g><g id="freepik--plant-2--inject-103"><path d="M395.93,269.85l-.78-6.68s-3.55.2-4.92-2.89c-.83-1.87-1.67-5.66-.45-7.53a3.52,3.52,0,0,1,6.39.86c.95,2.71,1.42,3.87,1.42,3.87-.23-3.93-3.19-19.76,5.72-17.35,3.62,1,4.61,4.48,4.77,7.24s-.21,9.91-.21,9.91,2.39.26,2.55-3.71,4-5.77,5.71-3.89,2.48,8.56.62,10.65-7.75,2.82-7.75,2.82l.39,6.71Z" style="fill:#61DAFB;stroke:#263238;stroke-linecap:round;stroke-linejoin:round"></path><path d="M401.05,241.23s-1.47,1.34-1.07,5.9.4,12.72.4,12.72" style="fill:none;stroke:#263238;stroke-linecap:round;stroke-linejoin:round;stroke-width:0.5px"></path><path d="M404.94,244.31s1.74-.26,1.2,3.89a62.58,62.58,0,0,0,0,10.44" style="fill:none;stroke:#263238;stroke-linecap:round;stroke-linejoin:round;stroke-width:0.5px"></path><path d="M392.34,253.15s-1.74.4-.93,3.22,1.07,4.95,2.94,5.36a14.77,14.77,0,0,0,2.55.4l.27,2.94" style="fill:none;stroke:#263238;stroke-linecap:round;stroke-linejoin:round;stroke-width:0.5px"></path><path d="M409.22,261.59s5.49.14,6.56-2.14.41-6.16.41-6.16" style="fill:none;stroke:#263238;stroke-linecap:round;stroke-linejoin:round;stroke-width:0.5px"></path><path d="M394.62,253.89a.47.47,0,1,1-.47-.47A.47.47,0,0,1,394.62,253.89Z" style="fill:none;stroke:#263238;stroke-linecap:round;stroke-linejoin:round;stroke-width:0.5px"></path><circle cx="395.76" cy="259.31" r="0.47" style="fill:none;stroke:#263238;stroke-linecap:round;stroke-linejoin:round;stroke-width:0.5px"></circle><circle cx="393.42" cy="257.1" r="0.47" style="fill:none;stroke:#263238;stroke-linecap:round;stroke-linejoin:round;stroke-width:0.5px"></circle><circle cx="402.93" cy="251.55" r="0.47" style="fill:none;stroke:#263238;stroke-linecap:round;stroke-linejoin:round;stroke-width:0.5px"></circle><circle cx="398.51" cy="246.99" r="0.47" style="fill:none;stroke:#263238;stroke-linecap:round;stroke-linejoin:round;stroke-width:0.5px"></circle><path d="M404.94,263.33a.47.47,0,1,1-.47-.47A.47.47,0,0,1,404.94,263.33Z" style="fill:none;stroke:#263238;stroke-linecap:round;stroke-linejoin:round;stroke-width:0.5px"></path><path d="M399.85,262.66a.47.47,0,1,1-.47-.47A.47.47,0,0,1,399.85,262.66Z" style="fill:none;stroke:#263238;stroke-linecap:round;stroke-linejoin:round;stroke-width:0.5px"></path><circle cx="403.73" cy="242.71" r="0.47" style="fill:none;stroke:#263238;stroke-linecap:round;stroke-linejoin:round;stroke-width:0.5px"></circle><path d="M413.71,251.61a.47.47,0,1,1-.47-.47A.47.47,0,0,1,413.71,251.61Z" style="fill:none;stroke:#263238;stroke-linecap:round;stroke-linejoin:round;stroke-width:0.5px"></path><circle cx="412.03" cy="257.98" r="0.47" style="fill:none;stroke:#263238;stroke-linecap:round;stroke-linejoin:round;stroke-width:0.5px"></circle><circle cx="403.73" cy="257.84" r="0.47" style="fill:none;stroke:#263238;stroke-linecap:round;stroke-linejoin:round;stroke-width:0.5px"></circle><polygon points="414.4 265.52 390.3 265.52 392.71 285.28 411.99 285.28 414.4 265.52" style="fill:#fff;stroke:#263238;stroke-linecap:round;stroke-linejoin:round"></polygon></g><g id="freepik--plant-1--inject-103"><line x1="55.65" y1="229.09" x2="74.1" y2="405.82" style="fill:none;stroke:#263238;stroke-miterlimit:10;stroke-width:2px"></line><line x1="71.12" y1="372" x2="62.76" y2="363.17" style="fill:none;stroke:#263238;stroke-miterlimit:10;stroke-width:2px"></line><path d="M65.3,365.81A9.46,9.46,0,0,0,62,358.72c-2.14-1.92-13.44-6.67-14.51-2.69C46.29,360.36,57.86,368.86,65.3,365.81Z" style="fill:#61DAFB;stroke:#263238;stroke-miterlimit:10"></path><line x1="65.3" y1="365.81" x2="54.55" y2="359.11" style="fill:none;stroke:#263238;stroke-miterlimit:10;stroke-width:0.5px"></line><line x1="73.22" y1="392.1" x2="64.86" y2="383.27" style="fill:none;stroke:#263238;stroke-miterlimit:10;stroke-width:2px"></line><path d="M67.4,385.91a9.46,9.46,0,0,0-3.33-7.09c-2.14-1.92-13.44-6.67-14.51-2.69C48.39,380.46,60,389,67.4,385.91Z" style="fill:#61DAFB;stroke:#263238;stroke-miterlimit:10"></path><line x1="67.4" y1="385.91" x2="56.65" y2="379.21" style="fill:none;stroke:#263238;stroke-miterlimit:10;stroke-width:0.5px"></line><line x1="66" y1="322.95" x2="57.64" y2="314.12" style="fill:none;stroke:#263238;stroke-miterlimit:10;stroke-width:2px"></line><path d="M60.18,316.77a9.49,9.49,0,0,0-3.32-7.1C54.71,307.76,43.41,303,42.34,307,41.18,311.31,52.74,319.81,60.18,316.77Z" style="fill:#61DAFB;stroke:#263238;stroke-miterlimit:10"></path><line x1="60.18" y1="316.77" x2="49.43" y2="310.07" style="fill:none;stroke:#263238;stroke-miterlimit:10;stroke-width:0.5px"></line><line x1="68.1" y1="343.05" x2="59.74" y2="334.22" style="fill:none;stroke:#263238;stroke-miterlimit:10;stroke-width:2px"></line><path d="M62.28,336.87a9.48,9.48,0,0,0-3.33-7.1c-2.14-1.91-13.44-6.66-14.51-2.69C43.27,331.41,54.83,339.91,62.28,336.87Z" style="fill:#61DAFB;stroke:#263238;stroke-miterlimit:10"></path><line x1="62.28" y1="336.87" x2="51.53" y2="330.17" style="fill:none;stroke:#263238;stroke-miterlimit:10;stroke-width:0.5px"></line><line x1="62.6" y1="290.3" x2="54.24" y2="281.47" style="fill:none;stroke:#263238;stroke-miterlimit:10;stroke-width:2px"></line><path d="M56.78,284.12a9.52,9.52,0,0,0-3.33-7.1c-2.15-1.91-13.44-6.67-14.52-2.69C37.77,278.66,49.33,287.16,56.78,284.12Z" style="fill:#61DAFB;stroke:#263238;stroke-miterlimit:10"></path><line x1="56.78" y1="284.12" x2="46.02" y2="277.42" style="fill:none;stroke:#263238;stroke-miterlimit:10;stroke-width:0.5px"></line><line x1="59.17" y1="257.51" x2="50.81" y2="248.68" style="fill:none;stroke:#263238;stroke-miterlimit:10;stroke-width:2px"></line><path d="M53.35,251.32A9.47,9.47,0,0,0,50,244.23c-2.15-1.92-13.45-6.67-14.52-2.69C34.35,245.87,45.91,254.36,53.35,251.32Z" style="fill:#61DAFB;stroke:#263238;stroke-miterlimit:10"></path><line x1="53.35" y1="251.32" x2="42.6" y2="244.62" style="fill:none;stroke:#263238;stroke-miterlimit:10;stroke-width:0.5px"></line><line x1="69.72" y1="360.11" x2="76.08" y2="349.74" style="fill:none;stroke:#263238;stroke-miterlimit:10;stroke-width:2px"></line><path d="M74.14,352.85a9.46,9.46,0,0,1,1.79-7.62c1.7-2.32,11.77-9.3,13.64-5.63C91.61,343.59,82.05,354.29,74.14,352.85Z" style="fill:#61DAFB;stroke:#263238;stroke-miterlimit:10"></path><line x1="74.14" y1="352.85" x2="83.82" y2="343.6" style="fill:none;stroke:#263238;stroke-miterlimit:10;stroke-width:0.5px"></line><line x1="64.2" y1="307.21" x2="70.56" y2="296.85" style="fill:none;stroke:#263238;stroke-miterlimit:10;stroke-width:2px"></line><path d="M68.62,300a9.48,9.48,0,0,1,1.79-7.63c1.7-2.32,11.77-9.3,13.64-5.63C86.09,290.7,76.53,301.4,68.62,300Z" style="fill:#61DAFB;stroke:#263238;stroke-miterlimit:10"></path><line x1="68.62" y1="299.96" x2="78.3" y2="290.7" style="fill:none;stroke:#263238;stroke-miterlimit:10;stroke-width:0.5px"></line><line x1="61.77" y1="283.97" x2="68.13" y2="273.6" style="fill:none;stroke:#263238;stroke-miterlimit:10;stroke-width:2px"></line><path d="M66.19,276.72A9.48,9.48,0,0,1,68,269.09c1.71-2.32,11.78-9.3,13.65-5.63C83.66,267.45,74.1,278.15,66.19,276.72Z" style="fill:#61DAFB;stroke:#263238;stroke-miterlimit:10"></path><line x1="66.19" y1="276.72" x2="75.87" y2="267.46" style="fill:none;stroke:#263238;stroke-miterlimit:10;stroke-width:0.5px"></line><line x1="58.22" y1="249.89" x2="64.57" y2="239.53" style="fill:none;stroke:#263238;stroke-miterlimit:10;stroke-width:2px"></line><path d="M62.63,242.64a9.47,9.47,0,0,1,1.8-7.63c1.7-2.32,11.77-9.3,13.64-5.63C80.1,233.38,70.55,244.08,62.63,242.64Z" style="fill:#61DAFB;stroke:#263238;stroke-miterlimit:10"></path><line x1="62.63" y1="242.64" x2="72.32" y2="233.38" style="fill:none;stroke:#263238;stroke-miterlimit:10;stroke-width:0.5px"></line><path d="M55.5,228.11a9.48,9.48,0,0,1,1.79-7.63c1.7-2.32,11.77-9.3,13.64-5.63C73,218.84,63.41,229.54,55.5,228.11Z" style="fill:#61DAFB;stroke:#263238;stroke-miterlimit:10"></path><line x1="55.5" y1="228.11" x2="65.18" y2="218.85" style="fill:none;stroke:#263238;stroke-miterlimit:10;stroke-width:0.5px"></line><path d="M56.06,228.51a9.51,9.51,0,0,1-7.4-2.59c-2.13-1.93-8-12.68-4.17-14.16C48.68,210.16,58.32,220.79,56.06,228.51Z" style="fill:#61DAFB;stroke:#263238;stroke-miterlimit:10"></path><line x1="56.06" y1="228.51" x2="47.87" y2="217.91" style="fill:none;stroke:#263238;stroke-miterlimit:10;stroke-width:0.5px"></line><line x1="104.3" y1="253.43" x2="85.96" y2="430.17" style="fill:none;stroke:#263238;stroke-miterlimit:10;stroke-width:2px"></line><line x1="90.01" y1="396.46" x2="83.65" y2="386.1" style="fill:none;stroke:#263238;stroke-miterlimit:10;stroke-width:2px"></line><path d="M85.59,389.21a9.47,9.47,0,0,0-1.8-7.63c-1.7-2.31-11.78-9.29-13.64-5.62C68.11,380,77.68,390.65,85.59,389.21Z" style="fill:#61DAFB;stroke:#263238;stroke-miterlimit:10"></path><line x1="85.59" y1="389.21" x2="76.45" y2="380.44" style="fill:none;stroke:#263238;stroke-miterlimit:10;stroke-width:0.5px"></line><line x1="95.1" y1="347.41" x2="88.74" y2="337.05" style="fill:none;stroke:#263238;stroke-miterlimit:10;stroke-width:2px"></line><path d="M90.68,340.16a9.47,9.47,0,0,0-1.8-7.63c-1.7-2.31-11.78-9.29-13.64-5.62C73.2,330.91,82.77,341.6,90.68,340.16Z" style="fill:#61DAFB;stroke:#263238;stroke-miterlimit:10"></path><line x1="90.68" y1="340.16" x2="81.54" y2="331.39" style="fill:none;stroke:#263238;stroke-miterlimit:10;stroke-width:0.5px"></line><line x1="93.02" y1="367.51" x2="86.65" y2="357.15" style="fill:none;stroke:#263238;stroke-miterlimit:10;stroke-width:2px"></line><path d="M88.59,360.26a9.46,9.46,0,0,0-1.79-7.62c-1.71-2.32-11.78-9.3-13.65-5.63C71.12,351,80.68,361.7,88.59,360.26Z" style="fill:#61DAFB;stroke:#263238;stroke-miterlimit:10"></path><line x1="88.59" y1="360.26" x2="79.45" y2="351.49" style="fill:none;stroke:#263238;stroke-miterlimit:10;stroke-width:0.5px"></line><line x1="98.49" y1="314.76" x2="92.13" y2="304.4" style="fill:none;stroke:#263238;stroke-miterlimit:10;stroke-width:2px"></line><path d="M94.07,307.51a9.46,9.46,0,0,0-1.8-7.63c-1.7-2.32-11.78-9.29-13.65-5.62C76.59,298.25,86.16,309,94.07,307.51Z" style="fill:#61DAFB;stroke:#263238;stroke-miterlimit:10"></path><line x1="94.07" y1="307.51" x2="84.93" y2="298.74" style="fill:none;stroke:#263238;stroke-miterlimit:10;stroke-width:0.5px"></line><line x1="101.89" y1="281.96" x2="95.53" y2="271.6" style="fill:none;stroke:#263238;stroke-miterlimit:10;stroke-width:2px"></line><path d="M97.47,274.71a9.46,9.46,0,0,0-1.79-7.62c-1.71-2.32-11.79-9.3-13.65-5.62C80,265.46,89.56,276.16,97.47,274.71Z" style="fill:#61DAFB;stroke:#263238;stroke-miterlimit:10"></path><line x1="97.47" y1="274.71" x2="88.33" y2="265.94" style="fill:none;stroke:#263238;stroke-miterlimit:10;stroke-width:0.5px"></line><line x1="91.09" y1="384.53" x2="99.44" y2="375.7" style="fill:none;stroke:#263238;stroke-miterlimit:10;stroke-width:2px"></line><path d="M96.9,378.35a9.48,9.48,0,0,1,3.33-7.1c2.14-1.92,13.44-6.67,14.51-2.7C115.91,372.88,104.35,381.38,96.9,378.35Z" style="fill:#61DAFB;stroke:#263238;stroke-miterlimit:10"></path><line x1="96.9" y1="378.35" x2="108.29" y2="371.28" style="fill:none;stroke:#263238;stroke-miterlimit:10;stroke-width:0.5px"></line><line x1="96.58" y1="331.64" x2="104.93" y2="322.8" style="fill:none;stroke:#263238;stroke-miterlimit:10;stroke-width:2px"></line><path d="M102.39,325.45a9.45,9.45,0,0,1,3.33-7.09c2.14-1.92,13.43-6.68,14.51-2.7C121.4,320,109.84,328.49,102.39,325.45Z" style="fill:#61DAFB;stroke:#263238;stroke-miterlimit:10"></path><line x1="102.39" y1="325.45" x2="113.77" y2="318.39" style="fill:none;stroke:#263238;stroke-miterlimit:10;stroke-width:0.5px"></line><line x1="98.99" y1="308.39" x2="107.34" y2="299.56" style="fill:none;stroke:#263238;stroke-miterlimit:10;stroke-width:2px"></line><path d="M104.81,302.2a9.43,9.43,0,0,1,3.32-7.09c2.14-1.92,13.44-6.68,14.51-2.7C123.81,296.74,112.25,305.24,104.81,302.2Z" style="fill:#61DAFB;stroke:#263238;stroke-miterlimit:10"></path><line x1="104.81" y1="302.2" x2="116.19" y2="295.14" style="fill:none;stroke:#263238;stroke-miterlimit:10;stroke-width:0.5px"></line><line x1="102.52" y1="274.31" x2="110.88" y2="265.48" style="fill:none;stroke:#263238;stroke-miterlimit:10;stroke-width:2px"></line><path d="M108.34,268.13a9.48,9.48,0,0,1,3.33-7.1c2.14-1.92,13.43-6.68,14.51-2.7C127.35,262.66,115.79,271.16,108.34,268.13Z" style="fill:#61DAFB;stroke:#263238;stroke-miterlimit:10"></path><line x1="108.34" y1="268.13" x2="119.72" y2="261.06" style="fill:none;stroke:#263238;stroke-miterlimit:10;stroke-width:0.5px"></line><path d="M104.35,252.43a9.47,9.47,0,0,1,3.32-7.09c2.15-1.92,13.44-6.68,14.51-2.7C123.35,247,111.8,255.47,104.35,252.43Z" style="fill:#61DAFB;stroke:#263238;stroke-miterlimit:10"></path><line x1="104.35" y1="252.43" x2="115.73" y2="245.37" style="fill:none;stroke:#263238;stroke-miterlimit:10;stroke-width:0.5px"></line><path d="M104.82,252.94a9.48,9.48,0,0,1-6.71-4.05c-1.68-2.33-5.23-14.06-1.16-14.71C101.37,233.47,108.62,245.85,104.82,252.94Z" style="fill:#61DAFB;stroke:#263238;stroke-miterlimit:10"></path><line x1="104.82" y1="252.94" x2="98.99" y2="240.88" style="fill:none;stroke:#263238;stroke-miterlimit:10;stroke-width:0.5px"></line><line x1="83.28" y1="181.46" x2="83.28" y2="404.96" style="fill:none;stroke:#263238;stroke-miterlimit:10;stroke-width:2px"></line><line x1="83.46" y1="371.36" x2="76.06" y2="361.7" style="fill:none;stroke:#263238;stroke-miterlimit:10;stroke-width:2px"></line><path d="M78.31,364.6a9.45,9.45,0,0,0-2.57-7.4c-1.94-2.13-12.68-8-14.16-4.18C60,357.2,70.59,366.85,78.31,364.6Z" style="fill:#61DAFB;stroke:#263238;stroke-miterlimit:10"></path><line x1="78.31" y1="364.6" x2="68.31" y2="356.82" style="fill:none;stroke:#263238;stroke-miterlimit:10;stroke-width:0.5px"></line><line x1="83.46" y1="329.35" x2="76.06" y2="319.7" style="fill:none;stroke:#263238;stroke-miterlimit:10;stroke-width:2px"></line><path d="M78.31,322.6a9.45,9.45,0,0,0-2.57-7.4c-1.94-2.13-12.68-8-14.16-4.19C60,315.2,70.59,324.85,78.31,322.6Z" style="fill:#61DAFB;stroke:#263238;stroke-miterlimit:10"></path><line x1="78.31" y1="322.6" x2="68.31" y2="314.82" style="fill:none;stroke:#263238;stroke-miterlimit:10;stroke-width:0.5px"></line><line x1="83.46" y1="280.04" x2="76.06" y2="270.39" style="fill:none;stroke:#263238;stroke-miterlimit:10;stroke-width:2px"></line><path d="M78.31,273.28a9.45,9.45,0,0,0-2.57-7.4c-1.94-2.13-12.68-8-14.16-4.18C60,265.88,70.59,275.53,78.31,273.28Z" style="fill:#61DAFB;stroke:#263238;stroke-miterlimit:10"></path><line x1="78.31" y1="273.28" x2="68.31" y2="265.5" style="fill:none;stroke:#263238;stroke-miterlimit:10;stroke-width:0.5px"></line><line x1="83.46" y1="247.21" x2="76.06" y2="237.56" style="fill:none;stroke:#263238;stroke-miterlimit:10;stroke-width:2px"></line><path d="M78.31,240.45a9.42,9.42,0,0,0-2.57-7.39c-1.94-2.13-12.68-8-14.16-4.19C60,233.06,70.59,242.71,78.31,240.45Z" style="fill:#61DAFB;stroke:#263238;stroke-miterlimit:10"></path><line x1="78.31" y1="240.45" x2="68.31" y2="232.67" style="fill:none;stroke:#263238;stroke-miterlimit:10;stroke-width:0.5px"></line><line x1="83.46" y1="214.24" x2="76.06" y2="204.59" style="fill:none;stroke:#263238;stroke-miterlimit:10;stroke-width:2px"></line><path d="M78.31,207.48a9.45,9.45,0,0,0-2.57-7.4c-1.94-2.13-12.68-8-14.16-4.18C60,200.08,70.59,209.74,78.31,207.48Z" style="fill:#61DAFB;stroke:#263238;stroke-miterlimit:10"></path><line x1="78.31" y1="207.48" x2="68.31" y2="199.7" style="fill:none;stroke:#263238;stroke-miterlimit:10;stroke-width:0.5px"></line><line x1="83.3" y1="384.18" x2="90.7" y2="374.53" style="fill:none;stroke:#263238;stroke-miterlimit:10;stroke-width:2px"></line><path d="M88.44,377.42A9.45,9.45,0,0,1,91,370c1.93-2.13,12.67-8,14.15-4.19C106.78,370,96.16,379.68,88.44,377.42Z" style="fill:#61DAFB;stroke:#263238;stroke-miterlimit:10"></path><line x1="88.44" y1="377.42" x2="99.03" y2="369.23" style="fill:none;stroke:#263238;stroke-miterlimit:10;stroke-width:0.5px"></line><line x1="83.3" y1="317.38" x2="90.7" y2="307.73" style="fill:none;stroke:#263238;stroke-miterlimit:10;stroke-width:2px"></line><path d="M88.44,310.62a9.48,9.48,0,0,1,2.58-7.4c1.93-2.13,12.67-8,14.15-4.18C106.78,303.22,96.16,312.87,88.44,310.62Z" style="fill:#61DAFB;stroke:#263238;stroke-miterlimit:10"></path><line x1="88.44" y1="310.62" x2="99.03" y2="302.42" style="fill:none;stroke:#263238;stroke-miterlimit:10;stroke-width:0.5px"></line><line x1="83.3" y1="284.41" x2="90.7" y2="274.76" style="fill:none;stroke:#263238;stroke-miterlimit:10;stroke-width:2px"></line><path d="M88.44,277.65a9.48,9.48,0,0,1,2.58-7.4c1.93-2.13,12.67-8,14.15-4.18C106.78,270.25,96.16,279.9,88.44,277.65Z" style="fill:#61DAFB;stroke:#263238;stroke-miterlimit:10"></path><line x1="88.44" y1="277.65" x2="99.03" y2="269.45" style="fill:none;stroke:#263238;stroke-miterlimit:10;stroke-width:0.5px"></line><line x1="83.3" y1="240.83" x2="90.7" y2="231.18" style="fill:none;stroke:#263238;stroke-miterlimit:10;stroke-width:2px"></line><path d="M88.44,234.07a9.48,9.48,0,0,1,2.58-7.4c1.93-2.13,12.67-8,14.15-4.18C106.78,226.67,96.16,236.32,88.44,234.07Z" style="fill:#61DAFB;stroke:#263238;stroke-miterlimit:10"></path><line x1="88.44" y1="234.07" x2="99.03" y2="225.87" style="fill:none;stroke:#263238;stroke-miterlimit:10;stroke-width:0.5px"></line><line x1="83.3" y1="206.57" x2="90.7" y2="196.91" style="fill:none;stroke:#263238;stroke-miterlimit:10;stroke-width:2px"></line><path d="M88.44,199.81a9.48,9.48,0,0,1,2.58-7.4c1.93-2.13,12.67-8,14.15-4.18C106.78,192.41,96.16,202.06,88.44,199.81Z" style="fill:#61DAFB;stroke:#263238;stroke-miterlimit:10"></path><line x1="88.44" y1="199.81" x2="99.03" y2="191.61" style="fill:none;stroke:#263238;stroke-miterlimit:10;stroke-width:0.5px"></line><path d="M82.85,184.61a9.48,9.48,0,0,1,2.58-7.4c1.93-2.12,12.67-8,14.15-4.18C101.19,177.21,90.57,186.87,82.85,184.61Z" style="fill:#61DAFB;stroke:#263238;stroke-miterlimit:10"></path><line x1="82.85" y1="184.61" x2="93.44" y2="176.41" style="fill:none;stroke:#263238;stroke-miterlimit:10;stroke-width:0.5px"></line><path d="M83.37,185.07a9.44,9.44,0,0,1-7.09-3.34c-1.91-2.14-6.65-13.44-2.67-14.51C77.93,166.06,86.42,177.63,83.37,185.07Z" style="fill:#61DAFB;stroke:#263238;stroke-miterlimit:10"></path><line x1="83.37" y1="185.07" x2="76.33" y2="173.68" style="fill:none;stroke:#263238;stroke-miterlimit:10;stroke-width:0.5px"></line><polygon points="92.48 462.93 68.81 462.93 65.85 403.15 95.44 403.15 92.48 462.93" style="fill:#263238;stroke:#263238;stroke-miterlimit:10"></polygon></g><g id="freepik--Device--inject-103"><polygon points="306.35 220 379.33 220 362.33 282.62 289.35 282.62 306.35 220" style="fill:#7d7d7d;stroke:#263238;stroke-linecap:round;stroke-linejoin:round"></polygon><polygon points="308.43 222.33 375.98 222.33 360.25 280.29 292.7 280.29 308.43 222.33" style="fill:#fff;stroke:#263238;stroke-linecap:round;stroke-linejoin:round"></polygon><path d="M324.79,262.21l4.06-15.16h1.69l-3.64,13.63h4.33l-.41,1.53Z" style="fill:#263238"></path><path d="M335.05,250.71c.62-2.32,2.17-3.81,4.48-3.81s3.09,1.49,2.47,3.81l-2.1,7.84c-.61,2.3-2.17,3.82-4.51,3.82s-3.06-1.52-2.44-3.82Zm-.46,7.93c-.37,1.39,0,2.19,1.22,2.19s2-.8,2.38-2.19l2.14-8c.37-1.37,0-2.19-1.21-2.19s-2,.82-2.38,2.19Z" style="fill:#263238"></path><path d="M350.3,250.71,350,252h-1.6l.37-1.38c.37-1.37,0-2.19-1.19-2.19s-2,.82-2.36,2.19l-2.15,8c-.36,1.36,0,2.19,1.19,2.19s2-.83,2.36-2.19l.82-3h-1.56l.4-1.52h3.17l-1.2,4.46c-.61,2.3-2.1,3.82-4.44,3.82s-3-1.52-2.38-3.82l2.1-7.84c.61-2.29,2.1-3.81,4.42-3.81S350.91,248.42,350.3,250.71Z" style="fill:#263238"></path><path d="M351.78,250.71c.62-2.32,2.16-3.81,4.48-3.81s3.09,1.49,2.47,3.81l-2.1,7.84c-.61,2.3-2.17,3.82-4.51,3.82s-3.06-1.52-2.44-3.82Zm-.46,7.93c-.37,1.39,0,2.19,1.22,2.19s2-.8,2.38-2.19l2.14-8c.37-1.37,0-2.19-1.21-2.19s-2,.82-2.38,2.19Z" style="fill:#263238"></path><path d="M326.63,247.88c-.13-3.45-.93-9.81-4.7-14.73-5.45-7.1-15.33,2.56-11.17,14.64a15.27,15.27,0,0,0,2.36,4.31" style="fill:none;stroke:#263238;stroke-linecap:round;stroke-linejoin:round"></path><path d="M317.05,255.91s-14.42,2.19-11.38,7.48c5.25,9.17,14,.75,17.67-3.54" style="fill:none;stroke:#263238;stroke-linecap:round;stroke-linejoin:round"></path><path d="M323.58,243.28c1.62,4.35,1.28,8.49-.76,9.25s-5-2.15-6.64-6.5-1.27-8.5.77-9.26S322,238.93,323.58,243.28Z" style="fill:#61DAFB;stroke:#263238;stroke-linecap:round;stroke-linejoin:round"></path><path d="M309.07,263.64c.5,1.33,3.06,1.59,5.72.58s4.4-2.9,3.9-4.23-3.07-1.59-5.72-.58S308.56,262.31,309.07,263.64Z" style="fill:#61DAFB;stroke:#263238;stroke-linecap:round;stroke-linejoin:round"></path><path d="M331,235.62a14.72,14.72,0,0,1-2.35,13.87,23.88,23.88,0,0,0-1.24-11" style="fill:none;stroke:#263238;stroke-linecap:round;stroke-linejoin:round"></path><rect x="260.01" y="279.3" width="102.32" height="3.33" style="fill:#7d7d7d;stroke:#263238;stroke-linecap:round;stroke-linejoin:round"></rect><rect x="315.31" y="279.3" width="47.02" height="3.33" style="fill:#595959;stroke:#263238;stroke-linecap:round;stroke-linejoin:round"></rect></g><g id="freepik--Desk--inject-103"><rect x="227.28" y="287.93" width="5.5" height="174.61" style="fill:#fff;stroke:#263238;stroke-linecap:round;stroke-linejoin:round"></rect><rect x="222.59" y="287.93" width="4.7" height="174.61" transform="translate(449.87 750.47) rotate(180)" style="fill:#a8a8a8;stroke:#263238;stroke-linecap:round;stroke-linejoin:round"></rect><rect x="368.18" y="379.29" width="5.5" height="83.25" style="fill:#fff;stroke:#263238;stroke-linecap:round;stroke-linejoin:round"></rect><rect x="363.48" y="379.29" width="4.7" height="83.25" transform="translate(731.66 841.84) rotate(180)" style="fill:#a8a8a8;stroke:#263238;stroke-linecap:round;stroke-linejoin:round"></rect><rect x="427.07" y="379.29" width="5.5" height="83.25" style="fill:#fff;stroke:#263238;stroke-linecap:round;stroke-linejoin:round"></rect><rect x="422.38" y="379.29" width="4.7" height="83.25" transform="translate(849.45 841.84) rotate(180)" style="fill:#a8a8a8;stroke:#263238;stroke-linecap:round;stroke-linejoin:round"></rect><rect x="313.67" y="289.63" width="53.66" height="94.42" transform="translate(680.99 673.67) rotate(180)" style="fill:#a8a8a8;stroke:#263238;stroke-linecap:round;stroke-linejoin:round"></rect><rect x="367.32" y="289.63" width="70.71" height="94.42" style="fill:#fff;stroke:#263238;stroke-linecap:round;stroke-linejoin:round"></rect><polygon points="367.32 289.63 313.67 289.63 313.67 294.23 367.32 294.23 438.03 294.23 438.03 289.63 367.32 289.63" style="fill:#263238;stroke:#263238;stroke-linecap:round;stroke-linejoin:round"></polygon><rect x="318.24" y="295.04" width="45.75" height="22.04" style="fill:#fff;stroke:#263238;stroke-linecap:round;stroke-linejoin:round"></rect><rect x="335.09" y="303.98" width="12.06" height="4.16" style="fill:#263238"></rect><rect x="318.24" y="325.4" width="45.75" height="22.04" style="fill:#fff;stroke:#263238;stroke-linecap:round;stroke-linejoin:round"></rect><rect x="335.09" y="333.93" width="12.06" height="4.16" style="fill:#263238"></rect><rect x="318.24" y="355.76" width="45.75" height="22.04" style="fill:#fff;stroke:#263238;stroke-linecap:round;stroke-linejoin:round"></rect><rect x="335.09" y="363.87" width="12.06" height="4.16" style="fill:#263238"></rect><rect x="215" y="285.48" width="230.33" height="5.49" style="fill:#a8a8a8;stroke:#263238;stroke-linecap:round;stroke-linejoin:round"></rect><rect x="375.78" y="285.48" width="69.55" height="5.49" style="fill:#fff;stroke:#263238;stroke-linecap:round;stroke-linejoin:round"></rect></g><g id="freepik--Character--inject-103"><path d="M234.53,341.36s6.86,4.75,17,34.11c3.38,9.76,22.39,62.39,23.39,66s3,8,6,8,14-14,12.66-15.66-7.66-8.34-7.66-8.34-3.78-42.6-4.45-54.6,2.06-26.45-4.27-36.12-34.34.33-34.34.33Z" style="fill:#fff;stroke:#263238;stroke-linecap:round;stroke-linejoin:round"></path><path d="M289,425.52a4.47,4.47,0,0,0-2.34,4.34c.34,3,3.34,7,3.34,7s-6.34,5-9.67,5.33-7,1-7,2,2.67,2.67,4.33,6.33A81.35,81.35,0,0,0,284,461.19c1,1.33,1.66,2.33,5.33,1.33s11.67-8.33,16-11.33,17.33-5,19.67-6.67,9.66-12.33,6.33-14.33-4.33.33-8.33,1.33-15.67-.33-22-1.66-8.34-1.67-8.34-1.67Z" style="fill:#61DAFB;stroke:#263238;stroke-linecap:round;stroke-linejoin:round"></path><path d="M283.42,460.43c.22.32.4.58.54.76,1,1.33,1.66,2.33,5.33,1.33s11.67-8.33,16-11.33,17.33-5,19.67-6.67,9.66-12.33,6.33-14.33a5.6,5.6,0,0,0-1.51-.66c.06.22.12.42.18.66,1,4-2.34,8-5.34,11s-13,2.33-24,8A107.74,107.74,0,0,0,283.42,460.43Z" style="fill:#fff;stroke:#263238;stroke-linecap:round;stroke-linejoin:round"></path><path d="M283.1,392.17c-.72-8.77-1.35-17-1.59-21.25-.67-12,2.06-26.45-4.27-36.12s-34.34.33-34.34.33l-8.37,6.23s6.86,4.75,17,34.11c1.29,3.73,4.87,13.74,8.86,24.87Z" style="fill:#263238;stroke:#263238;stroke-linecap:round;stroke-linejoin:round"></path><path d="M266.78,170.38a19.26,19.26,0,0,1,1.21,7.25c-.3,3.33-3.33,4.84-3.63,3.94a21.64,21.64,0,0,1-.3-4.54v-1.21a15.46,15.46,0,0,1-2.72,3.33c-2.12,2.11-3.33,1.51-4.24,1.51s-1.21-3,.31-5.14S263.76,168.56,266.78,170.38Z" style="fill:#fff;stroke:#263238;stroke-linecap:round;stroke-linejoin:round"></path><path d="M273.74,178.24c-3-1.82-7.56,4.54-14.52,3-.89-.19-1.21-1.51.3-4.53s6.35-5.45,8.77-7.26,4.24-3.33,4.24-5.45-5.45,1.21-7,2.42a49.12,49.12,0,0,1-5.7,3.05l-1.31.07c-2.69.17-6.84.65-8.41,2-2.06,1.79-3.24,7.94-3.73,10.31-1.34,1.94-2.54,3.73-3.23,4.81-2.12,3.32-44.76,34.48-44.76,34.48l3,26.61,48.39-55a13.23,13.23,0,0,1,4.54-2.42c3.33-1.21,7.86-2.12,11.8-4.24a90.61,90.61,0,0,0,8.47-5.14C276.7,179.64,275.38,179.22,273.74,178.24Z" style="fill:#fff;stroke:#263238;stroke-linecap:round;stroke-linejoin:round"></path><path d="M222.88,203C211,212,198.43,221.19,198.43,221.19l3,26.61L231.18,214Z" style="fill:#61DAFB;stroke:#263238;stroke-linecap:round;stroke-linejoin:round"></path><path d="M208,303.67s21.33-1,52.33,4S302.93,318,302,324c-3.78,24.34-60.61,104.47-60.61,104.47l1,11.33s-2,2.67-9,3-15.67-9.66-15.67-9.66,7.83-8.1,10.83-17.76,27.12-72.05,27.12-72.05-31.67,7-66.67.67S208,303.67,208,303.67Z" style="fill:#fff;stroke:#263238;stroke-linecap:round;stroke-linejoin:round"></path><path d="M260.33,307.67c-31-5-52.33-4-52.33-4s-54,34-19,40.33,66.67-.67,66.67-.67-10,26-18,47l23.51,9C278,373.89,299.71,338.73,302,324,302.93,318,291.33,312.67,260.33,307.67Z" style="fill:#263238;stroke:#263238;stroke-linecap:round;stroke-linejoin:round"></path><path d="M241.39,428.47a5.52,5.52,0,0,0-3,3,44.6,44.6,0,0,0-1.67,4.67,61.07,61.07,0,0,1-10.66-3.34,59.44,59.44,0,0,1-7.34-4s-3,.34-3,2.34a26,26,0,0,1-1.66,9c-.86,2.14-2.69,6.91-3.88,10a2.72,2.72,0,0,0,1.95,3.62c5.28,1.17,16.41,3.74,25.93,6.67,13,4,27.33,2,29,1.67s8.33-4.34,5.33-7-20.67-9.67-24.33-14.34S241.39,428.47,241.39,428.47Z" style="fill:#61DAFB;stroke:#263238;stroke-linecap:round;stroke-linejoin:round"></path><path d="M271.05,454.2c0,3.31-1.7,6.6-7,6.6s-14.67-.66-28-6a175.2,175.2,0,0,0-24.73-7.64c-.41,1.07-.81,2.11-1.15,3a2.72,2.72,0,0,0,1.95,3.62c5.28,1.17,16.41,3.74,25.93,6.67,13,4,27.33,2,29,1.67s8.33-4.34,5.33-7A9.24,9.24,0,0,0,271.05,454.2Z" style="fill:#fff;stroke:#263238;stroke-linecap:round;stroke-linejoin:round"></path><path d="M140.66,226s-3.63,28.74-3.32,34.18,4.23,52.32,5.14,62.61,5.14,19.35,12.7,21.17,27.22,4.53,35.69,2.42,17.54-21.17,20.56-28.43,5.15-11.8,4.24-13.31-4.84-4.84-4.84-4.84-7.56-55-9.38-69.26-.9-15.42-7.56-20.87S152.76,199.71,140.66,226Z" style="fill:#61DAFB;stroke:#263238;stroke-linecap:round;stroke-linejoin:round"></path><path d="M189.06,326.31c-1.09.83-2.23,1.62-3.39,2.36" style="fill:none;stroke:#263238;stroke-linecap:round;stroke-linejoin:round"></path><path d="M209,302s-6.42,12.6-17.05,21.94" style="fill:none;stroke:#263238;stroke-linecap:round;stroke-linejoin:round"></path><path d="M204.33,302.67s-10.33,9.66-20.66,15.66" style="fill:none;stroke:#263238;stroke-linecap:round;stroke-linejoin:round"></path><path d="M212.64,135.59a59.66,59.66,0,0,1,3.94,10.89c.9,4.54,1.21,8.77,3.32,9.68s6,1.21,5.45,3.63-4.54,6.35-4.54,6.35.91,14.52.6,17.24-16.33,2.72-17.23,2.72-10,21.48-10,21.48l-25.4-12.71,4.84-15.72s-7.86-15.13-8.47-21.78S180,138.62,188.75,135.9,212.64,135.59,212.64,135.59Z" style="fill:#fff;stroke:#263238;stroke-linecap:round;stroke-linejoin:round"></path><polygon points="204.18 186.1 196.11 183.8 199.13 195.61 204.18 186.1" style="fill:#263238;stroke:#263238;stroke-linecap:round;stroke-linejoin:round"></polygon><path d="M215.64,152.7c.4,1.71.21,3.22-.44,3.37s-1.51-1.1-1.92-2.8-.21-3.22.44-3.37S215.23,151,215.64,152.7Z" style="fill:#263238"></path><path d="M210.53,168.86s3.63,2.73,6.95,1.52" style="fill:none;stroke:#263238;stroke-linecap:round;stroke-linejoin:round"></path><path d="M211.13,129.85s4.24,7.56,1.21,12.4-10.28,6.95-14.21,11.49-6,12.4-7.56,13-6-8.47-8.78-7.87-7.25,7-3.32,13.61a11.49,11.49,0,0,0,10.89,5.75s-10.89,5.75-13,5.75-8.47-3.63-11.49-7S151,163.72,150.34,155.56s10.28-18.45,10.28-18.45-13-.91-9.67-5.75,15.12-7.86,15.12-7.86-2.12-7.56.91-9.08S188.45,119,188.45,119s-5.14-6.65,2.12-7S210.22,120.77,211.13,129.85Z" style="fill:#263238;stroke:#263238;stroke-linecap:round;stroke-linejoin:round"></path><line x1="187.06" y1="162.69" x2="225.65" y2="147.09" style="fill:none;stroke:#263238;stroke-linecap:round;stroke-linejoin:round"></line><path d="M215.59,144.9a6.81,6.81,0,0,1,6,12.21" style="fill:none;stroke:#263238;stroke-linecap:round;stroke-linejoin:round"></path><path d="M201.45,216s-.3-8.77-2.72-11.19-20.26-12.4-28.43-14.51-16.63.9-22.08,2.72S139.15,200,137,211.21s-2.42,18.14,2.12,18.75,10.89-13,25.1-15.73,27.22-.3,30.25,1.21S201.45,216,201.45,216Z" style="fill:#61DAFB;stroke:#263238;stroke-linecap:round;stroke-linejoin:round"></path><path d="M155.52,206.76c-2.73,1-4.57,1.72-4.57,1.72" style="fill:none;stroke:#263238;stroke-linecap:round;stroke-linejoin:round"></path><path d="M201.45,216s-19-10.58-26-12.7c-3.63-1.1-10.15.35-15.55,2" style="fill:none;stroke:#263238;stroke-linecap:round;stroke-linejoin:round"></path><path d="M291.26,265.2s-1,6.29-2.15,7-1.08-5.84-1.08-5.84-1.44,3.77-2.33,4.67-.36-3.86-.36-3.86l1-4.49Z" style="fill:#fff;stroke:#263238;stroke-linecap:round;stroke-linejoin:round"></path><path d="M278.46,259l9.28.15s2.45.35,2.8,1.75a42.88,42.88,0,0,0,1.75,4.55l-14.36-4.2Z" style="fill:#fff;stroke:#263238;stroke-linecap:round;stroke-linejoin:round"></path><path d="M281.78,261.93s13-1.75,13.31-.7c.26.79,1.26,7.91,1.48,10.21a.37.37,0,0,1-.66.25l-3.62-6.26-9.81.7S279.68,263.68,281.78,261.93Z" style="fill:#fff;stroke:#263238;stroke-linecap:round;stroke-linejoin:round"></path><path d="M174.31,222.72s-8.06,5.95-5.26,20.66,22.41,55,24.16,58.46,9.45,3.85,12.95,2.8S272,278.74,272,278.74s6.65-1.76,7.7-3.16,7.71-8.75,7.71-8.75,10.5,1.4,12.95.7-2.45-1.4-4.9-2.1c-1.89-.54-12.31-4.61-17-6.45a3.66,3.66,0,0,0-4,.85c-3.28,3.36-10.27,10.49-11.6,11.55-1.75,1.4-51.11,9.81-51.11,9.81s-11.56-54.27-16.11-58.82-12.6-3.5-12.6-3.5" style="fill:#61DAFB;stroke:#263238;stroke-linecap:round;stroke-linejoin:round"></path><path d="M239.42,291.68C255.77,285.2,272,278.74,272,278.74s6.65-1.76,7.7-3.16,7.7-8.75,7.7-8.75,10.51,1.4,13,.7-2.45-1.4-4.9-2.1c-1.89-.54-12.31-4.61-17-6.45a3.66,3.66,0,0,0-4,.85c-3.28,3.36-10.27,10.49-11.6,11.55-.91.73-14.7,3.35-27.73,5.7Z" style="fill:#fff;stroke:#263238;stroke-linecap:round;stroke-linejoin:round"></path><path d="M130,360.58,114.75,461.92a.83.83,0,0,0,1.61.41l23-100.08Z" style="fill:#9c9c9c;stroke:#263238;stroke-linecap:round;stroke-linejoin:round"></path><path d="M152.76,361.25l6.63,100.48a.83.83,0,0,0,1.66,0l1.15-101.29Z" style="fill:#9c9c9c;stroke:#263238;stroke-linecap:round;stroke-linejoin:round"></path><path d="M175.13,362.76l18.2,98.74a.83.83,0,0,0,1.63-.26l-10.6-100.63Z" style="fill:#9c9c9c;stroke:#263238;stroke-linecap:round;stroke-linejoin:round"></path><path d="M210.31,361.93l14.89,99.4a.83.83,0,0,0,1.64-.19l-7.22-101Z" style="fill:#9c9c9c;stroke:#263238;stroke-linecap:round;stroke-linejoin:round"></path><path d="M196.08,341.7s-17.51-5.84-25.68-26.84S148.82,257.68,139.48,253s-27.42,4.08-28.59,37.92,1.57,59,9.11,67.32c6.67,7.33,18,16.67,57.33,17.33,35.13.6,49.47-12.79,54.34-17.33S244.5,344,238.09,344,204.25,344,196.08,341.7Z" style="fill:#fff;stroke:#263238;stroke-linecap:round;stroke-linejoin:round"></path></g><g id="freepik--Butterfly--inject-103"><path d="M276.93,134s-6.83-8-16.32-9.49-10.13,12.35,2,18.42a20.2,20.2,0,0,0,10.89,1.7s-9.69,11.45-3.42,13.28c14,4.12,11-17.46,11-17.46Z" style="fill:#fff;stroke:#263238;stroke-linecap:round;stroke-linejoin:round"></path><path d="M279.23,133.45s-4-9.71-1-18.85,14.89-2.93,14.77,10.64a20.67,20.67,0,0,1-2.73,10s15.26-3.25,13.38,3c-4.27,14.21-20.56,1.85-20.56,1.85Z" style="fill:#fff;stroke:#263238;stroke-linecap:round;stroke-linejoin:round"></path><path d="M284.53,145.58a1,1,0,0,1-.86-.49l-9.49-15.94a1,1,0,0,1,.34-1.37,1,1,0,0,1,1.38.35l9.48,15.94a1,1,0,0,1-.34,1.37A1.06,1.06,0,0,1,284.53,145.58Z" style="fill:#263238"></path><path d="M275.8,130.54s-3.42-7.21-9.49-8" style="fill:none;stroke:#263238;stroke-linecap:round;stroke-linejoin:round"></path><path d="M275.9,128.13s-2-5.94-.48-9.74" style="fill:none;stroke:#263238;stroke-linecap:round;stroke-linejoin:round"></path><path d="M269.85,134.87c-.36,1.76-3,2.72-5.86,2.14s-4.93-2.49-4.57-4.25,3-2.73,5.86-2.14S270.21,133.1,269.85,134.87Z" style="fill:#61DAFB;stroke:#263238;stroke-linecap:round;stroke-linejoin:round"></path><path d="M277,147.27c1,.67,1,2.55-.13,4.22S274,154,273,153.28s-1-2.55.13-4.22S275.93,146.6,277,147.27Z" style="fill:#61DAFB;stroke:#263238;stroke-linecap:round;stroke-linejoin:round"></path><path d="M297.79,138.9c0,1.22-1.58,2.23-3.57,2.26s-3.61-.94-3.63-2.16,1.58-2.23,3.57-2.26S297.77,137.69,297.79,138.9Z" style="fill:#61DAFB;stroke:#263238;stroke-linecap:round;stroke-linejoin:round"></path><path d="M285.47,128.46c-1.79.2-3.51-2-3.83-4.93s.87-5.44,2.66-5.64,3.5,2,3.82,4.93S287.26,128.26,285.47,128.46Z" style="fill:#61DAFB;stroke:#263238;stroke-linecap:round;stroke-linejoin:round"></path></g><g id="freepik--Floor--inject-103"><line x1="24.15" y1="462.93" x2="489.94" y2="462.93" style="fill:#fff;stroke:#263238;stroke-linecap:round;stroke-linejoin:round"></line></g></svg>